SplineFontDB: 3.0
FontName: IstokWeb-Regular
FullName: Istok Web Regular
FamilyName: Istok Web
Weight: Regular
Copyright: (C) 2008, 2009, 2010, 2011 Andrey V. Panov
Version: 0.4.2.1
ItalicAngle: 0
UnderlinePosition: -204
UnderlineWidth: 102
Ascent: 1548
Descent: 500
sfntRevision: 0x00006666
LayerCount: 2
Layer: 0 1 "Back"  1
Layer: 1 1 "Fore"  0
XUID: [1021 288 713564382 8335443]
FSType: 0
OS2Version: 4
OS2_WeightWidthSlopeOnly: 0
OS2_UseTypoMetrics: 1
CreationTime: 1225286394
ModificationTime: 1310106232
PfmFamily: 33
TTFWeight: 500
TTFWidth: 5
LineGap: 0
VLineGap: 0
Panose: 2 15 6 3 3 4 3 2 2 4
OS2TypoAscent: 2061
OS2TypoAOffset: 0
OS2TypoDescent: -887
OS2TypoDOffset: 0
OS2TypoLinegap: 0
OS2WinAscent: 2061
OS2WinAOffset: 0
OS2WinDescent: 887
OS2WinDOffset: 0
HheadAscent: 2061
HheadAOffset: 0
HheadDescent: -887
HheadDOffset: 0
OS2SubXSize: 1331
OS2SubYSize: 1433
OS2SubXOff: 0
OS2SubYOff: 286
OS2SupXSize: 1331
OS2SupYSize: 1433
OS2SupXOff: 0
OS2SupYOff: 983
OS2StrikeYSize: 102
OS2StrikeYPos: 530
OS2FamilyClass: 2048
OS2Vendor: 'PfEd'
OS2CodePages: 00000016.00000000
OS2UnicodeRanges: a00002ff.5000405b.00000000.00000000
Lookup: 4 0 1 "'liga' Standard Ligatures in Cyrillic lookup 0"  {"'liga' Standard Ligatures in Cyrillic lookup 0 subtable"  } ['liga' ('cyrl' <'MKD ' 'SRB ' 'dflt' > ) ]
Lookup: 4 0 1 "'liga' Standard Ligatures in Latin lookup 1"  {"'liga' Standard Ligatures in Latin lookup 1 subtable"  } ['liga' ('latn' <'NLD ' 'VIT ' 'dflt' > ) ]
Lookup: 4 0 1 "'liga' Standard Ligatures in Latin lookup 2"  {"'liga' Standard Ligatures in Latin lookup 2 subtable"  } ['liga' ('latn' <'AZE ' 'NLD ' 'TRK ' 'VIT ' 'dflt' > ) ]
Lookup: 1 0 0 "'smcp' Lowercase to Small Capitals lookup 3"  {"'smcp' Lowercase to Small Capitals lookup 3 subtable"  } ['smcp' ('cyrl' <'dflt' > 'latn' <'dflt' > ) ]
Lookup: 1 0 0 "'c2sc' Capitals to Small Capitals lookup 4"  {"'c2sc' Capitals to Small Capitals lookup 4 subtable"  } ['c2sc' ('cyrl' <'dflt' > 'latn' <'dflt' > ) ]

StartChar: .notdef
Encoding: 0 -1 0
AltUni2: 000000.ffffffff.0
Width: 1240
Flags: W
LayerCount: 2
Fore
SplineSet
195 0 m 2,0,1
 150 0 150 0 150 45 c 2,2,-1
 150 1389 l 2,3,4
 150 1434 150 1434 187 1434 c 2,5,-1
 1045 1434 l 2,6,7
 1090 1434 1090 1434 1090 1389 c 2,8,-1
 1090 45 l 2,9,10
 1090 0 1090 0 1045 0 c 2,11,-1
 195 0 l 2,0,1
270 120 m 1,12,-1
 970 120 l 1,13,-1
 970 1314 l 1,14,-1
 270 1314 l 1,15,-1
 270 120 l 1,12,-1
EndSplineSet
EndChar

StartChar: exclam
Encoding: 33 33 4
Width: 600
GlyphClass: 2
Flags: W
LayerCount: 2
Fore
SplineSet
198 1379 m 1,0,1
 198 1434 198 1434 248 1434 c 2,2,-1
 352 1434 l 2,3,4
 402 1434 402 1434 402 1379 c 1,5,-1
 381 435 l 1,6,7
 381 390 381 390 336 390 c 2,8,-1
 264 390 l 2,9,10
 219 390 219 390 219 435 c 1,11,-1
 198 1379 l 1,0,1
244 0 m 2,12,13
 199 0 199 0 199 45 c 2,14,-1
 199 167 l 2,15,16
 199 212 199 212 244 212 c 2,17,-1
 356 212 l 2,18,19
 401 212 401 212 401 167 c 2,20,-1
 401 45 l 2,21,22
 401 0 401 0 356 0 c 2,23,-1
 244 0 l 2,12,13
EndSplineSet
EndChar

StartChar: numbersign
Encoding: 35 35 6
Width: 1390
GlyphClass: 2
Flags: W
LayerCount: 2
Fore
SplineSet
121 375 m 2,0,1
 76 375 76 375 82 410 c 2,2,-1
 91 460 l 2,3,4
 97 495 97 495 142 495 c 2,5,-1
 357 495 l 1,6,-1
 433 927 l 1,7,-1
 218 927 l 2,8,9
 174 927 174 927 180 962 c 2,10,-1
 188 1012 l 2,11,12
 194 1047 194 1047 240 1047 c 2,13,-1
 455 1047 l 1,14,-1
 513 1377 l 2,15,16
 521 1422 521 1422 556 1422 c 2,17,-1
 618 1422 l 2,18,19
 653 1422 653 1422 645 1377 c 2,20,-1
 587 1047 l 1,21,-1
 923 1047 l 1,22,-1
 981 1377 l 2,23,24
 989 1422 989 1422 1024 1422 c 2,25,-1
 1086 1422 l 2,26,27
 1121 1422 1121 1422 1113 1377 c 2,28,-1
 1055 1047 l 1,29,-1
 1270 1047 l 2,30,31
 1314 1047 1314 1047 1308 1012 c 2,32,-1
 1300 962 l 2,33,34
 1294 927 1294 927 1248 927 c 2,35,-1
 1033 927 l 1,36,-1
 957 495 l 1,37,-1
 1172 495 l 2,38,39
 1217 495 1217 495 1211 460 c 2,40,-1
 1202 410 l 2,41,42
 1196 375 1196 375 1151 375 c 2,43,-1
 936 375 l 1,44,-1
 878 45 l 2,45,46
 870 0 870 0 835 0 c 2,47,-1
 773 0 l 2,48,49
 738 0 738 0 746 45 c 2,50,-1
 804 375 l 1,51,-1
 468 375 l 1,52,-1
 410 45 l 2,53,54
 402 0 402 0 367 0 c 2,55,-1
 305 0 l 2,56,57
 270 0 270 0 278 45 c 2,58,-1
 336 375 l 1,59,-1
 121 375 l 2,0,1
489 495 m 1,60,-1
 825 495 l 1,61,-1
 901 927 l 1,62,-1
 565 927 l 1,63,-1
 489 495 l 1,60,-1
EndSplineSet
EndChar

StartChar: dollar
Encoding: 36 36 7
Width: 1110
GlyphClass: 2
Flags: W
LayerCount: 2
Fore
SplineSet
127 96 m 0,0,1
 73 145 73 145 99 180 c 2,2,-1
 139 234 l 2,3,4
 170 276 170 276 226 228 c 0,5,6
 300 165 300 165 367 145.5 c 128,-1,7
 434 126 434 126 506 121 c 1,8,-1
 506 651 l 1,9,10
 433 672 433 672 363 712 c 0,11,12
 268 766 268 766 216 835 c 128,-1,13
 164 904 164 904 150 963 c 128,-1,14
 136 1022 136 1022 136 1116 c 0,15,16
 136 1180 136 1180 182 1263 c 128,-1,17
 228 1346 228 1346 311 1393 c 128,-1,18
 394 1440 394 1440 506 1451 c 1,19,-1
 506 1571 l 2,20,21
 506 1616 506 1616 541 1616 c 2,22,-1
 591 1616 l 2,23,24
 626 1616 626 1616 626 1571 c 2,25,-1
 626 1449 l 1,26,27
 691 1449 691 1449 775.5 1418.5 c 128,-1,28
 860 1388 860 1388 902 1347 c 0,29,30
 948 1302 948 1302 926 1269 c 2,31,-1
 883 1206 l 2,32,33
 850 1158 850 1158 793 1220 c 0,34,35
 759 1257 759 1257 704.5 1276.5 c 128,-1,36
 650 1296 650 1296 626 1296 c 1,37,-1
 626 808 l 1,38,39
 705 783 705 783 802 726 c 0,40,41
 870 686 870 686 918 631 c 128,-1,42
 966 576 966 576 986 510 c 128,-1,43
 1006 444 1006 444 1006 374 c 0,44,45
 1006 280 1006 280 974 206 c 128,-1,46
 942 132 942 132 857 61 c 128,-1,47
 772 -10 772 -10 626 -27 c 1,48,-1
 626 -165 l 2,49,50
 626 -210 626 -210 591 -210 c 2,51,-1
 541 -210 l 2,52,53
 506 -210 506 -210 506 -165 c 2,54,-1
 506 -29 l 1,55,56
 406 -29 406 -29 299.5 3.5 c 128,-1,57
 193 36 193 36 127 96 c 0,0,1
322 1104 m 0,58,59
 322 1025 322 1025 348.5 974 c 128,-1,60
 375 923 375 923 444 884 c 0,61,62
 474 867 474 867 506 853 c 1,63,-1
 506 1299 l 1,64,65
 442 1294 442 1294 382 1247 c 128,-1,66
 322 1200 322 1200 322 1104 c 0,58,59
626 127 m 1,67,68
 702 144 702 144 756 197 c 128,-1,69
 810 250 810 250 810 373 c 0,70,71
 810 440 810 440 779.5 493.5 c 128,-1,72
 749 547 749 547 702 575 c 0,73,74
 650 605 650 605 626 613 c 1,75,-1
 626 127 l 1,67,68
EndSplineSet
EndChar

StartChar: ampersand
Encoding: 38 38 9
Width: 1382
GlyphClass: 2
Flags: W
LayerCount: 2
Fore
SplineSet
120 326 m 0,0,1
 120 429 120 429 170.5 541.5 c 128,-1,2
 221 654 221 654 446 817 c 1,3,4
 396 874 396 874 341.5 957.5 c 128,-1,5
 287 1041 287 1041 287 1164 c 0,6,7
 287 1284 287 1284 370 1374 c 128,-1,8
 453 1464 453 1464 637 1464 c 0,9,10
 750 1464 750 1464 855.5 1403.5 c 128,-1,11
 961 1343 961 1343 961 1179 c 0,12,13
 961 1073 961 1073 888.5 979 c 128,-1,14
 816 885 816 885 694 793 c 1,15,-1
 1008 418 l 1,16,17
 1048 460 1048 460 1092 535 c 128,-1,18
 1136 610 1136 610 1148 658 c 0,19,20
 1160 704 1160 704 1199 692 c 2,21,-1
 1275 668 l 2,22,23
 1318 654 1318 654 1304 614 c 0,24,25
 1274 524 1274 524 1214 433 c 128,-1,26
 1154 342 1154 342 1109 297 c 1,27,-1
 1310 58 l 2,28,29
 1359 0 1359 0 1292 0 c 2,30,-1
 1191 0 l 2,31,32
 1133 0 1133 0 1097 43 c 2,33,-1
 987 173 l 1,34,35
 894 82 894 82 791 26 c 128,-1,36
 688 -30 688 -30 519 -30 c 0,37,38
 347 -30 347 -30 233.5 69 c 128,-1,39
 120 168 120 168 120 326 c 0,0,1
315 328 m 0,40,41
 315 236 315 236 371.5 175.5 c 128,-1,42
 428 115 428 115 540 115 c 0,43,44
 624 115 624 115 722 168 c 128,-1,45
 820 221 820 221 886 293 c 1,46,-1
 548 698 l 1,47,48
 395 581 395 581 355 506.5 c 128,-1,49
 315 432 315 432 315 328 c 0,40,41
467 1173 m 0,50,51
 467 1091 467 1091 511.5 1023.5 c 128,-1,52
 556 956 556 956 592 911 c 1,53,54
 702 1005 702 1005 741.5 1062 c 128,-1,55
 781 1119 781 1119 781 1185 c 0,56,57
 781 1241 781 1241 742.5 1283 c 128,-1,58
 704 1325 704 1325 624 1325 c 0,59,60
 550 1325 550 1325 508.5 1282 c 128,-1,61
 467 1239 467 1239 467 1173 c 0,50,51
EndSplineSet
EndChar

StartChar: quotesingle
Encoding: 39 39 10
Width: 478
GlyphClass: 2
Flags: W
LayerCount: 2
Fore
SplineSet
151 1414 m 2,0,1
 149 1469 149 1469 187 1469 c 2,2,-1
 291 1469 l 2,3,4
 329 1469 329 1469 327 1414 c 2,5,-1
 306 869 l 2,6,7
 304 824 304 824 271 824 c 2,8,-1
 207 824 l 2,9,10
 174 824 174 824 172 869 c 2,11,-1
 151 1414 l 2,0,1
EndSplineSet
EndChar

StartChar: parenleft
Encoding: 40 40 11
Width: 670
GlyphClass: 2
Flags: W
LayerCount: 2
Fore
SplineSet
124 544 m 256,0,1
 124 852 124 852 228 1084 c 128,-1,2
 332 1316 332 1316 491 1493 c 0,3,4
 529 1536 529 1536 559 1513 c 2,5,-1
 594 1486 l 2,6,7
 625 1462 625 1462 592 1427 c 0,8,9
 502 1331 502 1331 411 1103.5 c 128,-1,10
 320 876 320 876 320 544 c 256,11,12
 320 212 320 212 411 -15.5 c 128,-1,13
 502 -243 502 -243 592 -339 c 0,14,15
 625 -374 625 -374 594 -398 c 2,16,-1
 559 -425 l 2,17,18
 529 -448 529 -448 491 -405 c 0,19,20
 332 -228 332 -228 228 4 c 128,-1,21
 124 236 124 236 124 544 c 256,0,1
EndSplineSet
EndChar

StartChar: parenright
Encoding: 41 41 12
Width: 670
GlyphClass: 2
Flags: W
LayerCount: 2
Fore
SplineSet
76 -398 m 2,0,1
 45 -374 45 -374 78 -339 c 0,2,3
 168 -243 168 -243 259 -15.5 c 128,-1,4
 350 212 350 212 350 544 c 256,5,6
 350 876 350 876 259 1103.5 c 128,-1,7
 168 1331 168 1331 78 1427 c 0,8,9
 45 1462 45 1462 76 1486 c 2,10,-1
 111 1513 l 2,11,12
 141 1536 141 1536 179 1493 c 0,13,14
 338 1316 338 1316 442 1084 c 128,-1,15
 546 852 546 852 546 544 c 256,16,17
 546 236 546 236 442 4 c 128,-1,18
 338 -228 338 -228 179 -405 c 0,19,20
 141 -448 141 -448 111 -425 c 2,21,-1
 76 -398 l 2,0,1
EndSplineSet
EndChar

StartChar: asterisk
Encoding: 42 42 13
Width: 940
GlyphClass: 2
Flags: W
LayerCount: 2
Fore
SplineSet
370 1057 m 1,0,-1
 156 1150 l 2,1,2
 74 1185 74 1185 115 1256 c 1,3,-1
 121 1266 l 2,4,5
 162 1336 162 1336 233 1283 c 2,6,-1
 420 1144 l 1,7,-1
 393 1376 l 2,8,9
 383 1464 383 1464 464 1464 c 2,10,-1
 476 1464 l 2,11,12
 557 1464 557 1464 547 1376 c 2,13,-1
 520 1144 l 1,14,-1
 707 1283 l 2,15,16
 778 1336 778 1336 819 1266 c 2,17,-1
 825 1256 l 1,18,19
 866 1185 866 1185 784 1150 c 2,20,-1
 570 1057 l 1,21,-1
 784 965 l 2,22,23
 866 930 866 930 825 859 c 1,24,-1
 819 849 l 2,25,26
 778 779 778 779 707 831 c 2,27,-1
 520 971 l 1,28,-1
 547 739 l 2,29,30
 557 651 557 651 476 651 c 2,31,-1
 464 651 l 2,32,33
 383 651 383 651 393 739 c 2,34,-1
 420 971 l 1,35,-1
 233 831 l 2,36,37
 162 779 162 779 121 849 c 2,38,-1
 115 859 l 1,39,40
 74 930 74 930 156 965 c 2,41,-1
 370 1057 l 1,0,-1
EndSplineSet
EndChar

StartChar: plus
Encoding: 43 43 14
Width: 1280
GlyphClass: 2
Flags: W
LayerCount: 2
Fore
SplineSet
125 665 m 2,0,1
 80 665 80 665 80 700 c 2,2,-1
 80 750 l 2,3,4
 80 785 80 785 125 785 c 2,5,-1
 579 785 l 1,6,-1
 579 1239 l 2,7,8
 579 1284 579 1284 614 1284 c 2,9,-1
 664 1284 l 2,10,11
 699 1284 699 1284 699 1239 c 2,12,-1
 699 785 l 1,13,-1
 1155 785 l 2,14,15
 1200 785 1200 785 1200 750 c 2,16,-1
 1200 700 l 2,17,18
 1200 665 1200 665 1155 665 c 2,19,-1
 699 665 l 1,20,-1
 699 209 l 2,21,22
 699 164 699 164 664 164 c 2,23,-1
 614 164 l 2,24,25
 579 164 579 164 579 209 c 2,26,-1
 579 665 l 1,27,-1
 125 665 l 2,0,1
EndSplineSet
Substitution2: "'tnum' Tabular Numbers lookup 5 subtable" plus.tab
EndChar

StartChar: comma
Encoding: 44 44 15
Width: 600
GlyphClass: 2
Flags: W
LayerCount: 2
Fore
SplineSet
242 0 m 2,0,1
 197 0 197 0 197 45 c 2,2,-1
 197 167 l 2,3,4
 197 212 197 212 242 212 c 2,5,-1
 358 212 l 2,6,7
 403 212 403 212 403 167 c 2,8,-1
 403 45 l 2,9,10
 403 -60 403 -60 380.5 -138.5 c 128,-1,11
 358 -217 358 -217 292 -276 c 0,12,13
 270 -295 270 -295 255 -281 c 2,14,-1
 210 -239 l 2,15,16
 195 -225 195 -225 217 -205 c 0,17,18
 251 -175 251 -175 272.5 -118.5 c 128,-1,19
 294 -62 294 -62 294 0 c 1,20,-1
 242 0 l 2,0,1
EndSplineSet
EndChar

StartChar: hyphen
Encoding: 45 45 16
Width: 680
GlyphClass: 2
Flags: W
LayerCount: 2
Fore
SplineSet
101 483 m 2,0,1
 56 483 56 483 56 518 c 2,2,-1
 56 588 l 2,3,4
 56 623 56 623 101 623 c 2,5,-1
 579 623 l 2,6,7
 624 623 624 623 624 588 c 2,8,-1
 624 518 l 2,9,10
 624 483 624 483 579 483 c 2,11,-1
 101 483 l 2,0,1
EndSplineSet
EndChar

StartChar: period
Encoding: 46 46 17
Width: 600
GlyphClass: 2
Flags: W
LayerCount: 2
Fore
SplineSet
244 0 m 2,0,1
 199 0 199 0 199 45 c 2,2,-1
 199 167 l 2,3,4
 199 212 199 212 244 212 c 2,5,-1
 356 212 l 2,6,7
 401 212 401 212 401 167 c 2,8,-1
 401 45 l 2,9,10
 401 0 401 0 356 0 c 2,11,-1
 244 0 l 2,0,1
EndSplineSet
EndChar

StartChar: slash
Encoding: 47 47 18
Width: 840
GlyphClass: 2
Flags: W
LayerCount: 2
Fore
SplineSet
24 -391 m 2,0,1
 -10 -377 -10 -377 7 -335 c 2,2,-1
 722 1436 l 2,3,4
 739 1478 739 1478 773 1464 c 2,5,-1
 818 1446 l 2,6,7
 850 1433 850 1433 833 1391 c 2,8,-1
 118 -380 l 2,9,10
 101 -422 101 -422 69 -409 c 2,11,-1
 24 -391 l 2,0,1
EndSplineSet
EndChar

StartChar: zero
Encoding: 48 48 19
Width: 1110
GlyphClass: 2
Flags: W
LayerCount: 2
Fore
SplineSet
93 711 m 256,0,1
 93 1061 93 1061 189 1256.5 c 128,-1,2
 285 1452 285 1452 555 1452 c 256,3,4
 825 1452 825 1452 921 1256.5 c 128,-1,5
 1017 1061 1017 1061 1017 711 c 256,6,7
 1017 361 1017 361 921 165.5 c 128,-1,8
 825 -30 825 -30 555 -30 c 256,9,10
 285 -30 285 -30 189 165.5 c 128,-1,11
 93 361 93 361 93 711 c 256,0,1
279 711 m 256,12,13
 279 431 279 431 327 272.5 c 128,-1,14
 375 114 375 114 555 114 c 256,15,16
 735 114 735 114 783 272.5 c 128,-1,17
 831 431 831 431 831 711 c 256,18,19
 831 991 831 991 783 1149.5 c 128,-1,20
 735 1308 735 1308 555 1308 c 256,21,22
 375 1308 375 1308 327 1149.5 c 128,-1,23
 279 991 279 991 279 711 c 256,12,13
EndSplineSet
Substitution2: "'onum' Oldstyle Figures lookup 6 subtable" zero.oldstyle
EndChar

StartChar: one
Encoding: 49 49 20
Width: 827
GlyphClass: 2
Flags: W
LayerCount: 2
Fore
SplineSet
161 1151 m 2,0,1
 148 1183 148 1183 185 1197 c 0,2,3
 262 1226 262 1226 331 1290 c 128,-1,4
 400 1354 400 1354 440 1404 c 0,5,6
 469 1440 469 1440 496 1440 c 2,7,-1
 581 1440 l 2,8,9
 627 1440 627 1440 627 1395 c 2,10,-1
 627 45 l 2,11,12
 627 0 627 0 582 0 c 2,13,-1
 496 0 l 2,14,15
 451 0 451 0 451 45 c 2,16,-1
 451 1141 l 2,17,18
 451 1171 451 1171 453 1201 c 1,19,-1
 451 1201 l 1,20,21
 420 1162 420 1162 360 1121 c 128,-1,22
 300 1080 300 1080 250 1061 c 0,23,24
 206 1044 206 1044 192 1077 c 2,25,-1
 161 1151 l 2,0,1
EndSplineSet
Substitution2: "'onum' Oldstyle Figures lookup 6 subtable" one.oldstyle
Substitution2: "'tnum' Tabular Numbers lookup 5 subtable" one.tab
EndChar

StartChar: two
Encoding: 50 50 21
Width: 1110
GlyphClass: 2
Flags: W
LayerCount: 2
Fore
SplineSet
149 0 m 2,0,1
 94 0 94 0 94 45 c 2,2,-1
 94 93 l 2,3,4
 94 132 94 132 127 165 c 2,5,-1
 519 560 l 2,6,7
 693 735 693 735 747.5 830.5 c 128,-1,8
 802 926 802 926 802 1051 c 0,9,10
 802 1156 802 1156 740.5 1229 c 128,-1,11
 679 1302 679 1302 554 1302 c 0,12,13
 442 1302 442 1302 368 1245 c 128,-1,14
 294 1188 294 1188 261 1054 c 0,15,16
 247 997 247 997 202 1010 c 2,17,-1
 124 1033 l 2,18,19
 93 1042 93 1042 109 1118 c 0,20,21
 138 1249 138 1249 249.5 1350.5 c 128,-1,22
 361 1452 361 1452 546 1452 c 0,23,24
 781 1452 781 1452 889.5 1334 c 128,-1,25
 998 1216 998 1216 998 1045 c 0,26,27
 998 878 998 878 908.5 757 c 128,-1,28
 819 636 819 636 663 485 c 2,29,-1
 334 166 l 1,30,-1
 334 162 l 1,31,32
 361 164 361 164 414 164 c 2,33,-1
 959 164 l 2,34,35
 1014 164 1014 164 1014 119 c 2,36,-1
 1014 45 l 2,37,38
 1014 0 1014 0 959 0 c 2,39,-1
 149 0 l 2,0,1
EndSplineSet
Substitution2: "'onum' Oldstyle Figures lookup 6 subtable" two.oldstyle
EndChar

StartChar: three
Encoding: 51 51 22
Width: 1110
GlyphClass: 2
Flags: W
LayerCount: 2
Fore
SplineSet
109 148 m 0,0,1
 69 194 69 194 93 223 c 2,2,-1
 145 286 l 2,3,4
 179 327 179 327 226 268 c 0,5,6
 278 203 278 203 354.5 161.5 c 128,-1,7
 431 120 431 120 515 120 c 0,8,9
 680 120 680 120 749 202 c 128,-1,10
 818 284 818 284 818 421 c 0,11,12
 818 566 818 566 726 631 c 128,-1,13
 634 696 634 696 520 696 c 2,14,-1
 432 696 l 2,15,16
 387 696 387 696 387 729 c 2,17,-1
 387 803 l 2,18,19
 387 838 387 838 432 838 c 2,20,-1
 503 838 l 2,21,22
 613 838 613 838 691.5 910 c 128,-1,23
 770 982 770 982 770 1106 c 0,24,25
 770 1192 770 1192 707 1247 c 128,-1,26
 644 1302 644 1302 530 1302 c 0,27,28
 423 1302 423 1302 355 1253 c 128,-1,29
 287 1204 287 1204 259 1168 c 0,30,31
 222 1120 222 1120 187 1153 c 2,32,-1
 128 1210 l 2,33,34
 102 1235 102 1235 151 1293 c 0,35,36
 203 1354 203 1354 300.5 1403 c 128,-1,37
 398 1452 398 1452 533 1452 c 0,38,39
 740 1452 740 1452 849 1352 c 128,-1,40
 958 1252 958 1252 958 1093 c 0,41,42
 958 967 958 967 880.5 882.5 c 128,-1,43
 803 798 803 798 711 778 c 1,44,-1
 711 774 l 1,45,46
 818 759 818 759 916 658 c 128,-1,47
 1014 557 1014 557 1014 417 c 0,48,49
 1014 209 1014 209 893.5 89.5 c 128,-1,50
 773 -30 773 -30 511 -30 c 0,51,52
 359 -30 359 -30 260 29.5 c 128,-1,53
 161 89 161 89 109 148 c 0,0,1
EndSplineSet
Substitution2: "'onum' Oldstyle Figures lookup 6 subtable" three.oldstyle
EndChar

StartChar: four
Encoding: 52 52 23
Width: 1110
GlyphClass: 2
Flags: W
LayerCount: 2
Fore
SplineSet
109 354 m 2,0,1
 64 354 64 354 64 399 c 2,2,-1
 64 487 l 2,3,4
 64 519 64 519 88 556 c 2,5,-1
 637 1404 l 2,6,7
 660 1440 660 1440 693 1440 c 2,8,-1
 784 1440 l 2,9,10
 830 1440 830 1440 830 1395 c 2,11,-1
 830 518 l 1,12,-1
 1001 518 l 2,13,14
 1046 518 1046 518 1046 473 c 2,15,-1
 1046 399 l 2,16,17
 1046 354 1046 354 1002 354 c 2,18,-1
 830 354 l 1,19,-1
 830 45 l 2,20,21
 830 0 830 0 785 0 c 2,22,-1
 699 0 l 2,23,24
 654 0 654 0 654 45 c 2,25,-1
 654 354 l 1,26,-1
 109 354 l 2,0,1
243 518 m 1,27,-1
 654 518 l 1,28,-1
 654 1093 l 2,29,30
 654 1123 654 1123 656 1153 c 1,31,-1
 654 1153 l 1,32,-1
 243 518 l 1,27,-1
EndSplineSet
Substitution2: "'onum' Oldstyle Figures lookup 6 subtable" four.oldstyle
EndChar

StartChar: five
Encoding: 53 53 24
Width: 1110
GlyphClass: 2
Flags: W
LayerCount: 2
Fore
SplineSet
114 163 m 0,0,1
 76 213 76 213 105 239 c 2,2,-1
 167 294 l 2,3,4
 201 324 201 324 246 269 c 0,5,6
 273 236 273 236 341 178 c 128,-1,7
 409 120 409 120 518 120 c 0,8,9
 661 120 661 120 733.5 208 c 128,-1,10
 806 296 806 296 806 441 c 0,11,12
 806 578 806 578 744 657 c 128,-1,13
 682 736 682 736 558 736 c 0,14,15
 481 736 481 736 430 721 c 128,-1,16
 379 706 379 706 324 658 c 0,17,18
 286 625 286 625 244 625 c 2,19,-1
 197 625 l 2,20,21
 152 625 152 625 152 670 c 2,22,-1
 152 1377 l 2,23,24
 152 1422 152 1422 197 1422 c 2,25,-1
 887 1422 l 2,26,27
 932 1422 932 1422 932 1377 c 2,28,-1
 932 1303 l 2,29,30
 932 1258 932 1258 887 1258 c 2,31,-1
 328 1258 l 1,32,-1
 328 863 l 2,33,34
 328 833 328 833 326 803 c 1,35,-1
 330 803 l 1,36,37
 386 850 386 850 461 868 c 128,-1,38
 536 886 536 886 600 886 c 0,39,40
 786 886 786 886 894 762 c 128,-1,41
 1002 638 1002 638 1002 437 c 0,42,43
 1002 218 1002 218 872.5 94 c 128,-1,44
 743 -30 743 -30 520 -30 c 0,45,46
 357 -30 357 -30 257.5 37.5 c 128,-1,47
 158 105 158 105 114 163 c 0,0,1
EndSplineSet
Substitution2: "'onum' Oldstyle Figures lookup 6 subtable" five.oldstyle
EndChar

StartChar: six
Encoding: 54 54 25
Width: 1110
GlyphClass: 2
Flags: W
LayerCount: 2
Fore
SplineSet
92 671 m 0,0,1
 92 1111 92 1111 245 1281.5 c 128,-1,2
 398 1452 398 1452 617 1452 c 0,3,4
 742 1452 742 1452 817 1420 c 128,-1,5
 892 1388 892 1388 946 1338 c 0,6,7
 988 1299 988 1299 965 1273 c 2,8,-1
 918 1218 l 2,9,10
 890 1186 890 1186 845 1224 c 0,11,12
 808 1256 808 1256 756 1279 c 128,-1,13
 704 1302 704 1302 608 1302 c 0,14,15
 473 1302 473 1302 373 1167 c 128,-1,16
 273 1032 273 1032 273 743 c 1,17,-1
 275 743 l 1,18,19
 320 808 320 808 404.5 853.5 c 128,-1,20
 489 899 489 899 618 899 c 0,21,22
 778 899 778 899 899 789.5 c 128,-1,23
 1020 680 1020 680 1020 460 c 0,24,25
 1020 242 1020 242 904.5 106 c 128,-1,26
 789 -30 789 -30 563 -30 c 0,27,28
 327 -30 327 -30 209.5 157.5 c 128,-1,29
 92 345 92 345 92 671 c 0,0,1
307 447 m 0,30,31
 307 323 307 323 375.5 221.5 c 128,-1,32
 444 120 444 120 565 120 c 0,33,34
 690 120 690 120 757 214 c 128,-1,35
 824 308 824 308 824 454 c 0,36,37
 824 599 824 599 756 672.5 c 128,-1,38
 688 746 688 746 586 746 c 0,39,40
 454 746 454 746 380.5 665 c 128,-1,41
 307 584 307 584 307 447 c 0,30,31
EndSplineSet
Substitution2: "'onum' Oldstyle Figures lookup 6 subtable" six.oldstyle
EndChar

StartChar: seven
Encoding: 55 55 26
Width: 1100
GlyphClass: 2
Flags: W
LayerCount: 2
Fore
SplineSet
133 1258 m 2,0,1
 88 1258 88 1258 88 1303 c 2,2,-1
 88 1377 l 2,3,4
 88 1422 88 1422 133 1422 c 2,5,-1
 967 1422 l 2,6,7
 1012 1422 1012 1422 1012 1377 c 2,8,-1
 1012 1308 l 2,9,10
 1012 1276 1012 1276 976 1236 c 0,11,12
 776 1009 776 1009 655 733.5 c 128,-1,13
 534 458 534 458 534 133 c 2,14,-1
 534 39 l 2,15,16
 534 -6 534 -6 489 -6 c 2,17,-1
 398 -6 l 2,18,19
 353 -6 353 -6 353 39 c 2,20,-1
 353 98 l 2,21,22
 353 459 353 459 490 733.5 c 128,-1,23
 627 1008 627 1008 831 1258 c 1,24,-1
 831 1260 l 1,25,26
 801 1258 801 1258 771 1258 c 2,27,-1
 133 1258 l 2,0,1
EndSplineSet
Substitution2: "'onum' Oldstyle Figures lookup 6 subtable" seven.oldstyle
Substitution2: "'tnum' Tabular Numbers lookup 5 subtable" seven.tab
EndChar

StartChar: eight
Encoding: 56 56 27
Width: 1110
GlyphClass: 2
Flags: W
LayerCount: 2
Fore
SplineSet
92 410 m 0,0,1
 92 550 92 550 179 648.5 c 128,-1,2
 266 747 266 747 351 768 c 1,3,-1
 351 771 l 1,4,5
 259 800 259 800 193 879 c 128,-1,6
 127 958 127 958 127 1088 c 0,7,8
 127 1253 127 1253 246 1352.5 c 128,-1,9
 365 1452 365 1452 555 1452 c 256,10,11
 745 1452 745 1452 864 1352.5 c 128,-1,12
 983 1253 983 1253 983 1088 c 0,13,14
 983 958 983 958 913 878.5 c 128,-1,15
 843 799 843 799 751 770 c 1,16,-1
 751 768 l 1,17,18
 836 747 836 747 927 648.5 c 128,-1,19
 1018 550 1018 550 1018 410 c 0,20,21
 1018 210 1018 210 906.5 90 c 128,-1,22
 795 -30 795 -30 555 -30 c 256,23,24
 315 -30 315 -30 203.5 90 c 128,-1,25
 92 210 92 210 92 410 c 0,0,1
287 406 m 0,26,27
 287 266 287 266 356 193 c 128,-1,28
 425 120 425 120 555 120 c 256,29,30
 685 120 685 120 753.5 193 c 128,-1,31
 822 266 822 266 822 406 c 0,32,33
 822 516 822 516 751 600 c 128,-1,34
 680 684 680 684 555 684 c 256,35,36
 430 684 430 684 358.5 600 c 128,-1,37
 287 516 287 516 287 406 c 0,26,27
315 1088 m 0,38,39
 315 988 315 988 372.5 917 c 128,-1,40
 430 846 430 846 555 846 c 256,41,42
 680 846 680 846 737.5 917 c 128,-1,43
 795 988 795 988 795 1088 c 0,44,45
 795 1168 795 1168 740 1235 c 128,-1,46
 685 1302 685 1302 555 1302 c 256,47,48
 425 1302 425 1302 370 1235 c 128,-1,49
 315 1168 315 1168 315 1088 c 0,38,39
EndSplineSet
Substitution2: "'onum' Oldstyle Figures lookup 6 subtable" eight.oldstyle
EndChar

StartChar: nine
Encoding: 57 57 28
Width: 1110
GlyphClass: 2
Flags: W
LayerCount: 2
Fore
SplineSet
90 962 m 0,0,1
 90 1180 90 1180 205.5 1316 c 128,-1,2
 321 1452 321 1452 547 1452 c 0,3,4
 783 1452 783 1452 900.5 1264.5 c 128,-1,5
 1018 1077 1018 1077 1018 751 c 0,6,7
 1018 311 1018 311 865 140.5 c 128,-1,8
 712 -30 712 -30 493 -30 c 0,9,10
 368 -30 368 -30 293 2 c 128,-1,11
 218 34 218 34 164 84 c 0,12,13
 122 123 122 123 145 149 c 2,14,-1
 192 204 l 2,15,16
 220 236 220 236 265 198 c 0,17,18
 302 166 302 166 354 143 c 128,-1,19
 406 120 406 120 502 120 c 0,20,21
 637 120 637 120 737 255 c 128,-1,22
 837 390 837 390 837 679 c 1,23,-1
 835 679 l 1,24,25
 790 614 790 614 705.5 568.5 c 128,-1,26
 621 523 621 523 492 523 c 0,27,28
 332 523 332 523 211 632.5 c 128,-1,29
 90 742 90 742 90 962 c 0,0,1
286 968 m 0,30,31
 286 823 286 823 354 749.5 c 128,-1,32
 422 676 422 676 524 676 c 0,33,34
 656 676 656 676 729.5 757 c 128,-1,35
 803 838 803 838 803 975 c 0,36,37
 803 1099 803 1099 734.5 1200.5 c 128,-1,38
 666 1302 666 1302 545 1302 c 0,39,40
 420 1302 420 1302 353 1208 c 128,-1,41
 286 1114 286 1114 286 968 c 0,30,31
EndSplineSet
Substitution2: "'onum' Oldstyle Figures lookup 6 subtable" nine.oldstyle
EndChar

StartChar: less
Encoding: 60 60 31
Width: 1280
GlyphClass: 2
Flags: W
LayerCount: 2
Fore
SplineSet
130 685 m 2,0,1
 105 699 105 699 105 719 c 2,2,-1
 105 751 l 2,3,4
 105 771 105 771 130 785 c 2,5,-1
 1082 1335 l 2,6,7
 1121 1358 1121 1358 1139 1327 c 2,8,-1
 1164 1284 l 2,9,10
 1182 1254 1182 1254 1142 1231 c 2,11,-1
 283 736 l 1,12,-1
 283 734 l 1,13,-1
 1142 239 l 2,14,15
 1182 216 1182 216 1164 186 c 2,16,-1
 1139 143 l 2,17,18
 1121 112 1121 112 1082 135 c 2,19,-1
 130 685 l 2,0,1
EndSplineSet
EndChar

StartChar: greater
Encoding: 62 62 33
Width: 1280
GlyphClass: 2
Flags: W
LayerCount: 2
Fore
SplineSet
116 186 m 2,0,1
 98 216 98 216 138 239 c 2,2,-1
 997 734 l 1,3,-1
 997 736 l 1,4,-1
 138 1231 l 2,5,6
 98 1254 98 1254 116 1284 c 2,7,-1
 141 1327 l 2,8,9
 159 1358 159 1358 198 1335 c 2,10,-1
 1150 785 l 2,11,12
 1175 771 1175 771 1175 751 c 2,13,-1
 1175 719 l 2,14,15
 1175 699 1175 699 1150 685 c 2,16,-1
 198 135 l 2,17,18
 159 112 159 112 141 143 c 2,19,-1
 116 186 l 2,0,1
EndSplineSet
EndChar

StartChar: question
Encoding: 63 63 34
Width: 1016
GlyphClass: 2
Flags: W
LayerCount: 2
Fore
SplineSet
111 1164 m 2,0,1
 80 1178 80 1178 108 1250 c 0,2,3
 135 1317 135 1317 226.5 1390.5 c 128,-1,4
 318 1464 318 1464 493 1464 c 0,5,6
 708 1464 708 1464 809 1361.5 c 128,-1,7
 910 1259 910 1259 910 1088 c 0,8,9
 910 945 910 945 743.5 760.5 c 128,-1,10
 577 576 577 576 577 438 c 2,11,-1
 577 415 l 2,12,13
 577 370 577 370 532 370 c 2,14,-1
 446 370 l 2,15,16
 401 370 401 370 401 415 c 2,17,-1
 401 452 l 2,18,19
 401 621 401 621 557.5 799.5 c 128,-1,20
 714 978 714 978 714 1094 c 0,21,22
 714 1216 714 1216 657 1265 c 128,-1,23
 600 1314 600 1314 500 1314 c 0,24,25
 390 1314 390 1314 334.5 1274 c 128,-1,26
 279 1234 279 1234 250 1165 c 0,27,28
 227 1111 227 1111 185 1130 c 2,29,-1
 111 1164 l 2,0,1
432 0 m 2,30,31
 387 0 387 0 387 45 c 2,32,-1
 387 167 l 2,33,34
 387 212 387 212 432 212 c 2,35,-1
 544 212 l 2,36,37
 589 212 589 212 589 167 c 2,38,-1
 589 45 l 2,39,40
 589 0 589 0 544 0 c 2,41,-1
 432 0 l 2,30,31
EndSplineSet
EndChar

StartChar: at
Encoding: 64 64 35
Width: 1992
GlyphClass: 2
Flags: W
LayerCount: 2
Fore
SplineSet
120 551 m 0,0,1
 120 932 120 932 380 1202.5 c 128,-1,2
 640 1473 640 1473 1060 1473 c 0,3,4
 1366 1473 1366 1473 1619 1294.5 c 128,-1,5
 1872 1116 1872 1116 1872 716 c 0,6,7
 1872 422 1872 422 1731 266.5 c 128,-1,8
 1590 111 1590 111 1360 111 c 0,9,10
 1230 111 1230 111 1194 168 c 128,-1,11
 1158 225 1158 225 1158 332 c 1,12,-1
 1156 332 l 1,13,14
 1118 243 1118 243 1026 177 c 128,-1,15
 934 111 934 111 843 111 c 0,16,17
 709 111 709 111 627.5 207 c 128,-1,18
 546 303 546 303 546 467 c 0,19,20
 546 673 546 673 677.5 857.5 c 128,-1,21
 809 1042 809 1042 1006 1042 c 0,22,23
 1197 1042 1197 1042 1241 866 c 1,24,-1
 1245 866 l 1,25,-1
 1268 972 l 2,26,27
 1275 1006 1275 1006 1310 1006 c 2,28,-1
 1420 1006 l 2,29,30
 1455 1006 1455 1006 1447 971 c 2,31,-1
 1316 380 l 2,32,33
 1294 282 1294 282 1320 256.5 c 128,-1,34
 1346 231 1346 231 1391 231 c 0,35,36
 1537 231 1537 231 1643.5 342.5 c 128,-1,37
 1750 454 1750 454 1750 716 c 0,38,39
 1750 1020 1750 1020 1556 1186.5 c 128,-1,40
 1362 1353 1362 1353 1062 1353 c 0,41,42
 720 1353 720 1353 481 1134.5 c 128,-1,43
 242 916 242 916 242 536 c 0,44,45
 242 204 242 204 470.5 -4 c 128,-1,46
 699 -212 699 -212 1020 -212 c 0,47,48
 1170 -212 1170 -212 1322.5 -157.5 c 128,-1,49
 1475 -103 1475 -103 1606 3 c 0,50,51
 1633 25 1633 25 1649 3 c 2,52,-1
 1688 -51 l 2,53,54
 1705 -75 1705 -75 1678 -93 c 0,55,56
 1515 -208 1515 -208 1355.5 -270 c 128,-1,57
 1196 -332 1196 -332 1011 -332 c 0,58,59
 652 -332 652 -332 386 -94 c 128,-1,60
 120 144 120 144 120 551 c 0,0,1
717 447 m 0,61,62
 717 324 717 324 761.5 277.5 c 128,-1,63
 806 231 806 231 885 231 c 0,64,65
 986 231 986 231 1073.5 373.5 c 128,-1,66
 1161 516 1161 516 1177 582 c 0,67,68
 1192 646 1192 646 1192 727 c 0,69,70
 1192 796 1192 796 1151 860 c 128,-1,71
 1110 924 1110 924 1030 924 c 0,72,73
 896 924 896 924 806.5 780 c 128,-1,74
 717 636 717 636 717 447 c 0,61,62
EndSplineSet
EndChar

StartChar: A
Encoding: 65 65 36
Width: 1360
GlyphClass: 2
Flags: W
AnchorPoint: "Anchor-5" 680 1464 basechar 0
AnchorPoint: "Anchor-4" 680 0 basechar 0
AnchorPoint: "Anchor-1" 1180 0 basechar 0
LayerCount: 2
Fore
SplineSet
73 0 m 2,0,1
 21 0 21 0 46 66 c 2,2,-1
 544 1373 l 2,3,4
 567 1434 567 1434 610 1434 c 2,5,-1
 750 1434 l 2,6,7
 793 1434 793 1434 816 1373 c 2,8,-1
 1314 66 l 2,9,10
 1339 0 1339 0 1287 0 c 2,11,-1
 1185 0 l 2,12,13
 1132 0 1132 0 1113 49 c 2,14,-1
 988 380 l 1,15,-1
 372 380 l 1,16,-1
 247 49 l 2,17,18
 228 0 228 0 175 0 c 2,19,-1
 73 0 l 2,0,1
435 544 m 1,20,-1
 925 544 l 1,21,-1
 772 944 l 2,22,23
 751 1000 751 1000 730.5 1068 c 128,-1,24
 710 1136 710 1136 682 1261 c 1,25,-1
 678 1261 l 1,26,27
 650 1136 650 1136 629.5 1068 c 128,-1,28
 609 1000 609 1000 588 944 c 2,29,-1
 435 544 l 1,20,-1
EndSplineSet
Substitution2: "'c2sc' Capitals to Small Capitals lookup 4 subtable" A.sc
EndChar

StartChar: B
Encoding: 66 66 37
Width: 1358
GlyphClass: 2
Flags: W
AnchorPoint: "Anchor-5" 664 1464 basechar 0
AnchorPoint: "Anchor-4" 664 0 basechar 0
LayerCount: 2
Fore
SplineSet
220 0 m 2,0,1
 170 0 170 0 170 55 c 2,2,-1
 170 1379 l 2,3,4
 170 1434 170 1434 220 1434 c 2,5,-1
 610 1434 l 2,6,7
 950 1434 950 1434 1068 1324 c 128,-1,8
 1186 1214 1186 1214 1186 1059 c 0,9,10
 1186 936 1186 936 1088 850.5 c 128,-1,11
 990 765 990 765 898 750 c 1,12,-1
 898 747 l 1,13,14
 999 738 999 738 1123.5 646.5 c 128,-1,15
 1248 555 1248 555 1248 398 c 0,16,17
 1248 228 1248 228 1122.5 114 c 128,-1,18
 997 0 997 0 660 0 c 2,19,-1
 220 0 l 2,0,1
362 164 m 1,20,-1
 628 164 l 2,21,22
 843 164 843 164 943 217 c 128,-1,23
 1043 270 1043 270 1043 404 c 0,24,25
 1043 528 1043 528 941.5 596 c 128,-1,26
 840 664 840 664 628 664 c 2,27,-1
 362 664 l 1,28,-1
 362 164 l 1,20,-1
362 808 m 1,29,-1
 613 808 l 2,30,31
 780 808 780 808 885.5 879.5 c 128,-1,32
 991 951 991 951 991 1059 c 0,33,34
 991 1162 991 1162 912 1216 c 128,-1,35
 833 1270 833 1270 613 1270 c 2,36,-1
 362 1270 l 1,37,-1
 362 808 l 1,29,-1
EndSplineSet
Substitution2: "'c2sc' Capitals to Small Capitals lookup 4 subtable" B.sc
EndChar

StartChar: C
Encoding: 67 67 38
Width: 1402
GlyphClass: 2
Flags: W
AnchorPoint: "Anchor-5" 764 1464 basechar 0
AnchorPoint: "Anchor-4" 764 0 basechar 0
LayerCount: 2
Fore
SplineSet
92 717 m 256,0,1
 92 1067 92 1067 265.5 1265.5 c 128,-1,2
 439 1464 439 1464 764 1464 c 0,3,4
 954 1464 954 1464 1078 1399.5 c 128,-1,5
 1202 1335 1202 1335 1256 1223 c 0,6,7
 1284 1165 1284 1165 1247 1143 c 2,8,-1
 1168 1097 l 2,9,10
 1128 1074 1128 1074 1097 1135 c 0,11,12
 1064 1198 1064 1198 989 1253 c 128,-1,13
 914 1308 914 1308 774 1308 c 0,14,15
 524 1308 524 1308 410.5 1152.5 c 128,-1,16
 297 997 297 997 297 717 c 256,17,18
 297 437 297 437 410.5 281.5 c 128,-1,19
 524 126 524 126 774 126 c 0,20,21
 918 126 918 126 1004.5 192 c 128,-1,22
 1091 258 1091 258 1130 330 c 0,23,24
 1161 388 1161 388 1202 365 c 2,25,-1
 1285 318 l 2,26,27
 1321 297 1321 297 1291 238 c 0,28,29
 1232 123 1232 123 1099 46.5 c 128,-1,30
 966 -30 966 -30 764 -30 c 0,31,32
 439 -30 439 -30 265.5 168.5 c 128,-1,33
 92 367 92 367 92 717 c 256,0,1
EndSplineSet
Substitution2: "'c2sc' Capitals to Small Capitals lookup 4 subtable" C.sc
EndChar

StartChar: D
Encoding: 68 68 39
Width: 1436
GlyphClass: 2
Flags: W
AnchorPoint: "Anchor-5" 712 1464 basechar 0
AnchorPoint: "Anchor-4" 712 0 basechar 0
LayerCount: 2
Fore
SplineSet
220 0 m 2,0,1
 170 0 170 0 170 55 c 2,2,-1
 170 1379 l 2,3,4
 170 1434 170 1434 220 1434 c 2,5,-1
 589 1434 l 2,6,7
 1013 1434 1013 1434 1178.5 1246.5 c 128,-1,8
 1344 1059 1344 1059 1344 719 c 256,9,10
 1344 379 1344 379 1178.5 189.5 c 128,-1,11
 1013 0 1013 0 589 0 c 2,12,-1
 220 0 l 2,0,1
362 164 m 1,13,-1
 580 164 l 2,14,15
 910 164 910 164 1024.5 304 c 128,-1,16
 1139 444 1139 444 1139 719 c 256,17,18
 1139 994 1139 994 1024.5 1133 c 128,-1,19
 910 1272 910 1272 580 1272 c 2,20,-1
 362 1272 l 1,21,-1
 362 164 l 1,13,-1
EndSplineSet
Substitution2: "'c2sc' Capitals to Small Capitals lookup 4 subtable" D.sc
EndChar

StartChar: E
Encoding: 69 69 40
Width: 1270
GlyphClass: 2
Flags: W
AnchorPoint: "Anchor-5" 675 1464 basechar 0
AnchorPoint: "Anchor-4" 675 0 basechar 0
AnchorPoint: "Anchor-1" 675 0 basechar 0
LayerCount: 2
Fore
SplineSet
220 0 m 2,0,1
 170 0 170 0 170 55 c 2,2,-1
 170 1379 l 2,3,4
 170 1434 170 1434 220 1434 c 2,5,-1
 1095 1434 l 2,6,7
 1150 1434 1150 1434 1150 1389 c 2,8,-1
 1150 1315 l 2,9,10
 1150 1270 1150 1270 1095 1270 c 2,11,-1
 362 1270 l 1,12,-1
 362 826 l 1,13,-1
 1035 826 l 2,14,15
 1090 826 1090 826 1090 781 c 2,16,-1
 1090 707 l 2,17,18
 1090 662 1090 662 1035 662 c 2,19,-1
 362 662 l 1,20,-1
 362 164 l 1,21,-1
 1125 164 l 2,22,23
 1180 164 1180 164 1180 119 c 2,24,-1
 1180 45 l 2,25,26
 1180 0 1180 0 1125 0 c 2,27,-1
 220 0 l 2,0,1
EndSplineSet
Substitution2: "'c2sc' Capitals to Small Capitals lookup 4 subtable" E.sc
EndChar

StartChar: F
Encoding: 70 70 41
Width: 1166
GlyphClass: 2
Flags: W
AnchorPoint: "Anchor-5" 630 1464 basechar 0
AnchorPoint: "Anchor-4" 630 0 basechar 0
LayerCount: 2
Fore
SplineSet
220 0 m 2,0,1
 170 0 170 0 170 55 c 2,2,-1
 170 1379 l 2,3,4
 170 1434 170 1434 220 1434 c 2,5,-1
 1035 1434 l 2,6,7
 1090 1434 1090 1434 1090 1389 c 2,8,-1
 1090 1315 l 2,9,10
 1090 1270 1090 1270 1035 1270 c 2,11,-1
 362 1270 l 1,12,-1
 362 796 l 1,13,-1
 949 796 l 2,14,15
 1004 796 1004 796 1004 751 c 2,16,-1
 1004 677 l 2,17,18
 1004 632 1004 632 949 632 c 2,19,-1
 362 632 l 1,20,-1
 362 55 l 2,21,22
 362 0 362 0 312 0 c 2,23,-1
 220 0 l 2,0,1
EndSplineSet
Substitution2: "'c2sc' Capitals to Small Capitals lookup 4 subtable" F.sc
EndChar

StartChar: G
Encoding: 71 71 42
Width: 1470
GlyphClass: 2
Flags: W
AnchorPoint: "Anchor-5" 776 1464 basechar 0
AnchorPoint: "Anchor-4" 786 0 basechar 0
LayerCount: 2
Fore
SplineSet
92 717 m 256,0,1
 92 1067 92 1067 273 1265.5 c 128,-1,2
 454 1464 454 1464 776 1464 c 0,3,4
 969 1464 969 1464 1091 1397.5 c 128,-1,5
 1213 1331 1213 1331 1270 1241 c 0,6,7
 1305 1185 1305 1185 1269 1160 c 2,8,-1
 1194 1108 l 2,9,10
 1157 1082 1157 1082 1120 1139 c 0,11,12
 1090 1184 1090 1184 1007 1246 c 128,-1,13
 924 1308 924 1308 786 1308 c 0,14,15
 541 1308 541 1308 419 1152.5 c 128,-1,16
 297 997 297 997 297 717 c 256,17,18
 297 437 297 437 416 281.5 c 128,-1,19
 535 126 535 126 796 126 c 0,20,21
 926 126 926 126 1022.5 157.5 c 128,-1,22
 1119 189 1119 189 1158 245 c 1,23,-1
 1158 510 l 1,24,-1
 861 510 l 2,25,26
 806 510 806 510 806 555 c 2,27,-1
 806 629 l 2,28,29
 806 674 806 674 861 674 c 2,30,-1
 1295 674 l 2,31,32
 1350 674 1350 674 1350 629 c 2,33,-1
 1350 157 l 1,34,35
 1228 68 1228 68 1106 19 c 128,-1,36
 984 -30 984 -30 786 -30 c 0,37,38
 456 -30 456 -30 274 168.5 c 128,-1,39
 92 367 92 367 92 717 c 256,0,1
EndSplineSet
Substitution2: "'c2sc' Capitals to Small Capitals lookup 4 subtable" G.sc
EndChar

StartChar: H
Encoding: 72 72 43
Width: 1422
GlyphClass: 2
Flags: W
AnchorPoint: "Anchor-5" 711 1464 basechar 0
AnchorPoint: "Anchor-4" 711 0 basechar 0
LayerCount: 2
Fore
SplineSet
220 0 m 2,0,1
 170 0 170 0 170 55 c 2,2,-1
 170 1379 l 2,3,4
 170 1434 170 1434 220 1434 c 2,5,-1
 312 1434 l 2,6,7
 362 1434 362 1434 362 1379 c 2,8,-1
 362 828 l 1,9,-1
 1060 828 l 1,10,-1
 1060 1379 l 2,11,12
 1060 1434 1060 1434 1110 1434 c 2,13,-1
 1202 1434 l 2,14,15
 1252 1434 1252 1434 1252 1379 c 2,16,-1
 1252 55 l 2,17,18
 1252 0 1252 0 1202 0 c 2,19,-1
 1110 0 l 2,20,21
 1060 0 1060 0 1060 55 c 2,22,-1
 1060 664 l 1,23,-1
 362 664 l 1,24,-1
 362 55 l 2,25,26
 362 0 362 0 312 0 c 2,27,-1
 220 0 l 2,0,1
EndSplineSet
Substitution2: "'c2sc' Capitals to Small Capitals lookup 4 subtable" H.sc
EndChar

StartChar: I
Encoding: 73 73 44
Width: 532
GlyphClass: 2
Flags: W
AnchorPoint: "Anchor-5" 266 1464 basechar 0
AnchorPoint: "Anchor-4" 266 0 basechar 0
AnchorPoint: "Anchor-1" 266 0 basechar 0
LayerCount: 2
Fore
SplineSet
220 0 m 2,0,1
 170 0 170 0 170 55 c 2,2,-1
 170 1379 l 2,3,4
 170 1434 170 1434 220 1434 c 2,5,-1
 312 1434 l 2,6,7
 362 1434 362 1434 362 1379 c 2,8,-1
 362 55 l 2,9,10
 362 0 362 0 312 0 c 2,11,-1
 220 0 l 2,0,1
EndSplineSet
Substitution2: "'c2sc' Capitals to Small Capitals lookup 4 subtable" I.sc
EndChar

StartChar: J
Encoding: 74 74 45
Width: 824
GlyphClass: 2
Flags: W
AnchorPoint: "Anchor-5" 558 1464 basechar 0
AnchorPoint: "Anchor-4" 344 0 basechar 0
LayerCount: 2
Fore
SplineSet
67 29 m 0,0,1
 21 54 21 54 39 94 c 2,2,-1
 72 165 l 2,3,4
 94 213 94 213 145 179 c 0,5,6
 226 126 226 126 307 126 c 0,7,8
 404 126 404 126 433 191.5 c 128,-1,9
 462 257 462 257 462 378 c 2,10,-1
 462 1379 l 2,11,12
 462 1434 462 1434 512 1434 c 2,13,-1
 604 1434 l 2,14,15
 654 1434 654 1434 654 1379 c 2,16,-1
 654 401 l 2,17,18
 654 203 654 203 592 86.5 c 128,-1,19
 530 -30 530 -30 302 -30 c 0,20,21
 177 -30 177 -30 67 29 c 0,0,1
EndSplineSet
Substitution2: "'c2sc' Capitals to Small Capitals lookup 4 subtable" J.sc
EndChar

StartChar: K
Encoding: 75 75 46
Width: 1328
GlyphClass: 2
Flags: W
AnchorPoint: "Anchor-5" 728 1464 basechar 0
AnchorPoint: "Anchor-4" 728 0 basechar 0
LayerCount: 2
Fore
SplineSet
220 0 m 2,0,1
 170 0 170 0 170 55 c 2,2,-1
 170 1379 l 2,3,4
 170 1434 170 1434 220 1434 c 2,5,-1
 312 1434 l 2,6,7
 362 1434 362 1434 362 1379 c 2,8,-1
 362 791 l 2,9,10
 362 751 362 751 360 711 c 1,11,-1
 364 711 l 1,12,-1
 1032 1395 l 2,13,14
 1070 1434 1070 1434 1102 1434 c 2,15,-1
 1223 1434 l 2,16,17
 1306 1434 1306 1434 1241 1368 c 2,18,-1
 733 850 l 1,19,-1
 1268 66 l 2,20,21
 1312 0 1312 0 1250 0 c 2,22,-1
 1128 0 l 2,23,24
 1084 0 1084 0 1058 39 c 2,25,-1
 601 714 l 1,26,-1
 362 471 l 1,27,-1
 362 55 l 2,28,29
 362 0 362 0 312 0 c 2,30,-1
 220 0 l 2,0,1
EndSplineSet
Substitution2: "'c2sc' Capitals to Small Capitals lookup 4 subtable" K.sc
EndChar

StartChar: L
Encoding: 76 76 47
Width: 1136
GlyphClass: 2
Flags: W
AnchorPoint: "Anchor-5" 625 1464 basechar 0
AnchorPoint: "Anchor-4" 625 0 basechar 0
LayerCount: 2
Fore
SplineSet
220 0 m 2,0,1
 170 0 170 0 170 55 c 2,2,-1
 170 1379 l 2,3,4
 170 1434 170 1434 220 1434 c 2,5,-1
 312 1434 l 2,6,7
 362 1434 362 1434 362 1379 c 2,8,-1
 362 164 l 1,9,-1
 1025 164 l 2,10,11
 1080 164 1080 164 1080 119 c 2,12,-1
 1080 45 l 2,13,14
 1080 0 1080 0 1025 0 c 2,15,-1
 220 0 l 2,0,1
EndSplineSet
Substitution2: "'c2sc' Capitals to Small Capitals lookup 4 subtable" L.sc
EndChar

StartChar: M
Encoding: 77 77 48
Width: 1708
GlyphClass: 2
Flags: W
AnchorPoint: "Anchor-5" 854 1464 basechar 0
AnchorPoint: "Anchor-4" 854 0 basechar 0
LayerCount: 2
Fore
SplineSet
220 0 m 2,0,1
 170 0 170 0 170 55 c 2,2,-1
 170 1379 l 2,3,4
 170 1434 170 1434 220 1434 c 2,5,-1
 433 1434 l 2,6,7
 471 1434 471 1434 490 1374 c 2,8,-1
 776 477 l 2,9,10
 820 339 820 339 828 310.5 c 128,-1,11
 836 282 836 282 851 206 c 1,12,-1
 857 206 l 1,13,14
 872 282 872 282 880 310.5 c 128,-1,15
 888 339 888 339 932 477 c 2,16,-1
 1218 1374 l 2,17,18
 1237 1434 1237 1434 1275 1434 c 2,19,-1
 1488 1434 l 2,20,21
 1538 1434 1538 1434 1538 1379 c 2,22,-1
 1538 55 l 2,23,24
 1538 0 1538 0 1488 0 c 2,25,-1
 1396 0 l 2,26,27
 1346 0 1346 0 1346 55 c 2,28,-1
 1346 1104 l 2,29,30
 1346 1144 1346 1144 1348 1184 c 1,31,-1
 1344 1184 l 1,32,-1
 975 61 l 2,33,34
 955 0 955 0 909 0 c 2,35,-1
 799 0 l 2,36,37
 753 0 753 0 733 61 c 2,38,-1
 364 1184 l 1,39,-1
 360 1184 l 1,40,41
 362 1144 362 1144 362 1104 c 2,42,-1
 362 55 l 2,43,44
 362 0 362 0 312 0 c 2,45,-1
 220 0 l 2,0,1
EndSplineSet
Substitution2: "'c2sc' Capitals to Small Capitals lookup 4 subtable" M.sc
EndChar

StartChar: N
Encoding: 78 78 49
Width: 1438
GlyphClass: 2
Flags: W
AnchorPoint: "Anchor-5" 719 1464 basechar 0
AnchorPoint: "Anchor-4" 719 0 basechar 0
LayerCount: 2
Fore
SplineSet
220 0 m 2,0,1
 170 0 170 0 170 55 c 2,2,-1
 170 1379 l 2,3,4
 170 1434 170 1434 220 1434 c 2,5,-1
 348 1434 l 2,6,7
 418 1434 418 1434 448 1384 c 2,8,-1
 1074 335 l 1,9,-1
 1078 335 l 1,10,11
 1076 375 1076 375 1076 415 c 2,12,-1
 1076 1379 l 2,13,14
 1076 1434 1076 1434 1126 1434 c 2,15,-1
 1218 1434 l 2,16,17
 1268 1434 1268 1434 1268 1379 c 2,18,-1
 1268 55 l 2,19,20
 1268 0 1268 0 1218 0 c 2,21,-1
 1130 0 l 2,22,23
 1060 0 1060 0 1030 50 c 2,24,-1
 364 1163 l 1,25,-1
 360 1163 l 1,26,27
 362 1123 362 1123 362 1083 c 2,28,-1
 362 55 l 2,29,30
 362 0 362 0 312 0 c 2,31,-1
 220 0 l 2,0,1
EndSplineSet
Substitution2: "'c2sc' Capitals to Small Capitals lookup 4 subtable" N.sc
EndChar

StartChar: O
Encoding: 79 79 50
Width: 1524
GlyphClass: 2
Flags: W
AnchorPoint: "Anchor-5" 762 1464 basechar 0
AnchorPoint: "Anchor-4" 762 0 basechar 0
AnchorPoint: "Anchor-1" 762 0 basechar 0
LayerCount: 2
Fore
SplineSet
92 717 m 256,0,1
 92 1067 92 1067 264.5 1265.5 c 128,-1,2
 437 1464 437 1464 762 1464 c 256,3,4
 1087 1464 1087 1464 1259.5 1265.5 c 128,-1,5
 1432 1067 1432 1067 1432 717 c 256,6,7
 1432 367 1432 367 1259.5 168.5 c 128,-1,8
 1087 -30 1087 -30 762 -30 c 256,9,10
 437 -30 437 -30 264.5 168.5 c 128,-1,11
 92 367 92 367 92 717 c 256,0,1
297 717 m 256,12,13
 297 437 297 437 412 281.5 c 128,-1,14
 527 126 527 126 762 126 c 256,15,16
 997 126 997 126 1112 281.5 c 128,-1,17
 1227 437 1227 437 1227 717 c 256,18,19
 1227 997 1227 997 1112 1152.5 c 128,-1,20
 997 1308 997 1308 762 1308 c 256,21,22
 527 1308 527 1308 412 1152.5 c 128,-1,23
 297 997 297 997 297 717 c 256,12,13
EndSplineSet
Substitution2: "'c2sc' Capitals to Small Capitals lookup 4 subtable" O.sc
EndChar

StartChar: P
Encoding: 80 80 51
Width: 1308
GlyphClass: 2
Flags: W
AnchorPoint: "Anchor-5" 649 1464 basechar 0
AnchorPoint: "Anchor-4" 649 0 basechar 0
LayerCount: 2
Fore
SplineSet
220 0 m 2,0,1
 170 0 170 0 170 55 c 2,2,-1
 170 1379 l 2,3,4
 170 1434 170 1434 220 1434 c 2,5,-1
 640 1434 l 2,6,7
 980 1434 980 1434 1099 1319.5 c 128,-1,8
 1218 1205 1218 1205 1218 1005 c 256,9,10
 1218 805 1218 805 1099 690.5 c 128,-1,11
 980 576 980 576 640 576 c 2,12,-1
 362 576 l 1,13,-1
 362 55 l 2,14,15
 362 0 362 0 312 0 c 2,16,-1
 220 0 l 2,0,1
362 740 m 1,17,-1
 643 740 l 2,18,19
 863 740 863 740 943 802.5 c 128,-1,20
 1023 865 1023 865 1023 1005 c 256,21,22
 1023 1145 1023 1145 943 1207.5 c 128,-1,23
 863 1270 863 1270 643 1270 c 2,24,-1
 362 1270 l 1,25,-1
 362 740 l 1,17,-1
EndSplineSet
Substitution2: "'c2sc' Capitals to Small Capitals lookup 4 subtable" P.sc
EndChar

StartChar: Q
Encoding: 81 81 52
Width: 1524
GlyphClass: 2
Flags: W
AnchorPoint: "Anchor-5" 762 1464 basechar 0
AnchorPoint: "Anchor-4" 762 -400 basechar 0
LayerCount: 2
Fore
SplineSet
92 719 m 256,0,1
 92 1069 92 1069 264.5 1266.5 c 128,-1,2
 437 1464 437 1464 762 1464 c 256,3,4
 1087 1464 1087 1464 1259.5 1265.5 c 128,-1,5
 1432 1067 1432 1067 1432 717 c 256,6,7
 1432 367 1432 367 1260 168 c 1,8,9
 1116 3 1116 3 867 -24 c 1,10,11
 877 -121 877 -121 939 -179 c 128,-1,12
 1001 -237 1001 -237 1116 -237 c 0,13,14
 1178 -237 1178 -237 1217 -227 c 256,15,16
 1256 -217 1256 -217 1261 -238 c 2,17,-1
 1281 -326 l 2,18,19
 1286 -350 1286 -350 1256 -357 c 0,20,21
 1167 -377 1167 -377 1084 -377 c 0,22,23
 869 -377 869 -377 776.5 -269.5 c 128,-1,24
 684 -162 684 -162 675 -26 c 1,25,26
 413 -2 413 -2 264 170 c 0,27,28
 92 369 92 369 92 719 c 256,0,1
297 717 m 256,29,30
 297 437 297 437 412 281.5 c 128,-1,31
 527 126 527 126 762 126 c 256,32,33
 997 126 997 126 1112 281.5 c 128,-1,34
 1227 437 1227 437 1227 717 c 256,35,36
 1227 997 1227 997 1112 1152.5 c 128,-1,37
 997 1308 997 1308 762 1308 c 256,38,39
 527 1308 527 1308 412 1152.5 c 128,-1,40
 297 997 297 997 297 717 c 256,29,30
EndSplineSet
Substitution2: "'c2sc' Capitals to Small Capitals lookup 4 subtable" Q.sc
EndChar

StartChar: R
Encoding: 82 82 53
Width: 1394
GlyphClass: 2
Flags: W
AnchorPoint: "Anchor-5" 649 1464 basechar 0
AnchorPoint: "Anchor-4" 649 0 basechar 0
LayerCount: 2
Fore
SplineSet
220 0 m 2,0,1
 170 0 170 0 170 55 c 2,2,-1
 170 1379 l 2,3,4
 170 1434 170 1434 220 1434 c 2,5,-1
 703 1434 l 2,6,7
 992 1434 992 1434 1121.5 1326 c 128,-1,8
 1251 1218 1251 1218 1251 1041 c 0,9,10
 1251 885 1251 885 1146.5 779 c 128,-1,11
 1042 673 1042 673 849 657 c 1,12,-1
 849 655 l 1,13,14
 951 579 951 579 984 539.5 c 128,-1,15
 1017 500 1017 500 1058 433 c 2,16,-1
 1284 66 l 2,17,18
 1325 0 1325 0 1266 0 c 2,19,-1
 1152 0 l 2,20,21
 1105 0 1105 0 1082 39 c 2,22,-1
 874 396 l 2,23,24
 829 473 829 473 745 547 c 128,-1,25
 661 621 661 621 536 621 c 2,26,-1
 362 621 l 1,27,-1
 362 55 l 2,28,29
 362 0 362 0 312 0 c 2,30,-1
 220 0 l 2,0,1
362 785 m 1,31,-1
 651 785 l 2,32,33
 846 785 846 785 951 836.5 c 128,-1,34
 1056 888 1056 888 1056 1053 c 0,35,36
 1056 1179 1056 1179 960 1224.5 c 128,-1,37
 864 1270 864 1270 699 1270 c 2,38,-1
 362 1270 l 1,39,-1
 362 785 l 1,31,-1
EndSplineSet
Substitution2: "'c2sc' Capitals to Small Capitals lookup 4 subtable" R.sc
EndChar

StartChar: S
Encoding: 83 83 54
Width: 1224
GlyphClass: 2
Flags: W
AnchorPoint: "Anchor-5" 624 1464 basechar 0
AnchorPoint: "Anchor-4" 619 0 basechar 0
LayerCount: 2
Fore
SplineSet
141 108 m 0,0,1
 88 156 88 156 113 192 c 2,2,-1
 165 267 l 2,3,4
 192 306 192 306 252 261 c 0,5,6
 331 202 331 202 416.5 164 c 128,-1,7
 502 126 502 126 624 126 c 0,8,9
 714 126 714 126 776 153 c 128,-1,10
 838 180 838 180 875.5 230.5 c 128,-1,11
 913 281 913 281 913 353 c 0,12,13
 913 405 913 405 897.5 449.5 c 128,-1,14
 882 494 882 494 848 524 c 128,-1,15
 814 554 814 554 777 571 c 0,16,17
 716 599 716 599 594.5 636 c 128,-1,18
 473 673 473 673 382 716 c 0,19,20
 292 759 292 759 238.5 820 c 128,-1,21
 185 881 185 881 167.5 945.5 c 128,-1,22
 150 1010 150 1010 150 1093 c 0,23,24
 150 1220 150 1220 224 1312 c 128,-1,25
 298 1404 298 1404 405.5 1434 c 128,-1,26
 513 1464 513 1464 624 1464 c 0,27,28
 751 1464 751 1464 845 1431 c 128,-1,29
 939 1398 939 1398 1013 1345 c 0,30,31
 1065 1308 1065 1308 1037 1267 c 2,32,-1
 986 1194 l 2,33,34
 963 1161 963 1161 896 1208 c 0,35,36
 845 1244 845 1244 771.5 1275.5 c 128,-1,37
 698 1307 698 1307 626 1307 c 0,38,39
 534 1307 534 1307 473 1285.5 c 128,-1,40
 412 1264 412 1264 377 1213 c 128,-1,41
 342 1162 342 1162 342 1095 c 0,42,43
 342 1053 342 1053 350 1017.5 c 128,-1,44
 358 982 358 982 391 945 c 128,-1,45
 424 908 424 908 471 888 c 0,46,47
 534 861 534 861 666.5 824.5 c 128,-1,48
 799 788 799 788 898 735 c 0,49,50
 990 686 990 686 1030.5 632.5 c 128,-1,51
 1071 579 1071 579 1093.5 516.5 c 128,-1,52
 1116 454 1116 454 1116 376 c 0,53,54
 1116 234 1116 234 1043 139 c 128,-1,55
 970 44 970 44 870 7 c 128,-1,56
 770 -30 770 -30 619 -30 c 0,57,58
 438 -30 438 -30 319 12 c 128,-1,59
 200 54 200 54 141 108 c 0,0,1
EndSplineSet
Substitution2: "'c2sc' Capitals to Small Capitals lookup 4 subtable" S.sc
EndChar

StartChar: T
Encoding: 84 84 55
Width: 1240
GlyphClass: 2
Flags: W
AnchorPoint: "Anchor-5" 620 1464 basechar 0
AnchorPoint: "Anchor-4" 620 0 basechar 0
LayerCount: 2
Fore
SplineSet
91 1262 m 2,0,1
 36 1262 36 1262 36 1307 c 2,2,-1
 36 1389 l 2,3,4
 36 1434 36 1434 91 1434 c 2,5,-1
 1149 1434 l 2,6,7
 1204 1434 1204 1434 1204 1389 c 2,8,-1
 1204 1307 l 2,9,10
 1204 1262 1204 1262 1149 1262 c 2,11,-1
 716 1262 l 1,12,-1
 716 55 l 2,13,14
 716 0 716 0 666 0 c 2,15,-1
 574 0 l 2,16,17
 524 0 524 0 524 55 c 2,18,-1
 524 1262 l 1,19,-1
 91 1262 l 2,0,1
EndSplineSet
Substitution2: "'c2sc' Capitals to Small Capitals lookup 4 subtable" T.sc
EndChar

StartChar: U
Encoding: 85 85 56
Width: 1402
GlyphClass: 2
Flags: W
AnchorPoint: "Anchor-5" 701 1464 basechar 0
AnchorPoint: "Anchor-4" 701 0 basechar 0
AnchorPoint: "Anchor-1" 701 0 basechar 0
LayerCount: 2
Fore
SplineSet
170 547 m 2,0,-1
 170 1379 l 2,1,2
 170 1434 170 1434 220 1434 c 2,3,-1
 312 1434 l 2,4,5
 362 1434 362 1434 362 1379 c 2,6,-1
 362 577 l 2,7,8
 362 297 362 297 441.5 211.5 c 128,-1,9
 521 126 521 126 701 126 c 256,10,11
 881 126 881 126 960.5 211.5 c 128,-1,12
 1040 297 1040 297 1040 577 c 2,13,-1
 1040 1379 l 2,14,15
 1040 1434 1040 1434 1090 1434 c 2,16,-1
 1182 1434 l 2,17,18
 1232 1434 1232 1434 1232 1379 c 2,19,-1
 1232 547 l 2,20,21
 1232 230 1232 230 1086.5 100 c 128,-1,22
 941 -30 941 -30 701 -30 c 256,23,24
 461 -30 461 -30 315.5 100 c 128,-1,25
 170 230 170 230 170 547 c 2,0,-1
EndSplineSet
Substitution2: "'c2sc' Capitals to Small Capitals lookup 4 subtable" U.sc
EndChar

StartChar: V
Encoding: 86 86 57
Width: 1338
GlyphClass: 2
Flags: W
AnchorPoint: "Anchor-5" 668 1464 basechar 0
AnchorPoint: "Anchor-4" 669 0 basechar 0
LayerCount: 2
Fore
SplineSet
46 1368 m 2,0,1
 21 1434 21 1434 73 1434 c 2,2,-1
 175 1434 l 2,3,4
 229 1434 229 1434 247 1385 c 2,5,-1
 572 490 l 2,6,7
 593 431 593 431 624.5 331.5 c 128,-1,8
 656 232 656 232 667 173 c 1,9,-1
 671 173 l 1,10,11
 682 232 682 232 713.5 331.5 c 128,-1,12
 745 431 745 431 766 490 c 2,13,-1
 1091 1385 l 2,14,15
 1109 1434 1109 1434 1163 1434 c 2,16,-1
 1265 1434 l 2,17,18
 1317 1434 1317 1434 1292 1368 c 2,19,-1
 805 61 l 2,20,21
 782 0 782 0 739 0 c 2,22,-1
 599 0 l 2,23,24
 556 0 556 0 533 61 c 2,25,-1
 46 1368 l 2,0,1
EndSplineSet
Substitution2: "'c2sc' Capitals to Small Capitals lookup 4 subtable" V.sc
EndChar

StartChar: W
Encoding: 87 87 58
Width: 1888
GlyphClass: 2
Flags: W
AnchorPoint: "Anchor-5" 944 1464 basechar 0
AnchorPoint: "Anchor-4" 944 0 basechar 0
LayerCount: 2
Fore
SplineSet
48 1374 m 2,0,1
 32 1434 32 1434 74 1434 c 2,2,-1
 196 1434 l 2,3,4
 228 1434 228 1434 239 1388 c 2,5,-1
 462 427 l 2,6,7
 476 369 476 369 493.5 301 c 128,-1,8
 511 233 511 233 524 173 c 1,9,-1
 529 173 l 1,10,11
 539 232 539 232 552.5 290 c 128,-1,12
 566 348 566 348 583 426 c 1,13,-1
 811 1380 l 2,14,15
 824 1434 824 1434 875 1434 c 2,16,-1
 1013 1434 l 2,17,18
 1064 1434 1064 1434 1077 1380 c 2,19,-1
 1305 426 l 1,20,21
 1322 348 1322 348 1335.5 290 c 128,-1,22
 1349 232 1349 232 1359 173 c 1,23,-1
 1364 173 l 1,24,25
 1377 233 1377 233 1394.5 301 c 128,-1,26
 1412 369 1412 369 1426 427 c 2,27,-1
 1649 1388 l 2,28,29
 1660 1434 1660 1434 1692 1434 c 2,30,-1
 1814 1434 l 2,31,32
 1856 1434 1856 1434 1840 1374 c 2,33,-1
 1496 77 l 2,34,35
 1476 0 1476 0 1422 0 c 2,36,-1
 1297 0 l 2,37,38
 1247 0 1247 0 1226 84 c 2,39,-1
 985 1043 l 2,40,41
 967 1116 967 1116 959 1162.5 c 128,-1,42
 951 1209 951 1209 945 1259 c 1,43,-1
 943 1259 l 1,44,45
 937 1209 937 1209 929 1162.5 c 128,-1,46
 921 1116 921 1116 903 1043 c 2,47,-1
 662 84 l 2,48,49
 641 0 641 0 591 0 c 2,50,-1
 466 0 l 2,51,52
 412 0 412 0 392 77 c 2,53,-1
 48 1374 l 2,0,1
EndSplineSet
Substitution2: "'c2sc' Capitals to Small Capitals lookup 4 subtable" W.sc
EndChar

StartChar: X
Encoding: 88 88 59
Width: 1310
GlyphClass: 2
Flags: W
AnchorPoint: "Anchor-5" 655 1464 basechar 0
AnchorPoint: "Anchor-4" 655 0 basechar 0
LayerCount: 2
Fore
SplineSet
77 0 m 2,0,1
 12 0 12 0 59 66 c 2,2,-1
 539 740 l 1,3,-1
 93 1368 l 2,4,5
 46 1434 46 1434 111 1434 c 2,6,-1
 234 1434 l 2,7,8
 278 1434 278 1434 304 1395 c 2,9,-1
 655 873 l 1,10,-1
 1006 1395 l 2,11,12
 1032 1434 1032 1434 1076 1434 c 2,13,-1
 1199 1434 l 2,14,15
 1264 1434 1264 1434 1217 1368 c 2,16,-1
 771 740 l 1,17,-1
 1251 66 l 2,18,19
 1298 0 1298 0 1233 0 c 2,20,-1
 1109 0 l 2,21,22
 1065 0 1065 0 1039 39 c 2,23,-1
 655 607 l 1,24,-1
 271 39 l 2,25,26
 245 0 245 0 201 0 c 2,27,-1
 77 0 l 2,0,1
EndSplineSet
Substitution2: "'c2sc' Capitals to Small Capitals lookup 4 subtable" X.sc
EndChar

StartChar: Y
Encoding: 89 89 60
Width: 1302
GlyphClass: 2
Flags: W
AnchorPoint: "Anchor-5" 650 1464 basechar 0
AnchorPoint: "Anchor-4" 650 0 basechar 0
LayerCount: 2
Fore
SplineSet
54 1368 m 2,0,1
 11 1434 11 1434 81 1434 c 2,2,-1
 193 1434 l 2,3,4
 237 1434 237 1434 265 1385 c 2,5,-1
 519 948 l 2,6,7
 561 876 561 876 591 822.5 c 128,-1,8
 621 769 621 769 649 709 c 1,9,-1
 653 709 l 1,10,11
 681 769 681 769 711 822.5 c 128,-1,12
 741 876 741 876 783 948 c 2,13,-1
 1037 1385 l 2,14,15
 1065 1434 1065 1434 1109 1434 c 2,16,-1
 1221 1434 l 2,17,18
 1291 1434 1291 1434 1248 1368 c 2,19,-1
 747 590 l 1,20,-1
 747 55 l 2,21,22
 747 0 747 0 697 0 c 2,23,-1
 605 0 l 2,24,25
 555 0 555 0 555 55 c 2,26,-1
 555 590 l 1,27,-1
 54 1368 l 2,0,1
EndSplineSet
Substitution2: "'c2sc' Capitals to Small Capitals lookup 4 subtable" Y.sc
EndChar

StartChar: Z
Encoding: 90 90 61
Width: 1216
GlyphClass: 2
Flags: W
AnchorPoint: "Anchor-5" 608 1464 basechar 0
AnchorPoint: "Anchor-4" 608 0 basechar 0
LayerCount: 2
Fore
SplineSet
120 0 m 2,0,1
 65 0 65 0 65 45 c 2,2,-1
 65 93 l 2,3,4
 65 141 65 141 95 182 c 2,5,-1
 881 1268 l 1,6,-1
 881 1272 l 1,7,8
 841 1270 841 1270 801 1270 c 2,9,-1
 152 1270 l 2,10,11
 97 1270 97 1270 97 1315 c 2,12,-1
 97 1389 l 2,13,14
 97 1434 97 1434 152 1434 c 2,15,-1
 1074 1434 l 2,16,17
 1129 1434 1129 1434 1129 1389 c 2,18,-1
 1129 1358 l 2,19,20
 1129 1325 1129 1325 1109 1297 c 2,21,-1
 313 166 l 1,22,-1
 313 162 l 1,23,24
 340 164 340 164 393 164 c 2,25,-1
 1096 164 l 2,26,27
 1151 164 1151 164 1151 119 c 2,28,-1
 1151 45 l 2,29,30
 1151 0 1151 0 1096 0 c 2,31,-1
 120 0 l 2,0,1
EndSplineSet
Substitution2: "'c2sc' Capitals to Small Capitals lookup 4 subtable" Z.sc
EndChar

StartChar: bracketleft
Encoding: 91 91 62
Width: 658
GlyphClass: 2
Flags: W
LayerCount: 2
Fore
SplineSet
215 -408 m 2,0,1
 170 -408 170 -408 170 -363 c 2,2,-1
 170 1451 l 2,3,4
 170 1496 170 1496 215 1496 c 2,5,-1
 543 1496 l 2,6,7
 588 1496 588 1496 588 1461 c 2,8,-1
 588 1401 l 2,9,10
 588 1366 588 1366 543 1366 c 2,11,-1
 346 1366 l 1,12,-1
 346 -278 l 1,13,-1
 543 -278 l 2,14,15
 588 -278 588 -278 588 -313 c 2,16,-1
 588 -373 l 2,17,18
 588 -408 588 -408 543 -408 c 2,19,-1
 215 -408 l 2,0,1
EndSplineSet
EndChar

StartChar: backslash
Encoding: 92 92 63
Width: 840
GlyphClass: 2
Flags: W
LayerCount: 2
Fore
SplineSet
7 1391 m 2,0,1
 -10 1433 -10 1433 22 1446 c 2,2,-1
 67 1464 l 2,3,4
 101 1478 101 1478 118 1436 c 2,5,-1
 833 -335 l 2,6,7
 850 -377 850 -377 816 -391 c 2,8,-1
 771 -409 l 2,9,10
 739 -422 739 -422 722 -380 c 2,11,-1
 7 1391 l 2,0,1
EndSplineSet
EndChar

StartChar: bracketright
Encoding: 93 93 64
Width: 658
GlyphClass: 2
Flags: W
LayerCount: 2
Fore
SplineSet
115 -408 m 2,0,1
 70 -408 70 -408 70 -373 c 2,2,-1
 70 -313 l 2,3,4
 70 -278 70 -278 115 -278 c 2,5,-1
 312 -278 l 1,6,-1
 312 1366 l 1,7,-1
 115 1366 l 2,8,9
 70 1366 70 1366 70 1401 c 2,10,-1
 70 1461 l 2,11,12
 70 1496 70 1496 115 1496 c 2,13,-1
 443 1496 l 2,14,15
 488 1496 488 1496 488 1451 c 2,16,-1
 488 -363 l 2,17,18
 488 -408 488 -408 443 -408 c 2,19,-1
 115 -408 l 2,0,1
EndSplineSet
EndChar

StartChar: asciicircum
Encoding: 94 94 65
Width: 866
GlyphClass: 2
Flags: W
LayerCount: 2
Fore
SplineSet
90 923 m 2,0,1
 61 942 61 942 84 979 c 2,2,-1
 347 1400 l 2,3,4
 368 1434 368 1434 412 1434 c 2,5,-1
 454 1434 l 2,6,7
 498 1434 498 1434 519 1400 c 2,8,-1
 782 979 l 2,9,10
 805 942 805 942 776 923 c 2,11,-1
 727 891 l 2,12,13
 698 872 698 872 673 911 c 2,14,-1
 434 1290 l 1,15,-1
 432 1290 l 1,16,-1
 193 911 l 2,17,18
 168 872 168 872 139 891 c 2,19,-1
 90 923 l 2,0,1
EndSplineSet
EndChar

StartChar: underscore
Encoding: 95 95 66
Width: 1100
GlyphClass: 2
Flags: W
LayerCount: 2
Fore
SplineSet
21 -390 m 2,0,1
 -24 -390 -24 -390 -24 -355 c 2,2,-1
 -24 -295 l 2,3,4
 -24 -260 -24 -260 21 -260 c 2,5,-1
 1079 -260 l 2,6,7
 1124 -260 1124 -260 1124 -295 c 2,8,-1
 1124 -355 l 2,9,10
 1124 -390 1124 -390 1079 -390 c 2,11,-1
 21 -390 l 2,0,1
EndSplineSet
EndChar

StartChar: grave
Encoding: 96 96 67
Width: 614
GlyphClass: 2
Flags: W
LayerCount: 2
Fore
SplineSet
179 1383 m 2,0,1
 134 1435 134 1435 193 1435 c 2,2,-1
 304 1435 l 2,3,4
 359 1435 359 1435 385 1398 c 2,5,-1
 524 1203 l 2,6,7
 562 1150 562 1150 512 1150 c 2,8,-1
 438 1150 l 2,9,10
 382 1150 382 1150 357 1179 c 2,11,-1
 179 1383 l 2,0,1
EndSplineSet
EndChar

StartChar: a
Encoding: 97 97 68
Width: 1067
GlyphClass: 2
Flags: W
AnchorPoint: "Anchor-5" 538 1067 basechar 0
AnchorPoint: "Anchor-4" 538 0 basechar 0
AnchorPoint: "Anchor-3" 1067 1476 basechar 0
AnchorPoint: "Anchor-2" 1067 -400 basechar 0
AnchorPoint: "Anchor-1" 837 0 basechar 0
LayerCount: 2
Fore
SplineSet
85 280 m 0,0,1
 85 458 85 458 251.5 541 c 128,-1,2
 418 624 418 624 749 638 c 1,3,-1
 749 706 l 2,4,5
 749 800 749 800 706.5 868.5 c 128,-1,6
 664 937 664 937 538 937 c 0,7,8
 441 937 441 937 373.5 909 c 128,-1,9
 306 881 306 881 247 815 c 0,10,11
 220 785 220 785 196 812 c 2,12,-1
 144 872 l 2,13,14
 122 897 122 897 159 932 c 0,15,16
 241 1010 241 1010 351 1038.5 c 128,-1,17
 461 1067 461 1067 538 1067 c 0,18,19
 747 1067 747 1067 836 959.5 c 128,-1,20
 925 852 925 852 925 665 c 2,21,-1
 925 45 l 2,22,23
 925 0 925 0 880 0 c 2,24,-1
 790 0 l 2,25,26
 751 0 751 0 751 45 c 2,27,-1
 751 94 l 1,28,-1
 749 94 l 1,29,30
 670 32 670 32 594.5 7.5 c 128,-1,31
 519 -17 519 -17 426 -17 c 0,32,33
 262 -17 262 -17 173.5 61.5 c 128,-1,34
 85 140 85 140 85 280 c 0,0,1
267 286 m 0,35,36
 267 188 267 188 313.5 153 c 128,-1,37
 360 118 360 118 461 118 c 0,38,39
 538 118 538 118 607 133 c 128,-1,40
 676 148 676 148 749 212 c 1,41,-1
 749 507 l 1,42,43
 408 481 408 481 337.5 417.5 c 128,-1,44
 267 354 267 354 267 286 c 0,35,36
EndSplineSet
Substitution2: "'smcp' Lowercase to Small Capitals lookup 3 subtable" A.sc
EndChar

StartChar: b
Encoding: 98 98 69
Width: 1119
GlyphClass: 2
Flags: W
AnchorPoint: "Anchor-5" 588 1476 basechar 0
AnchorPoint: "Anchor-4" 588 0 basechar 0
AnchorPoint: "Anchor-3" 1119 1476 basechar 0
AnchorPoint: "Anchor-2" 1119 -400 basechar 0
LayerCount: 2
Fore
SplineSet
187 0 m 2,0,1
 142 0 142 0 142 45 c 2,2,-1
 142 1431 l 2,3,4
 142 1476 142 1476 187 1476 c 2,5,-1
 273 1476 l 2,6,7
 318 1476 318 1476 318 1431 c 2,8,-1
 318 986 l 2,9,10
 318 955 318 955 316 925 c 1,11,-1
 318 925 l 1,12,13
 373 991 373 991 442 1029 c 128,-1,14
 511 1067 511 1067 626 1067 c 0,15,16
 826 1067 826 1067 930 903.5 c 128,-1,17
 1034 740 1034 740 1034 525 c 256,18,19
 1034 310 1034 310 930 146.5 c 128,-1,20
 826 -17 826 -17 626 -17 c 0,21,22
 511 -17 511 -17 442 21 c 128,-1,23
 373 59 373 59 318 125 c 1,24,-1
 316 125 l 1,25,-1
 310 45 l 2,26,27
 307 0 307 0 271 0 c 2,28,-1
 187 0 l 2,0,1
318 410 m 2,29,30
 318 260 318 260 389.5 186.5 c 128,-1,31
 461 113 461 113 569 113 c 0,32,33
 721 113 721 113 784.5 227 c 128,-1,34
 848 341 848 341 848 525 c 256,35,36
 848 709 848 709 784.5 823 c 128,-1,37
 721 937 721 937 569 937 c 0,38,39
 461 937 461 937 389.5 863.5 c 128,-1,40
 318 790 318 790 318 640 c 2,41,-1
 318 410 l 2,29,30
EndSplineSet
Substitution2: "'smcp' Lowercase to Small Capitals lookup 3 subtable" B.sc
EndChar

StartChar: c
Encoding: 99 99 70
Width: 1026
GlyphClass: 2
Flags: W
AnchorPoint: "Anchor-5" 558 1067 basechar 0
AnchorPoint: "Anchor-4" 558 0 basechar 0
AnchorPoint: "Anchor-3" 1026 1476 basechar 0
AnchorPoint: "Anchor-2" 1026 -400 basechar 0
LayerCount: 2
Fore
SplineSet
85 525 m 256,0,1
 85 760 85 760 201.5 913.5 c 128,-1,2
 318 1067 318 1067 558 1067 c 0,3,4
 720 1067 720 1067 805.5 1009.5 c 128,-1,5
 891 952 891 952 929 892 c 0,6,7
 950 859 950 859 920 839 c 2,8,-1
 857 798 l 1,9,10
 827 777 827 777 797 825 c 0,11,12
 768 871 768 871 715.5 904 c 128,-1,13
 663 937 663 937 558 937 c 0,14,15
 421 937 421 937 346 836 c 128,-1,16
 271 735 271 735 271 525 c 256,17,18
 271 315 271 315 346 214 c 128,-1,19
 421 113 421 113 558 113 c 0,20,21
 669 113 669 113 728 155.5 c 128,-1,22
 787 198 787 198 814 248 c 0,23,24
 840 295 840 295 873 275 c 2,25,-1
 940 235 l 2,26,27
 970 217 970 217 949 181 c 0,28,29
 924 138 924 138 835.5 60.5 c 128,-1,30
 747 -17 747 -17 558 -17 c 0,31,32
 318 -17 318 -17 201.5 136.5 c 128,-1,33
 85 290 85 290 85 525 c 256,0,1
EndSplineSet
Substitution2: "'smcp' Lowercase to Small Capitals lookup 3 subtable" C.sc
EndChar

StartChar: d
Encoding: 100 100 71
Width: 1119
GlyphClass: 2
Flags: W
AnchorPoint: "Anchor-5" 531 1476 basechar 0
AnchorPoint: "Anchor-4" 531 0 basechar 0
AnchorPoint: "Anchor-3" 1119 1476 basechar 0
AnchorPoint: "Anchor-2" 1119 -400 basechar 0
LayerCount: 2
Fore
SplineSet
85 525 m 256,0,1
 85 740 85 740 189 903.5 c 128,-1,2
 293 1067 293 1067 493 1067 c 0,3,4
 608 1067 608 1067 677 1029 c 128,-1,5
 746 991 746 991 801 925 c 1,6,-1
 803 925 l 1,7,8
 801 955 801 955 801 986 c 2,9,-1
 801 1431 l 2,10,11
 801 1476 801 1476 846 1476 c 2,12,-1
 932 1476 l 2,13,14
 977 1476 977 1476 977 1431 c 2,15,-1
 977 45 l 2,16,17
 977 0 977 0 932 0 c 2,18,-1
 848 0 l 2,19,20
 812 0 812 0 809 45 c 2,21,-1
 803 125 l 1,22,-1
 801 125 l 1,23,24
 746 59 746 59 677 21 c 128,-1,25
 608 -17 608 -17 493 -17 c 0,26,27
 293 -17 293 -17 189 146.5 c 128,-1,28
 85 310 85 310 85 525 c 256,0,1
271 525 m 256,29,30
 271 341 271 341 334.5 227 c 128,-1,31
 398 113 398 113 550 113 c 0,32,33
 658 113 658 113 729.5 186.5 c 128,-1,34
 801 260 801 260 801 410 c 2,35,-1
 801 640 l 2,36,37
 801 790 801 790 729.5 863.5 c 128,-1,38
 658 937 658 937 550 937 c 0,39,40
 398 937 398 937 334.5 823 c 128,-1,41
 271 709 271 709 271 525 c 256,29,30
EndSplineSet
Substitution2: "'smcp' Lowercase to Small Capitals lookup 3 subtable" D.sc
EndChar

StartChar: e
Encoding: 101 101 72
Width: 1098
GlyphClass: 2
Flags: W
AnchorPoint: "Anchor-5" 564 1067 basechar 0
AnchorPoint: "Anchor-4" 572 0 basechar 0
AnchorPoint: "Anchor-3" 1098 1476 basechar 0
AnchorPoint: "Anchor-2" 1098 -400 basechar 0
AnchorPoint: "Anchor-1" 572 0 basechar 0
LayerCount: 2
Fore
SplineSet
85 525 m 256,0,1
 85 773 85 773 209 920 c 128,-1,2
 333 1067 333 1067 564 1067 c 0,3,4
 756 1067 756 1067 882.5 932.5 c 128,-1,5
 1009 798 1009 798 1009 503 c 0,6,7
 1009 458 1009 458 968 458 c 2,8,-1
 271 458 l 1,9,10
 288 265 288 265 375 189.5 c 128,-1,11
 462 114 462 114 572 114 c 0,12,13
 688 114 688 114 750 153 c 128,-1,14
 812 192 812 192 841 230 c 0,15,16
 873 272 873 272 903 246 c 2,17,-1
 962 195 l 2,18,19
 985 175 985 175 962 140 c 0,20,21
 943 111 943 111 853.5 47 c 128,-1,22
 764 -17 764 -17 572 -17 c 0,23,24
 322 -17 322 -17 203.5 130 c 128,-1,25
 85 277 85 277 85 525 c 256,0,1
267 588 m 1,26,-1
 832 588 l 1,27,28
 828 728 828 728 760 833.5 c 128,-1,29
 692 939 692 939 560 939 c 0,30,31
 444 939 444 939 363 861.5 c 128,-1,32
 282 784 282 784 267 588 c 1,26,-1
EndSplineSet
Substitution2: "'smcp' Lowercase to Small Capitals lookup 3 subtable" E.sc
EndChar

StartChar: f
Encoding: 102 102 73
Width: 652
GlyphClass: 2
Flags: W
AnchorPoint: "Anchor-5" 493 1476 basechar 0
AnchorPoint: "Anchor-4" 285 0 basechar 0
AnchorPoint: "Anchor-3" 652 1476 basechar 0
AnchorPoint: "Anchor-2" 652 -400 basechar 0
LayerCount: 2
Fore
SplineSet
90 918 m 2,0,1
 45 918 45 918 45 953 c 2,2,-1
 45 1015 l 2,3,4
 45 1050 45 1050 90 1050 c 2,5,-1
 197 1050 l 1,6,-1
 197 1199 l 2,7,8
 197 1366 197 1366 287 1429.5 c 128,-1,9
 377 1493 377 1493 493 1493 c 0,10,11
 562 1493 562 1493 604.5 1486 c 128,-1,12
 647 1479 647 1479 705 1455 c 0,13,14
 727 1446 727 1446 718 1423 c 2,15,-1
 687 1344 l 2,16,17
 679 1324 679 1324 652 1336 c 0,18,19
 630 1346 630 1346 598 1354.5 c 128,-1,20
 566 1363 566 1363 529 1363 c 0,21,22
 446 1363 446 1363 409.5 1323 c 128,-1,23
 373 1283 373 1283 373 1170 c 2,24,-1
 373 1050 l 1,25,-1
 556 1050 l 2,26,27
 601 1050 601 1050 601 1015 c 2,28,-1
 601 953 l 2,29,30
 601 918 601 918 556 918 c 2,31,-1
 373 918 l 1,32,-1
 373 45 l 2,33,34
 373 0 373 0 328 0 c 2,35,-1
 242 0 l 2,36,37
 197 0 197 0 197 45 c 2,38,-1
 197 918 l 1,39,-1
 90 918 l 2,0,1
EndSplineSet
Substitution2: "'smcp' Lowercase to Small Capitals lookup 3 subtable" F.sc
EndChar

StartChar: g
Encoding: 103 103 74
Width: 1119
GlyphClass: 2
Flags: W
AnchorPoint: "Anchor-5" 531 1067 basechar 0
AnchorPoint: "Anchor-4" 539 -400 basechar 0
AnchorPoint: "Anchor-3" 1119 1476 basechar 0
AnchorPoint: "Anchor-2" 1119 -400 basechar 0
LayerCount: 2
Fore
SplineSet
85 525 m 256,0,1
 85 740 85 740 189 903.5 c 128,-1,2
 293 1067 293 1067 493 1067 c 0,3,4
 608 1067 608 1067 677 1029 c 128,-1,5
 746 991 746 991 801 925 c 1,6,-1
 803 925 l 1,7,-1
 809 1005 l 2,8,9
 812 1050 812 1050 848 1050 c 2,10,-1
 932 1050 l 2,11,12
 977 1050 977 1050 977 1005 c 2,13,-1
 977 -8 l 2,14,15
 977 -200 977 -200 888.5 -308.5 c 128,-1,16
 800 -417 800 -417 539 -417 c 0,17,18
 364 -417 364 -417 277 -377.5 c 128,-1,19
 190 -338 190 -338 153 -294 c 0,20,21
 126 -261 126 -261 150 -238 c 2,22,-1
 205 -184 l 2,23,24
 228 -162 228 -162 269 -198 c 0,25,26
 322 -246 322 -246 371 -266.5 c 128,-1,27
 420 -287 420 -287 540 -287 c 0,28,29
 676 -287 676 -287 738.5 -229 c 128,-1,30
 801 -171 801 -171 801 11 c 2,31,-1
 801 71 l 2,32,33
 801 102 801 102 803 132 c 1,34,-1
 801 132 l 1,35,36
 749 63 749 63 678.5 23 c 128,-1,37
 608 -17 608 -17 493 -17 c 0,38,39
 293 -17 293 -17 189 146.5 c 128,-1,40
 85 310 85 310 85 525 c 256,0,1
271 525 m 256,41,42
 271 341 271 341 334.5 227 c 128,-1,43
 398 113 398 113 550 113 c 0,44,45
 658 113 658 113 729.5 186.5 c 128,-1,46
 801 260 801 260 801 410 c 2,47,-1
 801 640 l 2,48,49
 801 790 801 790 729.5 863.5 c 128,-1,50
 658 937 658 937 550 937 c 0,51,52
 398 937 398 937 334.5 823 c 128,-1,53
 271 709 271 709 271 525 c 256,41,42
EndSplineSet
Substitution2: "'smcp' Lowercase to Small Capitals lookup 3 subtable" G.sc
EndChar

StartChar: h
Encoding: 104 104 75
Width: 1128
GlyphClass: 2
Flags: W
AnchorPoint: "Anchor-5" 565 1476 basechar 0
AnchorPoint: "Anchor-4" 565 0 basechar 0
AnchorPoint: "Anchor-3" 1128 1476 basechar 0
AnchorPoint: "Anchor-2" 1128 -400 basechar 0
LayerCount: 2
Fore
SplineSet
187 0 m 2,0,1
 142 0 142 0 142 45 c 2,2,-1
 142 1431 l 2,3,4
 142 1476 142 1476 187 1476 c 2,5,-1
 273 1476 l 2,6,7
 318 1476 318 1476 318 1431 c 2,8,-1
 318 985 l 2,9,10
 318 955 318 955 316 925 c 1,11,-1
 320 925 l 1,12,13
 385 997 385 997 460 1032 c 128,-1,14
 535 1067 535 1067 647 1067 c 0,15,16
 829 1067 829 1067 908.5 964.5 c 128,-1,17
 988 862 988 862 988 684 c 2,18,-1
 988 45 l 2,19,20
 988 0 988 0 943 0 c 2,21,-1
 857 0 l 2,22,23
 812 0 812 0 812 45 c 2,24,-1
 812 636 l 2,25,26
 812 832 812 832 747 884.5 c 128,-1,27
 682 937 682 937 582 937 c 0,28,29
 452 937 452 937 385 859.5 c 128,-1,30
 318 782 318 782 318 594 c 2,31,-1
 318 45 l 2,32,33
 318 0 318 0 273 0 c 2,34,-1
 187 0 l 2,0,1
EndSplineSet
Substitution2: "'smcp' Lowercase to Small Capitals lookup 3 subtable" H.sc
EndChar

StartChar: k
Encoding: 107 107 78
Width: 1003
GlyphClass: 2
Flags: W
AnchorPoint: "Anchor-5" 547 1476 basechar 0
AnchorPoint: "Anchor-4" 547 0 basechar 0
AnchorPoint: "Anchor-3" 1003 1476 basechar 0
AnchorPoint: "Anchor-2" 1003 -400 basechar 0
LayerCount: 2
Fore
SplineSet
187 0 m 2,0,1
 142 0 142 0 142 45 c 2,2,-1
 142 1431 l 2,3,4
 142 1476 142 1476 187 1476 c 2,5,-1
 273 1476 l 2,6,7
 318 1476 318 1476 318 1431 c 2,8,-1
 318 599 l 2,9,10
 318 569 318 569 316 539 c 1,11,-1
 318 539 l 1,12,-1
 723 1024 l 2,13,14
 745 1050 745 1050 776 1050 c 2,15,-1
 867 1050 l 2,16,17
 943 1050 943 1050 893 991 c 2,18,-1
 579 617 l 1,19,-1
 938 59 l 2,20,21
 976 0 976 0 912 0 c 2,22,-1
 814 0 l 2,23,24
 781 0 781 0 757 37 c 2,25,-1
 469 486 l 1,26,-1
 318 306 l 1,27,-1
 318 45 l 2,28,29
 318 0 318 0 273 0 c 2,30,-1
 187 0 l 2,0,1
EndSplineSet
Substitution2: "'smcp' Lowercase to Small Capitals lookup 3 subtable" K.sc
EndChar

StartChar: l
Encoding: 108 108 79
Width: 460
GlyphClass: 2
Flags: W
AnchorPoint: "Anchor-5" 230 1476 basechar 0
AnchorPoint: "Anchor-4" 230 0 basechar 0
AnchorPoint: "Anchor-3" 460 1476 basechar 0
AnchorPoint: "Anchor-2" 460 -400 basechar 0
LayerCount: 2
Fore
SplineSet
187 0 m 2,0,1
 142 0 142 0 142 45 c 2,2,-1
 142 1293 l 2,3,4
 142 1313 142 1313 152 1331 c 2,5,-1
 222 1458 l 2,6,7
 241 1493 241 1493 253 1493 c 2,8,-1
 288 1493 l 2,9,10
 318 1493 318 1493 318 1458 c 2,11,-1
 318 45 l 2,12,13
 318 0 318 0 273 0 c 2,14,-1
 187 0 l 2,0,1
EndSplineSet
Substitution2: "'smcp' Lowercase to Small Capitals lookup 3 subtable" L.sc
EndChar

StartChar: m
Encoding: 109 109 80
Width: 1678
GlyphClass: 2
Flags: W
AnchorPoint: "Anchor-5" 840 1067 basechar 0
AnchorPoint: "Anchor-4" 840 0 basechar 0
AnchorPoint: "Anchor-3" 1678 1476 basechar 0
AnchorPoint: "Anchor-2" 1678 -400 basechar 0
LayerCount: 2
Fore
SplineSet
187 0 m 2,0,1
 142 0 142 0 142 45 c 2,2,-1
 142 1005 l 2,3,4
 142 1050 142 1050 187 1050 c 2,5,-1
 271 1050 l 2,6,7
 316 1050 316 1050 316 1005 c 2,8,-1
 316 925 l 1,9,-1
 320 925 l 1,10,11
 385 997 385 997 461 1032 c 128,-1,12
 537 1067 537 1067 607 1067 c 0,13,14
 736 1067 736 1067 805.5 1002.5 c 128,-1,15
 875 938 875 938 895 873 c 1,16,-1
 899 873 l 1,17,18
 954 955 954 955 1038 1011 c 128,-1,19
 1122 1067 1122 1067 1217 1067 c 0,20,21
 1376 1067 1376 1067 1457 964.5 c 128,-1,22
 1538 862 1538 862 1538 684 c 2,23,-1
 1538 45 l 2,24,25
 1538 0 1538 0 1493 0 c 2,26,-1
 1407 0 l 2,27,28
 1362 0 1362 0 1362 45 c 2,29,-1
 1362 626 l 2,30,31
 1362 822 1362 822 1313 879.5 c 128,-1,32
 1264 937 1264 937 1162 937 c 0,33,34
 1062 937 1062 937 995 851.5 c 128,-1,35
 928 766 928 766 928 594 c 2,36,-1
 928 45 l 2,37,38
 928 0 928 0 883 0 c 2,39,-1
 797 0 l 2,40,41
 752 0 752 0 752 45 c 2,42,-1
 752 626 l 2,43,44
 752 822 752 822 703 879.5 c 128,-1,45
 654 937 654 937 552 937 c 0,46,47
 452 937 452 937 385 859.5 c 128,-1,48
 318 782 318 782 318 594 c 2,49,-1
 318 45 l 2,50,51
 318 0 318 0 273 0 c 2,52,-1
 187 0 l 2,0,1
EndSplineSet
Substitution2: "'smcp' Lowercase to Small Capitals lookup 3 subtable" M.sc
EndChar

StartChar: n
Encoding: 110 110 81
Width: 1128
GlyphClass: 2
Flags: W
AnchorPoint: "Anchor-5" 565 1067 basechar 0
AnchorPoint: "Anchor-4" 565 0 basechar 0
AnchorPoint: "Anchor-3" 1128 1476 basechar 0
AnchorPoint: "Anchor-2" 1128 -400 basechar 0
LayerCount: 2
Fore
SplineSet
187 0 m 2,0,1
 142 0 142 0 142 45 c 2,2,-1
 142 1005 l 2,3,4
 142 1050 142 1050 187 1050 c 2,5,-1
 271 1050 l 2,6,7
 316 1050 316 1050 316 1005 c 2,8,-1
 316 925 l 1,9,-1
 320 925 l 1,10,11
 385 997 385 997 460 1032 c 128,-1,12
 535 1067 535 1067 647 1067 c 0,13,14
 829 1067 829 1067 908.5 964.5 c 128,-1,15
 988 862 988 862 988 684 c 2,16,-1
 988 45 l 2,17,18
 988 0 988 0 943 0 c 2,19,-1
 857 0 l 2,20,21
 812 0 812 0 812 45 c 2,22,-1
 812 636 l 2,23,24
 812 832 812 832 747 884.5 c 128,-1,25
 682 937 682 937 582 937 c 0,26,27
 452 937 452 937 385 859.5 c 128,-1,28
 318 782 318 782 318 594 c 2,29,-1
 318 45 l 2,30,31
 318 0 318 0 273 0 c 2,32,-1
 187 0 l 2,0,1
EndSplineSet
Substitution2: "'smcp' Lowercase to Small Capitals lookup 3 subtable" N.sc
EndChar

StartChar: o
Encoding: 111 111 82
Width: 1148
GlyphClass: 2
Flags: W
AnchorPoint: "Anchor-5" 574 1067 basechar 0
AnchorPoint: "Anchor-4" 574 0 basechar 0
AnchorPoint: "Anchor-3" 1148 1476 basechar 0
AnchorPoint: "Anchor-2" 1148 -400 basechar 0
AnchorPoint: "Anchor-1" 574 0 basechar 0
LayerCount: 2
Fore
SplineSet
85 525 m 256,0,1
 85 760 85 760 209.5 913.5 c 128,-1,2
 334 1067 334 1067 574 1067 c 256,3,4
 814 1067 814 1067 938.5 913.5 c 128,-1,5
 1063 760 1063 760 1063 525 c 256,6,7
 1063 290 1063 290 938.5 136.5 c 128,-1,8
 814 -17 814 -17 574 -17 c 256,9,10
 334 -17 334 -17 209.5 136.5 c 128,-1,11
 85 290 85 290 85 525 c 256,0,1
271 525 m 256,12,13
 271 315 271 315 354 214 c 128,-1,14
 437 113 437 113 574 113 c 256,15,16
 711 113 711 113 794 214 c 128,-1,17
 877 315 877 315 877 525 c 256,18,19
 877 735 877 735 794 836 c 128,-1,20
 711 937 711 937 574 937 c 256,21,22
 437 937 437 937 354 836 c 128,-1,23
 271 735 271 735 271 525 c 256,12,13
EndSplineSet
Substitution2: "'smcp' Lowercase to Small Capitals lookup 3 subtable" O.sc
EndChar

StartChar: p
Encoding: 112 112 83
Width: 1119
GlyphClass: 2
Flags: W
AnchorPoint: "Anchor-5" 588 1067 basechar 0
AnchorPoint: "Anchor-4" 588 -400 basechar 0
AnchorPoint: "Anchor-3" 1119 1476 basechar 0
AnchorPoint: "Anchor-2" 1119 -400 basechar 0
LayerCount: 2
Fore
SplineSet
187 -400 m 2,0,1
 142 -400 142 -400 142 -355 c 2,2,-1
 142 1005 l 2,3,4
 142 1050 142 1050 187 1050 c 2,5,-1
 271 1050 l 2,6,7
 307 1050 307 1050 310 1005 c 2,8,-1
 316 925 l 1,9,-1
 318 925 l 1,10,11
 373 991 373 991 442 1029 c 128,-1,12
 511 1067 511 1067 626 1067 c 0,13,14
 826 1067 826 1067 930 903.5 c 128,-1,15
 1034 740 1034 740 1034 525 c 256,16,17
 1034 310 1034 310 930 146.5 c 128,-1,18
 826 -17 826 -17 626 -17 c 0,19,20
 511 -17 511 -17 442 21 c 128,-1,21
 373 59 373 59 318 125 c 1,22,-1
 316 125 l 1,23,24
 318 95 318 95 318 64 c 2,25,-1
 318 -355 l 2,26,27
 318 -400 318 -400 273 -400 c 2,28,-1
 187 -400 l 2,0,1
318 410 m 2,29,30
 318 260 318 260 389.5 186.5 c 128,-1,31
 461 113 461 113 569 113 c 0,32,33
 721 113 721 113 784.5 227 c 128,-1,34
 848 341 848 341 848 525 c 256,35,36
 848 709 848 709 784.5 823 c 128,-1,37
 721 937 721 937 569 937 c 0,38,39
 461 937 461 937 389.5 863.5 c 128,-1,40
 318 790 318 790 318 640 c 2,41,-1
 318 410 l 2,29,30
EndSplineSet
Substitution2: "'smcp' Lowercase to Small Capitals lookup 3 subtable" P.sc
EndChar

StartChar: q
Encoding: 113 113 84
Width: 1119
GlyphClass: 2
Flags: W
AnchorPoint: "Anchor-5" 531 1067 basechar 0
AnchorPoint: "Anchor-4" 531 -400 basechar 0
AnchorPoint: "Anchor-3" 1119 1476 basechar 0
AnchorPoint: "Anchor-2" 1119 -400 basechar 0
LayerCount: 2
Fore
SplineSet
85 525 m 256,0,1
 85 740 85 740 189 903.5 c 128,-1,2
 293 1067 293 1067 493 1067 c 0,3,4
 608 1067 608 1067 677 1029 c 128,-1,5
 746 991 746 991 801 925 c 1,6,-1
 803 925 l 1,7,-1
 809 1005 l 2,8,9
 812 1050 812 1050 848 1050 c 2,10,-1
 932 1050 l 2,11,12
 977 1050 977 1050 977 1005 c 2,13,-1
 977 -355 l 2,14,15
 977 -400 977 -400 932 -400 c 2,16,-1
 846 -400 l 2,17,18
 801 -400 801 -400 801 -355 c 2,19,-1
 801 64 l 2,20,21
 801 95 801 95 803 125 c 1,22,-1
 801 125 l 1,23,24
 746 59 746 59 677 21 c 128,-1,25
 608 -17 608 -17 493 -17 c 0,26,27
 293 -17 293 -17 189 146.5 c 128,-1,28
 85 310 85 310 85 525 c 256,0,1
271 525 m 256,29,30
 271 341 271 341 334.5 227 c 128,-1,31
 398 113 398 113 550 113 c 0,32,33
 658 113 658 113 729.5 186.5 c 128,-1,34
 801 260 801 260 801 410 c 2,35,-1
 801 640 l 2,36,37
 801 790 801 790 729.5 863.5 c 128,-1,38
 658 937 658 937 550 937 c 0,39,40
 398 937 398 937 334.5 823 c 128,-1,41
 271 709 271 709 271 525 c 256,29,30
EndSplineSet
Substitution2: "'smcp' Lowercase to Small Capitals lookup 3 subtable" Q.sc
EndChar

StartChar: r
Encoding: 114 114 85
Width: 722
GlyphClass: 2
Flags: W
AnchorPoint: "Anchor-5" 434 1067 basechar 0
AnchorPoint: "Anchor-4" 230 0 basechar 0
AnchorPoint: "Anchor-3" 722 1476 basechar 0
AnchorPoint: "Anchor-2" 722 -400 basechar 0
LayerCount: 2
Fore
SplineSet
187 0 m 2,0,1
 142 0 142 0 142 45 c 2,2,-1
 142 1005 l 2,3,4
 142 1050 142 1050 187 1050 c 2,5,-1
 271 1050 l 2,6,7
 316 1050 316 1050 316 1005 c 2,8,-1
 316 885 l 1,9,-1
 320 885 l 1,10,11
 368 975 368 975 433 1021 c 128,-1,12
 498 1067 498 1067 595 1067 c 0,13,14
 659 1067 659 1067 685 1056 c 0,15,16
 708 1047 708 1047 702 1026 c 2,17,-1
 679 944 l 2,18,19
 674 926 674 926 653 930 c 0,20,21
 618 937 618 937 587 937 c 0,22,23
 470 937 470 937 394 831.5 c 128,-1,24
 318 726 318 726 318 544 c 2,25,-1
 318 45 l 2,26,27
 318 0 318 0 273 0 c 2,28,-1
 187 0 l 2,0,1
EndSplineSet
Substitution2: "'smcp' Lowercase to Small Capitals lookup 3 subtable" R.sc
EndChar

StartChar: s
Encoding: 115 115 86
Width: 944
GlyphClass: 2
Flags: W
AnchorPoint: "Anchor-5" 476 1067 basechar 0
AnchorPoint: "Anchor-4" 476 0 basechar 0
AnchorPoint: "Anchor-3" 944 1476 basechar 0
AnchorPoint: "Anchor-2" 944 -400 basechar 0
LayerCount: 2
Fore
SplineSet
83 98 m 0,0,1
 52 127 52 127 70 152 c 2,2,-1
 115 215 l 2,3,4
 137 245 137 245 180 212 c 0,5,6
 239 167 239 167 311.5 140 c 128,-1,7
 384 113 384 113 477 113 c 0,8,9
 532 113 532 113 575 126.5 c 128,-1,10
 618 140 618 140 650.5 177 c 128,-1,11
 683 214 683 214 683 276 c 0,12,13
 683 312 683 312 667.5 344 c 128,-1,14
 652 376 652 376 619.5 395.5 c 128,-1,15
 587 415 587 415 556 426 c 0,16,17
 505 445 505 445 454.5 457.5 c 128,-1,18
 404 470 404 470 322 496 c 0,19,20
 267 513 267 513 218 544.5 c 128,-1,21
 169 576 169 576 132.5 630 c 128,-1,22
 96 684 96 684 96 779 c 0,23,24
 96 876 96 876 155 946 c 128,-1,25
 214 1016 214 1016 303 1041.5 c 128,-1,26
 392 1067 392 1067 476 1067 c 0,27,28
 600 1067 600 1067 675.5 1038.5 c 128,-1,29
 751 1010 751 1010 806 971 c 0,30,31
 838 948 838 948 815 918 c 2,32,-1
 770 858 l 2,33,34
 749 829 749 829 705 860 c 0,35,36
 668 886 668 886 600 909 c 128,-1,37
 532 932 532 932 481 932 c 0,38,39
 418 932 418 932 373 918 c 128,-1,40
 328 904 328 904 300 870 c 128,-1,41
 272 836 272 836 272 790 c 0,42,43
 272 755 272 755 283 727.5 c 128,-1,44
 294 700 294 700 324 677 c 128,-1,45
 354 654 354 654 408 640 c 0,46,47
 492 618 492 618 561.5 600 c 128,-1,48
 631 582 631 582 687 556 c 0,49,50
 760 522 760 522 799.5 481 c 128,-1,51
 839 440 839 440 854 392.5 c 128,-1,52
 869 345 869 345 869 287 c 0,53,54
 869 180 869 180 805.5 106 c 128,-1,55
 742 32 742 32 664 7.5 c 128,-1,56
 586 -17 586 -17 476 -17 c 0,57,58
 327 -17 327 -17 220.5 25.5 c 128,-1,59
 114 68 114 68 83 98 c 0,0,1
EndSplineSet
Substitution2: "'smcp' Lowercase to Small Capitals lookup 3 subtable" S.sc
EndChar

StartChar: t
Encoding: 116 116 87
Width: 757
GlyphClass: 2
Flags: W
AnchorPoint: "Anchor-5" 297 1340 basechar 0
AnchorPoint: "Anchor-4" 379 0 basechar 0
AnchorPoint: "Anchor-3" 757 1476 basechar 0
AnchorPoint: "Anchor-2" 757 -400 basechar 0
LayerCount: 2
Fore
SplineSet
91 918 m 2,0,1
 46 918 46 918 46 953 c 2,2,-1
 46 1015 l 2,3,4
 46 1050 46 1050 91 1050 c 2,5,-1
 209 1050 l 1,6,-1
 209 1140 l 2,7,8
 209 1160 209 1160 219 1178 c 2,9,-1
 289 1305 l 2,10,11
 308 1340 308 1340 320 1340 c 2,12,-1
 355 1340 l 2,13,14
 385 1340 385 1340 385 1305 c 2,15,-1
 385 1050 l 1,16,-1
 598 1050 l 2,17,18
 643 1050 643 1050 643 1015 c 2,19,-1
 643 953 l 2,20,21
 643 918 643 918 598 918 c 2,22,-1
 385 918 l 1,23,-1
 385 281 l 2,24,25
 385 176 385 176 416.5 144.5 c 128,-1,26
 448 113 448 113 492 113 c 0,27,28
 526 113 526 113 573.5 133 c 128,-1,29
 621 153 621 153 639 167 c 256,30,31
 657 181 657 181 667 158 c 2,32,-1
 700 81 l 2,33,34
 708 61 708 61 688 49 c 0,35,36
 649 26 649 26 574 4.5 c 128,-1,37
 499 -17 499 -17 424 -17 c 0,38,39
 320 -17 320 -17 264.5 58 c 128,-1,40
 209 133 209 133 209 270 c 2,41,-1
 209 918 l 1,42,-1
 91 918 l 2,0,1
EndSplineSet
Substitution2: "'smcp' Lowercase to Small Capitals lookup 3 subtable" T.sc
EndChar

StartChar: u
Encoding: 117 117 88
Width: 1120
GlyphClass: 2
Flags: W
AnchorPoint: "Anchor-5" 559 1067 basechar 0
AnchorPoint: "Anchor-4" 559 0 basechar 0
AnchorPoint: "Anchor-3" 1120 1476 basechar 0
AnchorPoint: "Anchor-2" 1120 -400 basechar 0
AnchorPoint: "Anchor-1" 890 0 basechar 0
LayerCount: 2
Fore
SplineSet
140 366 m 2,0,-1
 140 1005 l 2,1,2
 140 1050 140 1050 185 1050 c 2,3,-1
 271 1050 l 2,4,5
 316 1050 316 1050 316 1005 c 2,6,-1
 316 414 l 2,7,8
 316 218 316 218 381 165.5 c 128,-1,9
 446 113 446 113 542 113 c 0,10,11
 668 113 668 113 735 190.5 c 128,-1,12
 802 268 802 268 802 456 c 2,13,-1
 802 1005 l 2,14,15
 802 1050 802 1050 847 1050 c 2,16,-1
 933 1050 l 2,17,18
 978 1050 978 1050 978 1005 c 2,19,-1
 978 45 l 2,20,21
 978 0 978 0 933 0 c 2,22,-1
 849 0 l 2,23,24
 804 0 804 0 804 45 c 2,25,-1
 804 125 l 1,26,-1
 800 125 l 1,27,28
 735 53 735 53 660 18 c 128,-1,29
 585 -17 585 -17 477 -17 c 0,30,31
 302 -17 302 -17 221 85.5 c 128,-1,32
 140 188 140 188 140 366 c 2,0,-1
EndSplineSet
Substitution2: "'smcp' Lowercase to Small Capitals lookup 3 subtable" U.sc
EndChar

StartChar: v
Encoding: 118 118 89
Width: 986
GlyphClass: 2
Flags: W
AnchorPoint: "Anchor-5" 492 1067 basechar 0
AnchorPoint: "Anchor-4" 493 0 basechar 0
AnchorPoint: "Anchor-3" 986 1476 basechar 0
AnchorPoint: "Anchor-2" 986 -400 basechar 0
LayerCount: 2
Fore
SplineSet
45 1001 m 2,0,1
 28 1050 28 1050 72 1050 c 2,2,-1
 181 1050 l 2,3,4
 213 1050 213 1050 226 1011 c 2,5,-1
 438 351 l 2,6,7
 464 270 464 270 473.5 239.5 c 128,-1,8
 483 209 483 209 491 164 c 1,9,-1
 495 164 l 1,10,11
 503 209 503 209 512.5 239.5 c 128,-1,12
 522 270 522 270 548 351 c 2,13,-1
 760 1011 l 2,14,15
 773 1050 773 1050 805 1050 c 2,16,-1
 914 1050 l 2,17,18
 958 1050 958 1050 941 1001 c 2,19,-1
 613 61 l 2,20,21
 592 0 592 0 559 0 c 2,22,-1
 427 0 l 2,23,24
 394 0 394 0 373 61 c 2,25,-1
 45 1001 l 2,0,1
EndSplineSet
Substitution2: "'smcp' Lowercase to Small Capitals lookup 3 subtable" V.sc
EndChar

StartChar: w
Encoding: 119 119 90
Width: 1444
GlyphClass: 2
Flags: W
AnchorPoint: "Anchor-5" 722 1067 basechar 0
AnchorPoint: "Anchor-4" 722 0 basechar 0
AnchorPoint: "Anchor-3" 1444 1476 basechar 0
AnchorPoint: "Anchor-2" 1444 -400 basechar 0
LayerCount: 2
Fore
SplineSet
45 1001 m 2,0,1
 32 1050 32 1050 72 1050 c 2,2,-1
 177 1050 l 2,3,4
 213 1050 213 1050 222 1011 c 2,5,-1
 369 351 l 2,6,7
 376 322 376 322 390.5 260 c 128,-1,8
 405 198 405 198 411 169 c 1,9,-1
 415 169 l 1,10,11
 420 197 420 197 432.5 253 c 128,-1,12
 445 309 445 309 456 351 c 2,13,-1
 632 1011 l 2,14,15
 642 1050 642 1050 677 1050 c 2,16,-1
 767 1050 l 2,17,18
 802 1050 802 1050 812 1011 c 2,19,-1
 988 351 l 2,20,21
 999 309 999 309 1011.5 253 c 128,-1,22
 1024 197 1024 197 1029 169 c 1,23,-1
 1033 169 l 1,24,25
 1039 198 1039 198 1053.5 260 c 128,-1,26
 1068 322 1068 322 1075 351 c 2,27,-1
 1222 1011 l 2,28,29
 1231 1050 1231 1050 1267 1050 c 2,30,-1
 1372 1050 l 2,31,32
 1412 1050 1412 1050 1399 1001 c 2,33,-1
 1151 61 l 2,34,35
 1135 0 1135 0 1097 0 c 2,36,-1
 977 0 l 2,37,38
 939 0 939 0 923 61 c 2,39,-1
 753 722 l 2,40,41
 735 792 735 792 730.5 820 c 128,-1,42
 726 848 726 848 723 873 c 1,43,-1
 721 873 l 1,44,45
 718 848 718 848 713.5 820 c 128,-1,46
 709 792 709 792 691 722 c 2,47,-1
 521 61 l 2,48,49
 505 0 505 0 467 0 c 2,50,-1
 347 0 l 2,51,52
 309 0 309 0 293 61 c 2,53,-1
 45 1001 l 2,0,1
EndSplineSet
Substitution2: "'smcp' Lowercase to Small Capitals lookup 3 subtable" W.sc
EndChar

StartChar: x
Encoding: 120 120 91
Width: 974
GlyphClass: 2
Flags: W
AnchorPoint: "Anchor-5" 486 1067 basechar 0
AnchorPoint: "Anchor-4" 486 0 basechar 0
AnchorPoint: "Anchor-3" 974 1476 basechar 0
AnchorPoint: "Anchor-2" 974 -400 basechar 0
LayerCount: 2
Fore
SplineSet
76 0 m 2,0,1
 9 0 9 0 50 59 c 2,2,-1
 391 553 l 1,3,-1
 88 991 l 2,4,5
 47 1050 47 1050 114 1050 c 2,6,-1
 212 1050 l 2,7,8
 248 1050 248 1050 265 1024 c 2,9,-1
 486 676 l 1,10,-1
 706 1024 l 2,11,12
 722 1050 722 1050 759 1050 c 2,13,-1
 858 1050 l 2,14,15
 925 1050 925 1050 884 991 c 2,16,-1
 581 553 l 1,17,-1
 922 59 l 2,18,19
 963 0 963 0 896 0 c 2,20,-1
 798 0 l 2,21,22
 762 0 762 0 745 26 c 2,23,-1
 486 431 l 1,24,-1
 227 26 l 2,25,26
 210 0 210 0 174 0 c 2,27,-1
 76 0 l 2,0,1
EndSplineSet
Substitution2: "'smcp' Lowercase to Small Capitals lookup 3 subtable" X.sc
EndChar

StartChar: y
Encoding: 121 121 92
Width: 990
GlyphClass: 2
Flags: W
AnchorPoint: "Anchor-5" 498 1067 basechar 0
AnchorPoint: "Anchor-4" 498 -400 basechar 0
AnchorPoint: "Anchor-3" 990 1476 basechar 0
AnchorPoint: "Anchor-2" 990 -400 basechar 0
LayerCount: 2
Fore
SplineSet
51 1001 m 2,0,1
 33 1050 33 1050 78 1050 c 2,2,-1
 187 1050 l 2,3,4
 220 1050 220 1050 232 1011 c 2,5,-1
 442 351 l 2,6,7
 451 324 451 324 469.5 266.5 c 128,-1,8
 488 209 488 209 496 164 c 1,9,-1
 498 164 l 1,10,11
 506 209 506 209 517.5 245.5 c 128,-1,12
 529 282 529 282 552 351 c 2,13,-1
 764 1011 l 2,14,15
 777 1050 777 1050 809 1050 c 2,16,-1
 918 1050 l 2,17,18
 963 1050 963 1050 945 1001 c 2,19,-1
 608 61 l 2,20,21
 513 -204 513 -204 438 -310.5 c 128,-1,22
 363 -417 363 -417 214 -417 c 0,23,24
 136 -417 136 -417 90 -394 c 0,25,26
 69 -384 69 -384 76 -363 c 2,27,-1
 102 -282 l 2,28,29
 109 -261 109 -261 129 -270 c 0,30,31
 170 -287 170 -287 208 -287 c 0,32,33
 278 -287 278 -287 322 -211.5 c 128,-1,34
 366 -136 366 -136 392 -60 c 2,35,-1
 412 -1 l 1,36,-1
 51 1001 l 2,0,1
EndSplineSet
Substitution2: "'smcp' Lowercase to Small Capitals lookup 3 subtable" Y.sc
EndChar

StartChar: z
Encoding: 122 122 93
Width: 950
GlyphClass: 2
Flags: W
AnchorPoint: "Anchor-5" 475 1067 basechar 0
AnchorPoint: "Anchor-4" 475 0 basechar 0
AnchorPoint: "Anchor-3" 950 1476 basechar 0
AnchorPoint: "Anchor-2" 950 -400 basechar 0
LayerCount: 2
Fore
SplineSet
100 0 m 2,0,1
 55 0 55 0 55 35 c 2,2,-1
 55 86 l 2,3,4
 55 120 55 120 90 166 c 2,5,-1
 668 918 l 1,6,-1
 668 920 l 1,7,8
 638 918 638 918 608 918 c 2,9,-1
 124 918 l 2,10,11
 79 918 79 918 79 953 c 2,12,-1
 79 1015 l 2,13,14
 79 1050 79 1050 124 1050 c 2,15,-1
 826 1050 l 2,16,17
 871 1050 871 1050 871 1015 c 2,18,-1
 871 968 l 2,19,20
 871 938 871 938 834 890 c 2,21,-1
 252 132 l 1,22,-1
 252 130 l 1,23,24
 282 132 282 132 312 132 c 2,25,-1
 850 132 l 2,26,27
 895 132 895 132 895 97 c 2,28,-1
 895 35 l 2,29,30
 895 0 895 0 850 0 c 2,31,-1
 100 0 l 2,0,1
EndSplineSet
Substitution2: "'smcp' Lowercase to Small Capitals lookup 3 subtable" Z.sc
EndChar

StartChar: braceleft
Encoding: 123 123 94
Width: 776
GlyphClass: 2
Flags: W
LayerCount: 2
Fore
SplineSet
125 479 m 0,0,1
 90 479 90 479 90 524 c 2,2,-1
 90 564 l 2,3,4
 90 609 90 609 125 609 c 0,5,6
 197 609 197 609 273.5 683.5 c 128,-1,7
 350 758 350 758 350 931 c 2,8,-1
 350 1166 l 2,9,10
 350 1335 350 1335 413 1415.5 c 128,-1,11
 476 1496 476 1496 661 1496 c 0,12,13
 706 1496 706 1496 706 1461 c 2,14,-1
 706 1401 l 2,15,16
 706 1366 706 1366 661 1366 c 0,17,18
 563 1366 563 1366 544.5 1325 c 128,-1,19
 526 1284 526 1284 526 1189 c 2,20,-1
 526 903 l 2,21,22
 526 698 526 698 434.5 626 c 128,-1,23
 343 554 343 554 279 545 c 1,24,-1
 279 543 l 1,25,26
 343 534 343 534 434.5 462 c 128,-1,27
 526 390 526 390 526 185 c 2,28,-1
 526 -101 l 2,29,30
 526 -196 526 -196 544.5 -237 c 128,-1,31
 563 -278 563 -278 661 -278 c 0,32,33
 706 -278 706 -278 706 -313 c 2,34,-1
 706 -373 l 2,35,36
 706 -408 706 -408 661 -408 c 0,37,38
 476 -408 476 -408 413 -327.5 c 128,-1,39
 350 -247 350 -247 350 -78 c 2,40,-1
 350 157 l 2,41,42
 350 330 350 330 273.5 404.5 c 128,-1,43
 197 479 197 479 125 479 c 0,0,1
EndSplineSet
EndChar

StartChar: bar
Encoding: 124 124 95
Width: 590
GlyphClass: 2
Flags: W
LayerCount: 2
Fore
SplineSet
265 -440 m 2,0,1
 230 -440 230 -440 230 -395 c 2,2,-1
 230 1451 l 2,3,4
 230 1496 230 1496 265 1496 c 2,5,-1
 325 1496 l 2,6,7
 360 1496 360 1496 360 1451 c 2,8,-1
 360 -395 l 2,9,10
 360 -440 360 -440 325 -440 c 2,11,-1
 265 -440 l 2,0,1
EndSplineSet
EndChar

StartChar: braceright
Encoding: 125 125 96
Width: 776
GlyphClass: 2
Flags: W
LayerCount: 2
Fore
SplineSet
115 -408 m 0,0,1
 70 -408 70 -408 70 -373 c 2,2,-1
 70 -313 l 2,3,4
 70 -278 70 -278 115 -278 c 0,5,6
 213 -278 213 -278 231.5 -237 c 128,-1,7
 250 -196 250 -196 250 -101 c 2,8,-1
 250 185 l 2,9,10
 250 390 250 390 341.5 462 c 128,-1,11
 433 534 433 534 497 543 c 1,12,-1
 497 545 l 1,13,14
 433 554 433 554 341.5 626 c 128,-1,15
 250 698 250 698 250 903 c 2,16,-1
 250 1189 l 2,17,18
 250 1284 250 1284 231.5 1325 c 128,-1,19
 213 1366 213 1366 115 1366 c 0,20,21
 70 1366 70 1366 70 1401 c 2,22,-1
 70 1461 l 2,23,24
 70 1496 70 1496 115 1496 c 0,25,26
 300 1496 300 1496 363 1415.5 c 128,-1,27
 426 1335 426 1335 426 1166 c 2,28,-1
 426 931 l 2,29,30
 426 758 426 758 502.5 683.5 c 128,-1,31
 579 609 579 609 651 609 c 0,32,33
 686 609 686 609 686 564 c 2,34,-1
 686 524 l 2,35,36
 686 479 686 479 651 479 c 0,37,38
 579 479 579 479 502.5 404.5 c 128,-1,39
 426 330 426 330 426 157 c 2,40,-1
 426 -78 l 2,41,42
 426 -247 426 -247 363 -327.5 c 128,-1,43
 300 -408 300 -408 115 -408 c 0,0,1
EndSplineSet
EndChar

StartChar: asciitilde
Encoding: 126 126 97
Width: 1280
GlyphClass: 2
Flags: W
LayerCount: 2
Fore
SplineSet
101 628 m 2,0,1
 77 636 77 636 88 671 c 0,2,3
 123 781 123 781 204 845.5 c 128,-1,4
 285 910 285 910 400 910 c 256,5,6
 515 910 515 910 678.5 790 c 128,-1,7
 842 670 842 670 917 670 c 0,8,9
 986 670 986 670 1030 715 c 128,-1,10
 1074 760 1074 760 1099 816 c 0,11,12
 1112 846 1112 846 1136 837 c 2,13,-1
 1179 822 l 2,14,15
 1203 814 1203 814 1192 779 c 0,16,17
 1157 669 1157 669 1076 604.5 c 128,-1,18
 995 540 995 540 880 540 c 256,19,20
 765 540 765 540 601.5 660 c 128,-1,21
 438 780 438 780 363 780 c 0,22,23
 294 780 294 780 250 735 c 128,-1,24
 206 690 206 690 181 634 c 0,25,26
 168 604 168 604 144 613 c 2,27,-1
 101 628 l 2,0,1
EndSplineSet
EndChar

StartChar: exclamdown
Encoding: 161 161 98
Width: 600
GlyphClass: 2
Flags: W
LayerCount: 2
Fore
SplineSet
248 -384 m 2,0,1
 198 -384 198 -384 198 -329 c 1,2,-1
 219 615 l 1,3,4
 219 660 219 660 264 660 c 2,5,-1
 336 660 l 2,6,7
 381 660 381 660 381 615 c 1,8,-1
 402 -329 l 1,9,10
 402 -384 402 -384 352 -384 c 2,11,-1
 248 -384 l 2,0,1
244 838 m 2,12,13
 199 838 199 838 199 883 c 2,14,-1
 199 1005 l 2,15,16
 199 1050 199 1050 244 1050 c 2,17,-1
 356 1050 l 2,18,19
 401 1050 401 1050 401 1005 c 2,20,-1
 401 883 l 2,21,22
 401 838 401 838 356 838 c 2,23,-1
 244 838 l 2,12,13
EndSplineSet
EndChar

StartChar: cent
Encoding: 162 162 99
Width: 1110
GlyphClass: 2
Flags: W
LayerCount: 2
Fore
SplineSet
128 525 m 256,0,1
 128 760 128 760 236.5 902.5 c 128,-1,2
 345 1045 345 1045 536 1064 c 1,3,-1
 536 1252 l 2,4,5
 536 1297 536 1297 571 1297 c 2,6,-1
 621 1297 l 2,7,8
 656 1297 656 1297 656 1252 c 2,9,-1
 656 1065 l 1,10,11
 778 1057 778 1057 856 1004.5 c 128,-1,12
 934 952 934 952 972 892 c 0,13,14
 993 859 993 859 963 839 c 2,15,-1
 900 798 l 1,16,17
 870 777 870 777 840 825 c 0,18,19
 811 871 811 871 766 899.5 c 128,-1,20
 721 928 721 928 656 934 c 1,21,-1
 656 116 l 1,22,23
 728 124 728 124 779 161 c 128,-1,24
 830 198 830 198 857 248 c 0,25,26
 883 295 883 295 916 275 c 2,27,-1
 983 235 l 2,28,29
 1013 217 1013 217 992 181 c 0,30,31
 967 138 967 138 885 66.5 c 128,-1,32
 803 -5 803 -5 656 -15 c 1,33,-1
 656 -202 l 2,34,35
 656 -247 656 -247 621 -247 c 2,36,-1
 571 -247 l 2,37,38
 536 -247 536 -247 536 -202 c 2,39,-1
 536 -14 l 1,40,41
 345 5 345 5 236.5 147.5 c 128,-1,42
 128 290 128 290 128 525 c 256,0,1
314 525 m 256,43,44
 314 315 314 315 379.5 226.5 c 128,-1,45
 445 138 445 138 536 119 c 1,46,-1
 536 931 l 1,47,48
 445 912 445 912 379.5 823.5 c 128,-1,49
 314 735 314 735 314 525 c 256,43,44
EndSplineSet
EndChar

StartChar: sterling
Encoding: 163 163 100
Width: 1110
GlyphClass: 2
Flags: W
LayerCount: 2
Fore
SplineSet
134 0 m 2,0,1
 79 0 79 0 79 45 c 2,2,-1
 79 102 l 2,3,4
 79 138 79 138 114 175 c 0,5,6
 144 207 144 207 212.5 279 c 128,-1,7
 281 351 281 351 281 475 c 2,8,-1
 281 628 l 1,9,-1
 123 628 l 2,10,11
 79 628 79 628 79 673 c 2,12,-1
 79 747 l 2,13,14
 79 792 79 792 124 792 c 2,15,-1
 281 792 l 1,16,-1
 281 1013 l 2,17,18
 281 1250 281 1250 388 1351 c 128,-1,19
 495 1452 495 1452 690 1452 c 0,20,21
 798 1452 798 1452 876 1419 c 128,-1,22
 954 1386 954 1386 1001 1339 c 0,23,24
 1036 1304 1036 1304 1014 1278 c 2,25,-1
 969 1226 l 2,26,27
 939 1191 939 1191 902 1228 c 0,28,29
 870 1260 870 1260 814.5 1281 c 128,-1,30
 759 1302 759 1302 681 1302 c 0,31,32
 585 1302 585 1302 521 1249.5 c 128,-1,33
 457 1197 457 1197 457 1035 c 2,34,-1
 457 792 l 1,35,-1
 742 792 l 2,36,37
 787 792 787 792 787 747 c 2,38,-1
 787 673 l 2,39,40
 787 628 787 628 743 628 c 2,41,-1
 457 628 l 1,42,-1
 457 495 l 2,43,44
 457 354 457 354 410.5 274 c 128,-1,45
 364 194 364 194 319 166 c 1,46,-1
 319 162 l 1,47,48
 346 164 346 164 399 164 c 2,49,-1
 971 164 l 2,50,51
 1026 164 1026 164 1026 119 c 2,52,-1
 1026 45 l 2,53,54
 1026 0 1026 0 971 0 c 2,55,-1
 134 0 l 2,0,1
EndSplineSet
EndChar

StartChar: currency
Encoding: 164 164 101
Width: 1110
GlyphClass: 2
Flags: W
LayerCount: 2
Fore
SplineSet
90 289 m 2,0,1
 64 313 64 313 95 346 c 2,2,-1
 226 486 l 1,3,4
 152 592 152 592 152 728 c 256,5,6
 152 864 152 864 226 970 c 1,7,-1
 95 1110 l 2,8,9
 64 1143 64 1143 90 1167 c 2,10,-1
 127 1201 l 2,11,12
 153 1225 153 1225 183 1192 c 2,13,-1
 307 1059 l 1,14,15
 411 1144 411 1144 555 1144 c 256,16,17
 699 1144 699 1144 803 1059 c 1,18,-1
 927 1192 l 2,19,20
 957 1225 957 1225 983 1201 c 2,21,-1
 1020 1167 l 2,22,23
 1046 1143 1046 1143 1015 1110 c 2,24,-1
 884 970 l 1,25,26
 958 864 958 864 958 728 c 256,27,28
 958 592 958 592 884 486 c 1,29,-1
 1015 346 l 2,30,31
 1046 313 1046 313 1020 289 c 2,32,-1
 983 255 l 2,33,34
 957 231 957 231 927 264 c 2,35,-1
 803 397 l 1,36,37
 699 312 699 312 555 312 c 256,38,39
 411 312 411 312 307 397 c 1,40,-1
 183 264 l 2,41,42
 153 231 153 231 127 255 c 2,43,-1
 90 289 l 2,0,1
285 728 m 256,44,45
 285 611 285 611 360 526.5 c 128,-1,46
 435 442 435 442 555 442 c 256,47,48
 675 442 675 442 750 526.5 c 128,-1,49
 825 611 825 611 825 728 c 256,50,51
 825 845 825 845 750 929.5 c 128,-1,52
 675 1014 675 1014 555 1014 c 256,53,54
 435 1014 435 1014 360 929.5 c 128,-1,55
 285 845 285 845 285 728 c 256,44,45
EndSplineSet
EndChar

StartChar: yen
Encoding: 165 165 102
Width: 1110
GlyphClass: 2
Flags: W
LayerCount: 2
Fore
SplineSet
15 1368 m 2,0,1
 -23 1434 -23 1434 42 1434 c 2,2,-1
 134 1434 l 2,3,4
 181 1434 181 1434 206 1385 c 2,5,-1
 432 948 l 2,6,7
 472 871 472 871 498.5 820 c 128,-1,8
 525 769 525 769 553 709 c 1,9,-1
 557 709 l 1,10,11
 585 769 585 769 611.5 820 c 128,-1,12
 638 871 638 871 678 948 c 2,13,-1
 904 1385 l 2,14,15
 929 1434 929 1434 976 1434 c 2,16,-1
 1068 1434 l 2,17,18
 1133 1434 1133 1434 1095 1368 c 2,19,-1
 730 739 l 1,20,-1
 906 739 l 2,21,22
 951 739 951 739 951 694 c 2,23,-1
 951 635 l 2,24,25
 951 590 951 590 906 590 c 2,26,-1
 643 590 l 1,27,-1
 643 409 l 1,28,-1
 906 409 l 2,29,30
 951 409 951 409 951 364 c 2,31,-1
 951 305 l 2,32,33
 951 260 951 260 906 260 c 2,34,-1
 643 260 l 1,35,-1
 643 45 l 2,36,37
 643 0 643 0 598 0 c 2,38,-1
 512 0 l 2,39,40
 467 0 467 0 467 45 c 2,41,-1
 467 260 l 1,42,-1
 194 260 l 2,43,44
 149 260 149 260 149 305 c 2,45,-1
 149 364 l 2,46,47
 149 409 149 409 194 409 c 2,48,-1
 467 409 l 1,49,-1
 467 590 l 1,50,-1
 194 590 l 2,51,52
 149 590 149 590 149 635 c 2,53,-1
 149 694 l 2,54,55
 149 739 149 739 194 739 c 2,56,-1
 380 739 l 1,57,-1
 15 1368 l 2,0,1
EndSplineSet
EndChar

StartChar: brokenbar
Encoding: 166 166 103
Width: 590
GlyphClass: 2
Flags: W
LayerCount: 2
Fore
SplineSet
265 -338 m 2,0,1
 230 -338 230 -338 230 -293 c 2,2,-1
 230 351 l 2,3,4
 230 396 230 396 265 396 c 2,5,-1
 325 396 l 2,6,7
 360 396 360 396 360 351 c 2,8,-1
 360 -293 l 2,9,10
 360 -338 360 -338 325 -338 c 2,11,-1
 265 -338 l 2,0,1
265 660 m 2,12,13
 230 660 230 660 230 705 c 2,14,-1
 230 1349 l 2,15,16
 230 1394 230 1394 265 1394 c 2,17,-1
 325 1394 l 2,18,19
 360 1394 360 1394 360 1349 c 2,20,-1
 360 705 l 2,21,22
 360 660 360 660 325 660 c 2,23,-1
 265 660 l 2,12,13
EndSplineSet
EndChar

StartChar: section
Encoding: 167 167 104
Width: 1160
GlyphClass: 2
Flags: W
LayerCount: 2
Fore
SplineSet
110 581 m 0,0,1
 110 703 110 703 184.5 793.5 c 128,-1,2
 259 884 259 884 357 957 c 1,3,4
 274 1060 274 1060 274 1155 c 0,5,6
 274 1293 274 1293 366 1378.5 c 128,-1,7
 458 1464 458 1464 606 1464 c 0,8,9
 706 1464 706 1464 776 1430.5 c 128,-1,10
 846 1397 846 1397 882 1350 c 0,11,12
 908 1317 908 1317 886 1295 c 2,13,-1
 831 1239 l 2,14,15
 811 1219 811 1219 786 1253 c 0,16,17
 765 1281 765 1281 722.5 1307.5 c 128,-1,18
 680 1334 680 1334 615 1334 c 0,19,20
 532 1334 532 1334 494 1291.5 c 128,-1,21
 456 1249 456 1249 456 1185 c 0,22,23
 456 1062 456 1062 753 860 c 128,-1,24
 1050 658 1050 658 1050 509 c 0,25,26
 1050 387 1050 387 975.5 296.5 c 128,-1,27
 901 206 901 206 803 133 c 1,28,29
 886 30 886 30 886 -65 c 0,30,31
 886 -203 886 -203 794 -288.5 c 128,-1,32
 702 -374 702 -374 554 -374 c 0,33,34
 454 -374 454 -374 384 -340.5 c 128,-1,35
 314 -307 314 -307 278 -260 c 0,36,37
 252 -227 252 -227 274 -205 c 2,38,-1
 329 -149 l 2,39,40
 349 -129 349 -129 374 -163 c 0,41,42
 395 -191 395 -191 437.5 -217.5 c 128,-1,43
 480 -244 480 -244 545 -244 c 0,44,45
 628 -244 628 -244 666 -201.5 c 128,-1,46
 704 -159 704 -159 704 -95 c 0,47,48
 704 28 704 28 407 230 c 128,-1,49
 110 432 110 432 110 581 c 0,0,1
281 646 m 0,50,51
 281 535 281 535 471.5 403.5 c 128,-1,52
 662 272 662 272 720 219 c 1,53,-1
 814 304 l 2,54,55
 879 363 879 363 879 444 c 0,56,57
 879 555 879 555 688.5 686.5 c 128,-1,58
 498 818 498 818 440 871 c 1,59,-1
 346 786 l 2,60,61
 281 727 281 727 281 646 c 0,50,51
EndSplineSet
EndChar

StartChar: dieresis
Encoding: 168 168 105
Width: 614
GlyphClass: 2
Flags: W
LayerCount: 2
Fore
SplineSet
61 1240 m 2,0,1
 16 1240 16 1240 16 1285 c 2,2,-1
 16 1371 l 2,3,4
 16 1416 16 1416 61 1416 c 2,5,-1
 147 1416 l 2,6,7
 192 1416 192 1416 192 1371 c 2,8,-1
 192 1285 l 2,9,10
 192 1240 192 1240 147 1240 c 2,11,-1
 61 1240 l 2,0,1
467 1240 m 2,12,13
 422 1240 422 1240 422 1285 c 2,14,-1
 422 1371 l 2,15,16
 422 1416 422 1416 467 1416 c 2,17,-1
 553 1416 l 2,18,19
 598 1416 598 1416 598 1371 c 2,20,-1
 598 1285 l 2,21,22
 598 1240 598 1240 553 1240 c 2,23,-1
 467 1240 l 2,12,13
EndSplineSet
EndChar

StartChar: copyright
Encoding: 169 169 106
Width: 1654
GlyphClass: 2
Flags: W
LayerCount: 2
Fore
SplineSet
80 717 m 256,0,1
 80 869 80 869 139.5 1007 c 128,-1,2
 199 1145 199 1145 299 1245 c 128,-1,3
 399 1345 399 1345 537 1404.5 c 128,-1,4
 675 1464 675 1464 827 1464 c 256,5,6
 979 1464 979 1464 1117 1404.5 c 128,-1,7
 1255 1345 1255 1345 1355 1245 c 128,-1,8
 1455 1145 1455 1145 1514.5 1007 c 128,-1,9
 1574 869 1574 869 1574 717 c 256,10,11
 1574 565 1574 565 1514.5 427 c 128,-1,12
 1455 289 1455 289 1355 189 c 128,-1,13
 1255 89 1255 89 1117 29.5 c 128,-1,14
 979 -30 979 -30 827 -30 c 256,15,16
 675 -30 675 -30 537 29.5 c 128,-1,17
 399 89 399 89 299 189 c 128,-1,18
 199 289 199 289 139.5 427 c 128,-1,19
 80 565 80 565 80 717 c 256,0,1
180 717 m 256,20,21
 180 585 180 585 231.5 465.5 c 128,-1,22
 283 346 283 346 369.5 259.5 c 128,-1,23
 456 173 456 173 575.5 119.5 c 128,-1,24
 695 66 695 66 827 66 c 256,25,26
 959 66 959 66 1078.5 119.5 c 128,-1,27
 1198 173 1198 173 1284.5 259.5 c 128,-1,28
 1371 346 1371 346 1422.5 465.5 c 128,-1,29
 1474 585 1474 585 1474 717 c 256,30,31
 1474 849 1474 849 1422.5 968.5 c 128,-1,32
 1371 1088 1371 1088 1284.5 1174.5 c 128,-1,33
 1198 1261 1198 1261 1078.5 1314.5 c 128,-1,34
 959 1368 959 1368 827 1368 c 256,35,36
 695 1368 695 1368 575.5 1314.5 c 128,-1,37
 456 1261 456 1261 369.5 1174.5 c 128,-1,38
 283 1088 283 1088 231.5 968.5 c 128,-1,39
 180 849 180 849 180 717 c 256,20,21
430 717 m 256,40,41
 430 920 430 920 533 1035 c 128,-1,42
 636 1150 636 1150 825 1150 c 0,43,44
 935 1150 935 1150 1009.5 1112 c 128,-1,45
 1084 1074 1084 1074 1115 1009 c 0,46,47
 1131 975 1131 975 1110 963 c 2,48,-1
 1052 931 l 2,49,50
 1029 918 1029 918 1011 953 c 0,51,52
 992 990 992 990 952 1017.5 c 128,-1,53
 912 1045 912 1045 830 1045 c 0,54,55
 685 1045 685 1045 622.5 962 c 128,-1,56
 560 879 560 879 560 717 c 256,57,58
 560 555 560 555 622.5 472 c 128,-1,59
 685 389 685 389 830 389 c 0,60,61
 914 389 914 389 960.5 423.5 c 128,-1,62
 1007 458 1007 458 1030 500 c 0,63,64
 1048 533 1048 533 1072 520 c 2,65,-1
 1132 487 l 2,66,67
 1153 475 1153 475 1135 440 c 0,68,69
 1101 373 1101 373 1021.5 328.5 c 128,-1,70
 942 284 942 284 825 284 c 0,71,72
 637 284 637 284 533.5 399 c 128,-1,73
 430 514 430 514 430 717 c 256,40,41
EndSplineSet
EndChar

StartChar: ordfeminine
Encoding: 170 170 107
Width: 738
GlyphClass: 2
Flags: W
LayerCount: 2
Fore
SplineSet
58 978 m 0,0,1
 58 1106 58 1106 165 1157 c 128,-1,2
 272 1208 272 1208 497 1224 c 1,3,-1
 497 1248 l 2,4,5
 497 1316 497 1316 464.5 1352 c 128,-1,6
 432 1388 432 1388 348 1388 c 0,7,8
 282 1388 282 1388 248 1374 c 128,-1,9
 214 1360 214 1360 177 1327 c 0,10,11
 157 1309 157 1309 142 1325 c 2,12,-1
 95 1375 l 2,13,14
 79 1392 79 1392 105 1414 c 0,15,16
 160 1460 160 1460 229 1476.5 c 128,-1,17
 298 1493 298 1493 366 1493 c 0,18,19
 502 1493 502 1493 565.5 1422.5 c 128,-1,20
 629 1352 629 1352 629 1221 c 2,21,-1
 629 828 l 2,22,23
 629 799 629 799 598 799 c 2,24,-1
 525 799 l 2,25,26
 499 799 499 799 499 828 c 2,27,-1
 499 860 l 1,28,-1
 497 860 l 1,29,30
 442 818 442 818 397.5 803 c 128,-1,31
 353 788 353 788 290 788 c 0,32,33
 186 788 186 788 122 837.5 c 128,-1,34
 58 887 58 887 58 978 c 0,0,1
196 985 m 0,35,36
 196 942 196 942 222 919 c 128,-1,37
 248 896 248 896 313 896 c 0,38,39
 354 896 354 896 400 906 c 128,-1,40
 446 916 446 916 497 950 c 1,41,-1
 497 1119 l 1,42,43
 294 1106 294 1106 245 1068 c 128,-1,44
 196 1030 196 1030 196 985 c 0,35,36
EndSplineSet
EndChar

StartChar: logicalnot
Encoding: 172 172 109
Width: 1110
GlyphClass: 2
Flags: W
LayerCount: 2
Fore
SplineSet
125 808 m 2,0,1
 80 808 80 808 80 843 c 2,2,-1
 80 893 l 2,3,4
 80 928 80 928 125 928 c 2,5,-1
 985 928 l 2,6,7
 1030 928 1030 928 1030 893 c 2,8,-1
 1030 473 l 2,9,10
 1030 428 1030 428 995 428 c 2,11,-1
 945 428 l 2,12,13
 910 428 910 428 910 473 c 2,14,-1
 910 808 l 1,15,-1
 125 808 l 2,0,1
EndSplineSet
EndChar

StartChar: registered
Encoding: 174 174 110
Width: 1654
GlyphClass: 2
Flags: W
LayerCount: 2
Fore
SplineSet
80 717 m 256,0,1
 80 869 80 869 139.5 1007 c 128,-1,2
 199 1145 199 1145 299 1245 c 128,-1,3
 399 1345 399 1345 537 1404.5 c 128,-1,4
 675 1464 675 1464 827 1464 c 256,5,6
 979 1464 979 1464 1117 1404.5 c 128,-1,7
 1255 1345 1255 1345 1355 1245 c 128,-1,8
 1455 1145 1455 1145 1514.5 1007 c 128,-1,9
 1574 869 1574 869 1574 717 c 256,10,11
 1574 565 1574 565 1514.5 427 c 128,-1,12
 1455 289 1455 289 1355 189 c 128,-1,13
 1255 89 1255 89 1117 29.5 c 128,-1,14
 979 -30 979 -30 827 -30 c 256,15,16
 675 -30 675 -30 537 29.5 c 128,-1,17
 399 89 399 89 299 189 c 128,-1,18
 199 289 199 289 139.5 427 c 128,-1,19
 80 565 80 565 80 717 c 256,0,1
180 717 m 256,20,21
 180 585 180 585 231.5 465.5 c 128,-1,22
 283 346 283 346 369.5 259.5 c 128,-1,23
 456 173 456 173 575.5 119.5 c 128,-1,24
 695 66 695 66 827 66 c 256,25,26
 959 66 959 66 1078.5 119.5 c 128,-1,27
 1198 173 1198 173 1284.5 259.5 c 128,-1,28
 1371 346 1371 346 1422.5 465.5 c 128,-1,29
 1474 585 1474 585 1474 717 c 256,30,31
 1474 849 1474 849 1422.5 968.5 c 128,-1,32
 1371 1088 1371 1088 1284.5 1174.5 c 128,-1,33
 1198 1261 1198 1261 1078.5 1314.5 c 128,-1,34
 959 1368 959 1368 827 1368 c 256,35,36
 695 1368 695 1368 575.5 1314.5 c 128,-1,37
 456 1261 456 1261 369.5 1174.5 c 128,-1,38
 283 1088 283 1088 231.5 968.5 c 128,-1,39
 180 849 180 849 180 717 c 256,20,21
569 283 m 2,40,41
 540 283 540 283 540 315 c 2,42,-1
 540 1083 l 2,43,44
 540 1115 540 1115 569 1115 c 2,45,-1
 849 1115 l 2,46,47
 1017 1115 1017 1115 1092 1052 c 128,-1,48
 1167 989 1167 989 1167 887 c 0,49,50
 1167 797 1167 797 1108.5 734.5 c 128,-1,51
 1050 672 1050 672 934 658 c 1,52,-1
 934 657 l 1,53,54
 991 622 991 622 1011 598 c 128,-1,55
 1031 574 1031 574 1055 534 c 2,56,-1
 1186 322 l 2,57,58
 1210 283 1210 283 1175 283 c 2,59,-1
 1099 283 l 2,60,61
 1073 283 1073 283 1059 306 c 2,62,-1
 943 503 l 2,63,64
 920 542 920 542 867.5 587.5 c 128,-1,65
 815 633 815 633 742 633 c 2,66,-1
 660 633 l 1,67,-1
 660 315 l 2,68,69
 660 283 660 283 631 283 c 2,70,-1
 569 283 l 2,40,41
660 743 m 1,71,-1
 809 743 l 2,72,73
 922 743 922 743 982 775.5 c 128,-1,74
 1042 808 1042 808 1042 884 c 0,75,76
 1042 954 1042 954 987 979.5 c 128,-1,77
 932 1005 932 1005 837 1005 c 2,78,-1
 660 1005 l 1,79,-1
 660 743 l 1,71,-1
EndSplineSet
EndChar

StartChar: macron
Encoding: 175 175 111
Width: 614
GlyphClass: 2
Flags: W
LayerCount: 2
Fore
SplineSet
43 1240 m 2,0,1
 -2 1240 -2 1240 -2 1275 c 2,2,-1
 -2 1315 l 2,3,4
 -2 1350 -2 1350 43 1350 c 2,5,-1
 571 1350 l 2,6,7
 616 1350 616 1350 616 1315 c 2,8,-1
 616 1275 l 2,9,10
 616 1240 616 1240 571 1240 c 2,11,-1
 43 1240 l 2,0,1
EndSplineSet
EndChar

StartChar: degree
Encoding: 176 176 112
Width: 560
GlyphClass: 2
Flags: W
LayerCount: 2
Fore
SplineSet
80 1240 m 256,0,1
 80 1323 80 1323 138.5 1381.5 c 128,-1,2
 197 1440 197 1440 280 1440 c 256,3,4
 363 1440 363 1440 421.5 1381.5 c 128,-1,5
 480 1323 480 1323 480 1240 c 256,6,7
 480 1157 480 1157 421.5 1098.5 c 128,-1,8
 363 1040 363 1040 280 1040 c 256,9,10
 197 1040 197 1040 138.5 1098.5 c 128,-1,11
 80 1157 80 1157 80 1240 c 256,0,1
180 1240 m 256,12,13
 180 1198 180 1198 209 1169 c 128,-1,14
 238 1140 238 1140 280 1140 c 256,15,16
 322 1140 322 1140 351 1169 c 128,-1,17
 380 1198 380 1198 380 1240 c 256,18,19
 380 1282 380 1282 351 1311 c 128,-1,20
 322 1340 322 1340 280 1340 c 256,21,22
 238 1340 238 1340 209 1311 c 128,-1,23
 180 1282 180 1282 180 1240 c 256,12,13
EndSplineSet
EndChar

StartChar: uni00B2
Encoding: 178 178 114
Width: 590
GlyphClass: 2
Flags: W
LayerCount: 2
Fore
SplineSet
77 712 m 2,0,1
 49 712 49 712 49 735 c 2,2,-1
 49 776 l 2,3,4
 49 797 49 797 66 814 c 2,5,-1
 270 1019 l 1,6,7
 369 1120 369 1120 388 1161 c 128,-1,8
 407 1202 407 1202 407 1258 c 0,9,10
 407 1295 407 1295 377.5 1330.5 c 128,-1,11
 348 1366 348 1366 288 1366 c 0,12,13
 250 1366 250 1366 212 1345.5 c 128,-1,14
 174 1325 174 1325 152 1259 c 0,15,16
 143 1231 143 1231 121 1236 c 2,17,-1
 64 1249 l 2,18,19
 48 1253 48 1253 57 1293 c 0,20,21
 72 1361 72 1361 130 1413.5 c 128,-1,22
 188 1466 188 1466 284 1466 c 0,23,24
 418 1466 418 1466 474.5 1411.5 c 128,-1,25
 531 1357 531 1357 531 1255 c 0,26,27
 531 1179 531 1179 488.5 1116 c 128,-1,28
 446 1053 446 1053 356 964 c 2,29,-1
 211 820 l 1,30,-1
 211 817 l 1,31,32
 232 819 232 819 252 819 c 2,33,-1
 510 819 l 2,34,35
 539 819 539 819 539 796 c 2,36,-1
 539 735 l 2,37,38
 539 712 539 712 510 712 c 2,39,-1
 77 712 l 2,0,1
EndSplineSet
EndChar

StartChar: uni00B3
Encoding: 179 179 115
Width: 594
GlyphClass: 2
Flags: W
LayerCount: 2
Fore
SplineSet
57 789 m 0,0,1
 35 814 35 814 48 828 c 2,2,-1
 90 872 l 2,3,4
 108 891 108 891 132 862 c 0,5,6
 162 825 162 825 196 810.5 c 128,-1,7
 230 796 230 796 268 796 c 0,8,9
 350 796 350 796 382.5 836.5 c 128,-1,10
 415 877 415 877 415 931 c 0,11,12
 415 989 415 989 369.5 1026 c 128,-1,13
 324 1063 324 1063 270 1063 c 2,14,-1
 224 1063 l 2,15,16
 201 1063 201 1063 201 1080 c 2,17,-1
 201 1140 l 2,18,19
 201 1158 201 1158 224 1158 c 2,20,-1
 261 1158 l 2,21,22
 312 1158 312 1158 351 1190.5 c 128,-1,23
 390 1223 390 1223 390 1287 c 0,24,25
 390 1315 390 1315 359 1340.5 c 128,-1,26
 328 1366 328 1366 275 1366 c 0,27,28
 232 1366 232 1366 198 1353.5 c 128,-1,29
 164 1341 164 1341 145 1319 c 0,30,31
 124 1295 124 1295 107 1311 c 2,32,-1
 66 1349 l 2,33,34
 52 1362 52 1362 77 1392 c 0,35,36
 104 1424 104 1424 155.5 1445 c 128,-1,37
 207 1466 207 1466 277 1466 c 0,38,39
 390 1466 390 1466 450 1421.5 c 128,-1,40
 510 1377 510 1377 510 1280 c 0,41,42
 510 1209 510 1209 463.5 1168 c 128,-1,43
 417 1127 417 1127 369 1116 c 1,44,-1
 369 1114 l 1,45,46
 425 1106 425 1106 482 1058.5 c 128,-1,47
 539 1011 539 1011 539 929 c 0,48,49
 539 821 539 821 470.5 758.5 c 128,-1,50
 402 696 402 696 265 696 c 0,51,52
 186 696 186 696 135 727 c 128,-1,53
 84 758 84 758 57 789 c 0,0,1
EndSplineSet
EndChar

StartChar: acute
Encoding: 180 180 116
Width: 614
GlyphClass: 2
Flags: W
LayerCount: 2
Fore
SplineSet
191 1150 m 2,0,1
 141 1150 141 1150 179 1203 c 2,2,-1
 318 1398 l 2,3,4
 344 1435 344 1435 399 1435 c 2,5,-1
 510 1435 l 2,6,7
 569 1435 569 1435 524 1383 c 2,8,-1
 346 1179 l 2,9,10
 321 1150 321 1150 265 1150 c 2,11,-1
 191 1150 l 2,0,1
EndSplineSet
EndChar

StartChar: uni00B5
Encoding: 181 181 117
Width: 1160
GlyphClass: 2
Flags: W
LayerCount: 2
Fore
SplineSet
193 -417 m 2,0,1
 148 -417 148 -417 148 -372 c 2,2,-1
 148 1004 l 2,3,4
 148 1049 148 1049 193 1049 c 2,5,-1
 279 1049 l 2,6,7
 324 1049 324 1049 324 1004 c 2,8,-1
 324 455 l 2,9,10
 324 300 324 300 396 206 c 128,-1,11
 468 112 468 112 588 112 c 0,12,13
 684 112 684 112 763 200 c 128,-1,14
 842 288 842 288 842 456 c 2,15,-1
 842 1005 l 2,16,17
 842 1050 842 1050 887 1050 c 2,18,-1
 973 1050 l 2,19,20
 1018 1050 1018 1050 1018 1005 c 2,21,-1
 1018 45 l 2,22,23
 1018 0 1018 0 973 0 c 2,24,-1
 889 0 l 2,25,26
 844 0 844 0 844 45 c 2,27,-1
 844 125 l 1,28,-1
 840 125 l 1,29,30
 774 46 774 46 708 14 c 128,-1,31
 642 -18 642 -18 572 -18 c 256,32,33
 502 -18 502 -18 442 14 c 128,-1,34
 382 46 382 46 326 124 c 1,35,-1
 322 124 l 1,36,37
 324 94 324 94 324 64 c 2,38,-1
 324 -372 l 2,39,40
 324 -417 324 -417 279 -417 c 2,41,-1
 193 -417 l 2,0,1
EndSplineSet
EndChar

StartChar: paragraph
Encoding: 182 182 118
Width: 1022
GlyphClass: 2
Flags: W
LayerCount: 2
Fore
SplineSet
80 1084 m 256,0,1
 80 1226 80 1226 184 1330 c 128,-1,2
 288 1434 288 1434 430 1434 c 2,3,-1
 525 1434 l 2,4,5
 560 1434 560 1434 560 1389 c 2,6,-1
 560 -325 l 2,7,8
 560 -370 560 -370 525 -370 c 2,9,-1
 465 -370 l 2,10,11
 430 -370 430 -370 430 -325 c 2,12,-1
 430 734 l 1,13,14
 288 734 288 734 184 838 c 128,-1,15
 80 942 80 942 80 1084 c 256,0,1
785 -370 m 2,16,17
 750 -370 750 -370 750 -325 c 2,18,-1
 750 1389 l 2,19,20
 750 1434 750 1434 785 1434 c 2,21,-1
 845 1434 l 2,22,23
 880 1434 880 1434 880 1389 c 2,24,-1
 880 -325 l 2,25,26
 880 -370 880 -370 845 -370 c 2,27,-1
 785 -370 l 2,16,17
EndSplineSet
EndChar

StartChar: cedilla
Encoding: 184 184 120
Width: 614
GlyphClass: 2
Flags: W
LayerCount: 2
Fore
SplineSet
120 -396 m 0,0,1
 99 -390 99 -390 106 -361 c 2,2,-1
 116 -322 l 2,3,4
 124 -292 124 -292 154 -302 c 0,5,6
 196 -316 196 -316 238 -316 c 0,7,8
 286 -316 286 -316 312.5 -299 c 128,-1,9
 339 -282 339 -282 339 -248 c 0,10,11
 339 -218 339 -218 309 -203.5 c 128,-1,12
 279 -189 279 -189 230 -189 c 2,13,-1
 202 -189 l 2,14,15
 178 -189 178 -189 178 -164 c 0,16,17
 178 -126 178 -126 188 -109 c 2,18,-1
 252 0 l 2,19,20
 265 22 265 22 292 22 c 2,21,-1
 352 22 l 2,22,23
 384 22 384 22 371 0 c 2,24,-1
 315 -96 l 1,25,-1
 315 -99 l 1,26,27
 394 -105 394 -105 428.5 -152 c 128,-1,28
 463 -199 463 -199 463 -251 c 0,29,30
 463 -327 463 -327 403.5 -371.5 c 128,-1,31
 344 -416 344 -416 246 -416 c 0,32,33
 191 -416 191 -416 120 -396 c 0,0,1
EndSplineSet
EndChar

StartChar: uni00B9
Encoding: 185 185 121
Width: 480
GlyphClass: 2
Flags: W
LayerCount: 2
Fore
SplineSet
79 1315 m 2,0,1
 72 1329 72 1329 91 1339 c 0,2,3
 114 1351 114 1351 158.5 1379.5 c 128,-1,4
 203 1408 203 1408 229 1441 c 0,5,6
 244 1460 244 1460 258 1460 c 2,7,-1
 330 1460 l 2,8,9
 354 1460 354 1460 354 1437 c 2,10,-1
 354 735 l 2,11,12
 354 712 354 712 330 712 c 2,13,-1
 258 712 l 2,14,15
 234 712 234 712 234 735 c 2,16,-1
 234 1294 l 2,17,18
 234 1309 234 1309 236 1325 c 1,19,-1
 234 1325 l 1,20,21
 218 1305 218 1305 189 1283.5 c 128,-1,22
 160 1262 160 1262 134 1252 c 0,23,24
 112 1243 112 1243 104 1261 c 2,25,-1
 79 1315 l 2,0,1
EndSplineSet
EndChar

StartChar: ordmasculine
Encoding: 186 186 122
Width: 780
GlyphClass: 2
Flags: W
LayerCount: 2
Fore
SplineSet
58 1140 m 256,0,1
 58 1300 58 1300 144 1396.5 c 128,-1,2
 230 1493 230 1493 390 1493 c 256,3,4
 550 1493 550 1493 636 1396.5 c 128,-1,5
 722 1300 722 1300 722 1140 c 256,6,7
 722 980 722 980 636 884 c 128,-1,8
 550 788 550 788 390 788 c 256,9,10
 230 788 230 788 144 884 c 128,-1,11
 58 980 58 980 58 1140 c 256,0,1
196 1140 m 256,12,13
 196 1010 196 1010 250.5 953 c 128,-1,14
 305 896 305 896 390 896 c 256,15,16
 475 896 475 896 529.5 953 c 128,-1,17
 584 1010 584 1010 584 1140 c 256,18,19
 584 1270 584 1270 529.5 1327.5 c 128,-1,20
 475 1385 475 1385 390 1385 c 256,21,22
 305 1385 305 1385 250.5 1327.5 c 128,-1,23
 196 1270 196 1270 196 1140 c 256,12,13
EndSplineSet
EndChar

StartChar: questiondown
Encoding: 191 191 127
Width: 1016
GlyphClass: 2
Flags: W
LayerCount: 2
Fore
SplineSet
106 -38 m 0,0,1
 106 105 106 105 272.5 289.5 c 128,-1,2
 439 474 439 474 439 612 c 2,3,-1
 439 635 l 2,4,5
 439 680 439 680 484 680 c 2,6,-1
 570 680 l 2,7,8
 615 680 615 680 615 635 c 2,9,-1
 615 598 l 2,10,11
 615 429 615 429 458.5 250.5 c 128,-1,12
 302 72 302 72 302 -44 c 0,13,14
 302 -166 302 -166 359 -215 c 128,-1,15
 416 -264 416 -264 516 -264 c 0,16,17
 626 -264 626 -264 681.5 -224 c 128,-1,18
 737 -184 737 -184 766 -115 c 0,19,20
 789 -61 789 -61 831 -80 c 2,21,-1
 905 -114 l 2,22,23
 936 -128 936 -128 908 -200 c 0,24,25
 881 -267 881 -267 789.5 -340.5 c 128,-1,26
 698 -414 698 -414 523 -414 c 0,27,28
 308 -414 308 -414 207 -311.5 c 128,-1,29
 106 -209 106 -209 106 -38 c 0,0,1
472 838 m 2,30,31
 427 838 427 838 427 883 c 2,32,-1
 427 1005 l 2,33,34
 427 1050 427 1050 472 1050 c 2,35,-1
 584 1050 l 2,36,37
 629 1050 629 1050 629 1005 c 2,38,-1
 629 883 l 2,39,40
 629 838 629 838 584 838 c 2,41,-1
 472 838 l 2,30,31
EndSplineSet
EndChar

StartChar: AE
Encoding: 198 198 134
Width: 1957
GlyphClass: 2
Flags: W
AnchorPoint: "Anchor-5" 993 1464 basechar 0
AnchorPoint: "Anchor-4" 951 0 basechar 0
LayerCount: 2
Fore
SplineSet
73 0 m 2,0,1
 14 0 14 0 46 66 c 2,2,-1
 690 1382 l 2,3,4
 715 1434 715 1434 758 1434 c 2,5,-1
 1782 1434 l 2,6,7
 1837 1434 1837 1434 1837 1389 c 2,8,-1
 1837 1315 l 2,9,10
 1837 1270 1837 1270 1782 1270 c 2,11,-1
 1089 1270 l 1,12,-1
 1089 826 l 1,13,-1
 1722 826 l 2,14,15
 1777 826 1777 826 1777 781 c 2,16,-1
 1777 707 l 2,17,18
 1777 662 1777 662 1722 662 c 2,19,-1
 1089 662 l 1,20,-1
 1089 164 l 1,21,-1
 1812 164 l 2,22,23
 1867 164 1867 164 1867 119 c 2,24,-1
 1867 45 l 2,25,26
 1867 0 1867 0 1812 0 c 2,27,-1
 947 0 l 2,28,29
 897 0 897 0 897 55 c 2,30,-1
 897 380 l 1,31,-1
 408 380 l 1,32,-1
 248 49 l 2,33,34
 224 0 224 0 180 0 c 2,35,-1
 73 0 l 2,0,1
489 544 m 1,36,-1
 897 544 l 1,37,-1
 897 1270 l 1,38,-1
 827 1270 l 1,39,40
 810 1211 810 1211 789.5 1163.5 c 128,-1,41
 769 1116 769 1116 738 1053 c 2,42,-1
 489 544 l 1,36,-1
EndSplineSet
EndChar

StartChar: Eth
Encoding: 208 208 144
Width: 1486
GlyphClass: 2
Flags: W
LayerCount: 2
Fore
SplineSet
95 654 m 2,0,1
 40 654 40 654 40 699 c 2,2,-1
 40 773 l 2,3,4
 40 818 40 818 95 818 c 2,5,-1
 220 818 l 1,6,-1
 220 1379 l 2,7,8
 220 1434 220 1434 270 1434 c 2,9,-1
 639 1434 l 2,10,11
 1063 1434 1063 1434 1228.5 1246.5 c 128,-1,12
 1394 1059 1394 1059 1394 719 c 256,13,14
 1394 379 1394 379 1228.5 189.5 c 128,-1,15
 1063 0 1063 0 639 0 c 2,16,-1
 270 0 l 2,17,18
 220 0 220 0 220 55 c 2,19,-1
 220 654 l 1,20,-1
 95 654 l 2,0,1
412 164 m 1,21,-1
 630 164 l 2,22,23
 960 164 960 164 1074.5 304 c 128,-1,24
 1189 444 1189 444 1189 719 c 256,25,26
 1189 994 1189 994 1074.5 1133 c 128,-1,27
 960 1272 960 1272 630 1272 c 2,28,-1
 412 1272 l 1,29,-1
 412 818 l 1,30,-1
 723 818 l 2,31,32
 778 818 778 818 778 773 c 2,33,-1
 778 699 l 2,34,35
 778 654 778 654 723 654 c 2,36,-1
 412 654 l 1,37,-1
 412 164 l 1,21,-1
EndSplineSet
EndChar

StartChar: multiply
Encoding: 215 215 151
Width: 1280
GlyphClass: 2
Flags: W
LayerCount: 2
Fore
SplineSet
225 347 m 2,0,1
 200 372 200 372 232 403 c 2,2,-1
 553 724 l 1,3,-1
 232 1046 l 2,4,5
 200 1078 200 1078 225 1102 c 2,6,-1
 261 1137 l 2,7,8
 286 1162 286 1162 317 1130 c 2,9,-1
 638 809 l 1,10,-1
 961 1132 l 2,11,12
 993 1164 993 1164 1017 1139 c 1,13,-1
 1053 1104 l 2,14,15
 1078 1079 1078 1079 1045 1047 c 2,16,-1
 723 724 l 1,17,-1
 1045 402 l 2,18,19
 1077 370 1077 370 1053 345 c 1,20,-1
 1017 310 l 2,21,22
 992 285 992 285 961 317 c 2,23,-1
 638 640 l 1,24,-1
 317 319 l 2,25,26
 285 287 285 287 261 312 c 1,27,-1
 225 347 l 2,0,1
EndSplineSet
EndChar

StartChar: Oslash
Encoding: 216 216 152
Width: 1524
GlyphClass: 2
Flags: W
LayerCount: 2
Fore
SplineSet
92 717 m 0,0,1
 92 1067 92 1067 264.5 1265.5 c 128,-1,2
 437 1464 437 1464 762 1464 c 0,3,4
 1038 1464 1038 1464 1204 1321 c 1,5,-1
 1325 1455 l 2,6,7
 1362 1496 1362 1496 1395 1465 c 1,8,-1
 1440 1425 l 2,9,10
 1473 1395 1473 1395 1437 1354 c 2,11,-1
 1304 1207 l 1,12,13
 1432 1018 1432 1018 1432 717 c 0,14,15
 1432 367 1432 367 1259.5 168.5 c 128,-1,16
 1087 -30 1087 -30 762 -30 c 0,17,18
 486 -30 486 -30 320 113 c 1,19,-1
 199 -21 l 2,20,21
 162 -62 162 -62 129 -31 c 1,22,-1
 84 9 l 2,23,24
 51 39 51 39 87 80 c 2,25,-1
 220 227 l 1,26,27
 92 416 92 416 92 717 c 0,0,1
297 717 m 0,28,29
 297 516 297 516 356 379 c 1,30,-1
 1083 1187 l 1,31,32
 969 1308 969 1308 762 1308 c 0,33,34
 527 1308 527 1308 412 1152.5 c 128,-1,35
 297 997 297 997 297 717 c 0,28,29
441 247 m 1,36,37
 555 126 555 126 762 126 c 0,38,39
 997 126 997 126 1112 281.5 c 128,-1,40
 1227 437 1227 437 1227 717 c 0,41,42
 1227 918 1227 918 1168 1055 c 1,43,-1
 441 247 l 1,36,37
EndSplineSet
EndChar

StartChar: germandbls
Encoding: 223 223 158
Width: 1216
GlyphClass: 2
Flags: W
LayerCount: 2
Fore
SplineSet
187 0 m 2,0,1
 142 0 142 0 142 45 c 2,2,-1
 142 1139 l 2,3,4
 142 1341 142 1341 272 1417 c 128,-1,5
 402 1493 402 1493 586 1493 c 0,6,7
 783 1493 783 1493 889.5 1399 c 128,-1,8
 996 1305 996 1305 996 1180 c 0,9,10
 996 1056 996 1056 937 971 c 128,-1,11
 878 886 878 886 741 801 c 1,12,-1
 741 798 l 1,13,14
 915 773 915 773 1015.5 655 c 128,-1,15
 1116 537 1116 537 1116 376 c 0,16,17
 1116 198 1116 198 1023 90.5 c 128,-1,18
 930 -17 930 -17 740 -17 c 0,19,20
 644 -17 644 -17 584 -3.5 c 128,-1,21
 524 10 524 10 472 48 c 0,22,23
 439 72 439 72 460 102 c 2,24,-1
 501 160 l 2,25,26
 522 189 522 189 566 158 c 0,27,28
 586 144 586 144 632 128.5 c 128,-1,29
 678 113 678 113 731 113 c 0,30,31
 822 113 822 113 876 182.5 c 128,-1,32
 930 252 930 252 930 382 c 0,33,34
 930 537 930 537 841 605 c 128,-1,35
 752 673 752 673 587 673 c 0,36,37
 575 673 575 673 567 698 c 2,38,-1
 532 806 l 2,39,40
 526 825 526 825 546 839 c 2,41,-1
 626 894 l 2,42,43
 706 949 706 949 763 1011.5 c 128,-1,44
 820 1074 820 1074 820 1173 c 0,45,46
 820 1264 820 1264 764 1313.5 c 128,-1,47
 708 1363 708 1363 596 1363 c 0,48,49
 483 1363 483 1363 400.5 1308.5 c 128,-1,50
 318 1254 318 1254 318 1110 c 2,51,-1
 318 45 l 2,52,53
 318 0 318 0 273 0 c 2,54,-1
 187 0 l 2,0,1
EndSplineSet
EndChar

StartChar: ae
Encoding: 230 230 165
Width: 1729
GlyphClass: 2
Flags: W
AnchorPoint: "Anchor-5" 862 1067 basechar 0
AnchorPoint: "Anchor-4" 862 0 basechar 0
LayerCount: 2
Fore
SplineSet
85 280 m 0,0,1
 85 458 85 458 249 541 c 128,-1,2
 413 624 413 624 739 638 c 1,3,-1
 739 706 l 2,4,5
 739 800 739 800 696.5 868.5 c 128,-1,6
 654 937 654 937 533 937 c 0,7,8
 441 937 441 937 373.5 909 c 128,-1,9
 306 881 306 881 247 815 c 0,10,11
 220 785 220 785 196 812 c 2,12,-1
 144 872 l 2,13,14
 122 897 122 897 159 932 c 0,15,16
 241 1010 241 1010 351 1038.5 c 128,-1,17
 461 1067 461 1067 533 1067 c 0,18,19
 634 1067 634 1067 718.5 1037 c 128,-1,20
 803 1007 803 1007 854 913 c 1,21,-1
 857 913 l 1,22,23
 936 1008 936 1008 1024.5 1037.5 c 128,-1,24
 1113 1067 1113 1067 1203 1067 c 0,25,26
 1389 1067 1389 1067 1514.5 932.5 c 128,-1,27
 1640 798 1640 798 1640 503 c 0,28,29
 1640 458 1640 458 1599 458 c 2,30,-1
 919 458 l 1,31,32
 935 265 935 265 1019.5 189.5 c 128,-1,33
 1104 114 1104 114 1211 114 c 0,34,35
 1323 114 1323 114 1383.5 153 c 128,-1,36
 1444 192 1444 192 1472 230 c 0,37,38
 1504 272 1504 272 1534 246 c 2,39,-1
 1593 195 l 2,40,41
 1616 175 1616 175 1593 140 c 0,42,43
 1574 111 1574 111 1485.5 47 c 128,-1,44
 1397 -17 1397 -17 1211 -17 c 0,45,46
 1085 -17 1085 -17 995 21 c 128,-1,47
 905 59 905 59 833 156 c 1,48,-1
 831 156 l 1,49,50
 718 60 718 60 620 21.5 c 128,-1,51
 522 -17 522 -17 421 -17 c 0,52,53
 262 -17 262 -17 173.5 61.5 c 128,-1,54
 85 140 85 140 85 280 c 0,0,1
267 286 m 0,55,56
 267 188 267 188 313.5 153 c 128,-1,57
 360 118 360 118 456 118 c 256,58,59
 552 118 552 118 619 142 c 128,-1,60
 686 166 686 166 759 233 c 1,61,62
 739 365 739 365 739 507 c 1,63,64
 398 481 398 481 332.5 417.5 c 128,-1,65
 267 354 267 354 267 286 c 0,55,56
915 588 m 1,66,-1
 1463 588 l 1,67,68
 1459 728 1459 728 1393 833.5 c 128,-1,69
 1327 939 1327 939 1199 939 c 0,70,71
 1087 939 1087 939 1008.5 861.5 c 128,-1,72
 930 784 930 784 915 588 c 1,66,-1
EndSplineSet
EndChar

StartChar: eth
Encoding: 240 240 175
Width: 1153
GlyphClass: 2
Flags: W
LayerCount: 2
Fore
SplineSet
85 517 m 0,0,1
 85 738 85 738 204.5 894 c 128,-1,2
 324 1050 324 1050 531 1050 c 0,3,4
 637 1050 637 1050 715 1018 c 128,-1,5
 793 986 793 986 839 938 c 1,6,-1
 848 938 l 1,7,8
 810 1040 810 1040 732.5 1127 c 128,-1,9
 655 1214 655 1214 615 1248 c 1,10,-1
 432 1155 l 2,11,12
 389 1133 389 1133 376 1166 c 2,13,-1
 358 1212 l 2,14,15
 345 1245 345 1245 382 1264 c 2,16,-1
 512 1330 l 1,17,18
 479 1350 479 1350 425 1374 c 1,19,20
 381 1395 381 1395 401 1426 c 2,21,-1
 431 1474 l 2,22,23
 449 1503 449 1503 499 1484 c 0,24,25
 596 1448 596 1448 654 1403 c 1,26,-1
 789 1472 l 2,27,28
 832 1494 832 1494 845 1461 c 2,29,-1
 863 1415 l 2,30,31
 876 1382 876 1382 839 1363 c 2,32,-1
 756 1320 l 1,33,34
 860 1232 860 1232 962 1030 c 128,-1,35
 1064 828 1064 828 1064 586 c 0,36,37
 1064 330 1064 330 946 156.5 c 128,-1,38
 828 -17 828 -17 574 -17 c 0,39,40
 334 -17 334 -17 209.5 140 c 128,-1,41
 85 297 85 297 85 517 c 0,0,1
271 517 m 0,42,43
 271 312 271 312 354 212.5 c 128,-1,44
 437 113 437 113 574 113 c 256,45,46
 711 113 711 113 794 215.5 c 128,-1,47
 877 318 877 318 877 517 c 0,48,49
 877 697 877 697 794 808.5 c 128,-1,50
 711 920 711 920 574 920 c 256,51,52
 437 920 437 920 354 818.5 c 128,-1,53
 271 717 271 717 271 517 c 0,42,43
EndSplineSet
EndChar

StartChar: oslash
Encoding: 248 248 183
Width: 1148
GlyphClass: 2
Flags: W
LayerCount: 2
Fore
SplineSet
85 525 m 0,0,1
 85 760 85 760 209.5 913.5 c 128,-1,2
 334 1067 334 1067 574 1067 c 0,3,4
 773 1067 773 1067 892 962 c 1,5,-1
 970 1045 l 2,6,7
 1001 1078 1001 1078 1027 1054 c 2,8,-1
 1071 1014 l 2,9,10
 1097 990 1097 990 1066 957 c 2,11,-1
 976 861 l 1,12,13
 1063 722 1063 722 1063 525 c 0,14,15
 1063 290 1063 290 938.5 136.5 c 128,-1,16
 814 -17 814 -17 574 -17 c 0,17,18
 375 -17 375 -17 256 88 c 1,19,-1
 178 5 l 2,20,21
 147 -28 147 -28 121 -4 c 2,22,-1
 77 36 l 2,23,24
 51 60 51 60 82 93 c 2,25,-1
 172 189 l 1,26,27
 85 329 85 329 85 525 c 0,0,1
271 525 m 0,28,29
 271 407 271 407 297 324 c 1,30,-1
 785 847 l 1,31,32
 704 937 704 937 574 937 c 0,33,34
 437 937 437 937 354 836 c 128,-1,35
 271 735 271 735 271 525 c 0,28,29
363 203 m 1,36,37
 444 113 444 113 574 113 c 0,38,39
 711 113 711 113 794 214 c 128,-1,40
 877 315 877 315 877 525 c 0,41,42
 877 642 877 642 851 726 c 1,43,-1
 363 203 l 1,36,37
EndSplineSet
EndChar

StartChar: thorn
Encoding: 254 254 189
Width: 1119
GlyphClass: 2
Flags: W
LayerCount: 2
Fore
SplineSet
187 -400 m 2,0,1
 142 -400 142 -400 142 -355 c 2,2,-1
 142 1431 l 2,3,4
 142 1476 142 1476 187 1476 c 2,5,-1
 273 1476 l 2,6,7
 318 1476 318 1476 318 1431 c 2,8,-1
 318 986 l 2,9,10
 318 955 318 955 316 925 c 1,11,-1
 318 925 l 1,12,13
 373 991 373 991 442 1029 c 128,-1,14
 511 1067 511 1067 626 1067 c 0,15,16
 826 1067 826 1067 930 903.5 c 128,-1,17
 1034 740 1034 740 1034 525 c 256,18,19
 1034 310 1034 310 930 146.5 c 128,-1,20
 826 -17 826 -17 626 -17 c 0,21,22
 511 -17 511 -17 442 21 c 128,-1,23
 373 59 373 59 318 125 c 1,24,-1
 316 125 l 1,25,26
 318 95 318 95 318 64 c 2,27,-1
 318 -355 l 2,28,29
 318 -400 318 -400 273 -400 c 2,30,-1
 187 -400 l 2,0,1
318 410 m 2,31,32
 318 260 318 260 389.5 186.5 c 128,-1,33
 461 113 461 113 569 113 c 0,34,35
 721 113 721 113 784.5 227 c 128,-1,36
 848 341 848 341 848 525 c 256,37,38
 848 709 848 709 784.5 823 c 128,-1,39
 721 937 721 937 569 937 c 0,40,41
 461 937 461 937 389.5 863.5 c 128,-1,42
 318 790 318 790 318 640 c 2,43,-1
 318 410 l 2,31,32
EndSplineSet
EndChar

StartChar: Aogonek
Encoding: 260 260 195
Width: 1360
GlyphClass: 3
Flags: W
AnchorPoint: "Anchor-5" 680 1464 basechar 0
LayerCount: 2
Fore
SplineSet
73 0 m 2,0,1
 21 0 21 0 46 66 c 2,2,-1
 544 1373 l 2,3,4
 567 1434 567 1434 610 1434 c 2,5,-1
 750 1434 l 2,6,7
 793 1434 793 1434 816 1373 c 2,8,-1
 1314 66 l 2,9,10
 1333 15 1333 15 1305 0 c 0,11,12
 1247 -32 1247 -32 1180 -92 c 128,-1,13
 1113 -152 1113 -152 1113 -211 c 0,14,15
 1113 -287 1113 -287 1194 -287 c 0,16,17
 1244 -287 1244 -287 1274 -280 c 0,18,19
 1295 -275 1295 -275 1299 -299 c 2,20,-1
 1312 -378 l 2,21,22
 1316 -402 1316 -402 1294 -406 c 0,23,24
 1229 -417 1229 -417 1171 -417 c 0,25,26
 1055 -417 1055 -417 1004 -366.5 c 128,-1,27
 953 -316 953 -316 953 -255 c 0,28,29
 953 -193 953 -193 975.5 -152 c 128,-1,30
 998 -111 998 -111 1027.5 -84 c 128,-1,31
 1057 -57 1057 -57 1111 -16 c 0,32,33
 1132 0 1132 0 1113 49 c 2,34,-1
 988 380 l 1,35,-1
 372 380 l 1,36,-1
 247 49 l 2,37,38
 228 0 228 0 175 0 c 2,39,-1
 73 0 l 2,0,1
435 544 m 1,40,-1
 925 544 l 1,41,-1
 772 944 l 1,42,43
 725 1070 725 1070 682 1261 c 1,44,-1
 678 1261 l 1,45,46
 635 1070 635 1070 588 944 c 1,47,-1
 435 544 l 1,40,-1
EndSplineSet
Ligature2: "'liga' Standard Ligatures in Latin lookup 2 subtable" A uni0328
EndChar

StartChar: aogonek
Encoding: 261 261 196
Width: 1067
GlyphClass: 2
Flags: W
AnchorPoint: "Anchor-5" 538 1067 basechar 0
LayerCount: 2
Fore
SplineSet
85 280 m 0,0,1
 85 458 85 458 251.5 541 c 128,-1,2
 418 624 418 624 749 638 c 1,3,-1
 749 706 l 2,4,5
 749 800 749 800 706.5 868.5 c 128,-1,6
 664 937 664 937 538 937 c 0,7,8
 442 937 442 937 374 909 c 0,9,10
 307 881 307 881 247 815 c 0,11,12
 220 785 220 785 196 812 c 2,13,-1
 144 872 l 2,14,15
 122 897 122 897 159 932 c 0,16,17
 241 1010 241 1010 351 1038 c 128,-1,18
 461 1066 461 1066 538 1067 c 1,19,20
 747 1067 747 1067 836 959.5 c 128,-1,21
 925 852 925 852 925 665 c 2,22,-1
 925 45 l 2,23,24
 925 15 925 15 908 0 c 1,25,26
 813 -69 813 -69 768.5 -115 c 128,-1,27
 724 -161 724 -161 724 -211 c 0,28,29
 724 -251 724 -251 747.5 -269 c 128,-1,30
 771 -287 771 -287 805 -287 c 0,31,32
 855 -287 855 -287 885 -280 c 0,33,34
 906 -275 906 -275 910 -299 c 2,35,-1
 923 -378 l 2,36,37
 927 -402 927 -402 905 -406 c 0,38,39
 840 -417 840 -417 782 -417 c 0,40,41
 666 -417 666 -417 615 -366.5 c 128,-1,42
 564 -316 564 -316 564 -255 c 0,43,44
 564 -202 564 -202 585.5 -157.5 c 128,-1,45
 607 -113 607 -113 644 -79 c 128,-1,46
 681 -45 681 -45 735 -6 c 1,47,48
 751 7 751 7 751 45 c 2,49,-1
 751 94 l 1,50,-1
 749 94 l 1,51,52
 670 32 670 32 594.5 7.5 c 128,-1,53
 519 -17 519 -17 426 -17 c 0,54,55
 262 -17 262 -17 173.5 61.5 c 128,-1,56
 85 140 85 140 85 280 c 0,0,1
267 286 m 0,57,58
 267 188 267 188 313.5 153 c 128,-1,59
 360 118 360 118 461 118 c 0,60,61
 538 118 538 118 607 133 c 128,-1,62
 676 148 676 148 749 212 c 1,63,-1
 749 507 l 1,64,65
 408 481 408 481 337.5 417.5 c 128,-1,66
 267 354 267 354 267 286 c 0,57,58
EndSplineSet
EndChar

StartChar: dcroat
Encoding: 273 273 208
Width: 1156
GlyphClass: 2
Flags: W
LayerCount: 2
Fore
SplineSet
85 525 m 256,0,1
 85 740 85 740 189 903.5 c 128,-1,2
 293 1067 293 1067 493 1067 c 0,3,4
 608 1067 608 1067 677 1029 c 128,-1,5
 746 991 746 991 801 925 c 1,6,-1
 803 925 l 1,7,8
 801 955 801 955 801 986 c 2,9,-1
 801 1208 l 1,10,-1
 493 1208 l 2,11,12
 448 1208 448 1208 448 1243 c 2,13,-1
 448 1305 l 2,14,15
 448 1340 448 1340 493 1340 c 2,16,-1
 801 1340 l 1,17,-1
 801 1431 l 2,18,19
 801 1476 801 1476 846 1476 c 2,20,-1
 932 1476 l 2,21,22
 977 1476 977 1476 977 1431 c 2,23,-1
 977 1340 l 1,24,-1
 1091 1340 l 2,25,26
 1136 1340 1136 1340 1136 1305 c 2,27,-1
 1136 1243 l 2,28,29
 1136 1208 1136 1208 1091 1208 c 2,30,-1
 977 1208 l 1,31,-1
 977 45 l 2,32,33
 977 0 977 0 932 0 c 2,34,-1
 848 0 l 2,35,36
 812 0 812 0 809 45 c 2,37,-1
 803 125 l 1,38,-1
 801 125 l 1,39,40
 746 59 746 59 677 21 c 128,-1,41
 608 -17 608 -17 493 -17 c 0,42,43
 293 -17 293 -17 189 146.5 c 128,-1,44
 85 310 85 310 85 525 c 256,0,1
271 525 m 256,45,46
 271 341 271 341 334.5 227 c 128,-1,47
 398 113 398 113 550 113 c 0,48,49
 658 113 658 113 729.5 186.5 c 128,-1,50
 801 260 801 260 801 410 c 2,51,-1
 801 640 l 2,52,53
 801 790 801 790 729.5 863.5 c 128,-1,54
 658 937 658 937 550 937 c 0,55,56
 398 937 398 937 334.5 823 c 128,-1,57
 271 709 271 709 271 525 c 256,45,46
EndSplineSet
EndChar

StartChar: Eogonek
Encoding: 280 280 215
Width: 1270
GlyphClass: 2
Flags: W
AnchorPoint: "Anchor-5" 658 1464 basechar 0
LayerCount: 2
Fore
SplineSet
220 0 m 2,0,1
 170 0 170 0 170 55 c 2,2,-1
 170 1379 l 2,3,4
 170 1434 170 1434 220 1434 c 2,5,-1
 1095 1434 l 2,6,7
 1150 1434 1150 1434 1150 1389 c 2,8,-1
 1150 1315 l 2,9,10
 1150 1270 1150 1270 1095 1270 c 2,11,-1
 362 1270 l 1,12,-1
 362 826 l 1,13,-1
 1035 826 l 2,14,15
 1090 826 1090 826 1090 781 c 2,16,-1
 1090 707 l 2,17,18
 1090 662 1090 662 1035 662 c 2,19,-1
 362 662 l 1,20,-1
 362 164 l 1,21,-1
 1125 164 l 2,22,23
 1180 164 1180 164 1180 119 c 2,24,-1
 1180 45 l 2,25,26
 1180 0 1180 0 1125 0 c 2,27,-1
 1118 0 l 1,28,29
 1088 -10 1088 -10 1006 -79 c 128,-1,30
 924 -148 924 -148 924 -211 c 0,31,32
 924 -251 924 -251 947.5 -269 c 128,-1,33
 971 -287 971 -287 1005 -287 c 0,34,35
 1055 -287 1055 -287 1085 -280 c 0,36,37
 1106 -275 1106 -275 1110 -299 c 2,38,-1
 1123 -378 l 2,39,40
 1127 -402 1127 -402 1105 -406 c 0,41,42
 1040 -417 1040 -417 982 -417 c 0,43,44
 866 -417 866 -417 815 -366.5 c 128,-1,45
 764 -316 764 -316 764 -255 c 0,46,47
 764 -202 764 -202 785.5 -157.5 c 128,-1,48
 807 -113 807 -113 845.5 -77 c 128,-1,49
 884 -41 884 -41 938 -2 c 1,50,-1
 938 2 l 1,51,52
 898 0 898 0 858 0 c 2,53,-1
 220 0 l 2,0,1
EndSplineSet
EndChar

StartChar: eogonek
Encoding: 281 281 216
Width: 1098
GlyphClass: 2
Flags: W
AnchorPoint: "Anchor-5" 564 1067 basechar 0
LayerCount: 2
Fore
SplineSet
85 525 m 256,0,1
 85 773 85 773 209 920 c 128,-1,2
 333 1067 333 1067 564 1067 c 0,3,4
 756 1067 756 1067 882.5 932.5 c 128,-1,5
 1009 798 1009 798 1009 503 c 0,6,7
 1009 458 1009 458 968 458 c 2,8,-1
 271 458 l 1,9,10
 288 265 288 265 375 189.5 c 128,-1,11
 462 114 462 114 572 114 c 0,12,13
 688 114 688 114 750 153 c 128,-1,14
 812 192 812 192 841 230 c 0,15,16
 873 272 873 272 903 246 c 2,17,-1
 962 195 l 2,18,19
 989 172 989 172 962 140 c 0,20,21
 931 103 931 103 899.5 79.5 c 128,-1,22
 868 56 868 56 826 29 c 1,23,24
 769 -24 769 -24 696 -89.5 c 128,-1,25
 623 -155 623 -155 623 -211 c 0,26,27
 623 -251 623 -251 646.5 -269 c 128,-1,28
 670 -287 670 -287 704 -287 c 0,29,30
 754 -287 754 -287 784 -280 c 0,31,32
 805 -275 805 -275 809 -299 c 2,33,-1
 822 -378 l 2,34,35
 826 -402 826 -402 804 -406 c 0,36,37
 739 -417 739 -417 681 -417 c 0,38,39
 565 -417 565 -417 514 -366.5 c 128,-1,40
 463 -316 463 -316 463 -255 c 0,41,42
 463 -202 463 -202 484.5 -157.5 c 128,-1,43
 506 -113 506 -113 536 -85 c 128,-1,44
 566 -57 566 -57 620 -17 c 1,45,-1
 620 -15 l 1,46,47
 596 -17 596 -17 572 -17 c 0,48,49
 322 -17 322 -17 203.5 130 c 128,-1,50
 85 277 85 277 85 525 c 256,0,1
267 588 m 1,51,-1
 832 588 l 1,52,53
 828 728 828 728 760 833.5 c 128,-1,54
 692 939 692 939 560 939 c 0,55,56
 444 939 444 939 363 861.5 c 128,-1,57
 282 784 282 784 267 588 c 1,51,-1
EndSplineSet
EndChar

StartChar: hbar
Encoding: 295 295 227
Width: 1198
GlyphClass: 2
Flags: W
LayerCount: 2
Fore
SplineSet
75 1208 m 2,0,1
 30 1208 30 1208 30 1243 c 2,2,-1
 30 1305 l 2,3,4
 30 1340 30 1340 75 1340 c 2,5,-1
 212 1340 l 1,6,-1
 212 1431 l 2,7,8
 212 1476 212 1476 257 1476 c 2,9,-1
 343 1476 l 2,10,11
 388 1476 388 1476 388 1431 c 2,12,-1
 388 1340 l 1,13,-1
 751 1340 l 2,14,15
 796 1340 796 1340 796 1305 c 2,16,-1
 796 1243 l 2,17,18
 796 1208 796 1208 751 1208 c 2,19,-1
 388 1208 l 1,20,-1
 388 985 l 2,21,22
 388 955 388 955 386 925 c 1,23,-1
 390 925 l 1,24,25
 455 997 455 997 530 1032 c 128,-1,26
 605 1067 605 1067 717 1067 c 0,27,28
 899 1067 899 1067 978.5 964.5 c 128,-1,29
 1058 862 1058 862 1058 684 c 2,30,-1
 1058 45 l 2,31,32
 1058 0 1058 0 1013 0 c 2,33,-1
 927 0 l 2,34,35
 882 0 882 0 882 45 c 2,36,-1
 882 636 l 2,37,38
 882 832 882 832 817 884.5 c 128,-1,39
 752 937 752 937 652 937 c 0,40,41
 522 937 522 937 455 859.5 c 128,-1,42
 388 782 388 782 388 594 c 2,43,-1
 388 45 l 2,44,45
 388 0 388 0 343 0 c 2,46,-1
 257 0 l 2,47,48
 212 0 212 0 212 45 c 2,49,-1
 212 1208 l 1,50,-1
 75 1208 l 2,0,1
EndSplineSet
EndChar

StartChar: dotlessi
Encoding: 305 305 235
Width: 460
GlyphClass: 2
Flags: W
AnchorPoint: "Anchor-5" 230 1067 basechar 0
AnchorPoint: "Anchor-4" 230 0 basechar 0
LayerCount: 2
Fore
SplineSet
187 0 m 2,0,1
 142 0 142 0 142 45 c 2,2,-1
 142 1005 l 2,3,4
 142 1050 142 1050 187 1050 c 2,5,-1
 273 1050 l 2,6,7
 318 1050 318 1050 318 1005 c 2,8,-1
 318 45 l 2,9,10
 318 0 318 0 273 0 c 2,11,-1
 187 0 l 2,0,1
EndSplineSet
EndChar

StartChar: Lslash
Encoding: 321 321 242
Width: 1241
GlyphClass: 2
Flags: W
LayerCount: 2
Fore
SplineSet
115 448 m 2,0,1
 60 411 60 411 60 463 c 2,2,-1
 60 577 l 2,3,4
 60 616 60 616 95 640 c 2,5,-1
 275 761 l 1,6,-1
 275 1379 l 2,7,8
 275 1434 275 1434 325 1434 c 2,9,-1
 417 1434 l 2,10,11
 467 1434 467 1434 467 1379 c 2,12,-1
 467 973 l 2,13,14
 467 933 467 933 465 893 c 1,15,-1
 469 893 l 1,16,-1
 737 1074 l 2,17,18
 792 1111 792 1111 792 1059 c 2,19,-1
 792 945 l 2,20,21
 792 906 792 906 757 882 c 2,22,-1
 467 687 l 1,23,-1
 467 164 l 1,24,-1
 1130 164 l 2,25,26
 1185 164 1185 164 1185 119 c 2,27,-1
 1185 45 l 2,28,29
 1185 0 1185 0 1130 0 c 2,30,-1
 325 0 l 2,31,32
 275 0 275 0 275 55 c 2,33,-1
 275 475 l 2,34,35
 275 515 275 515 277 555 c 1,36,-1
 273 555 l 1,37,-1
 115 448 l 2,0,1
EndSplineSet
EndChar

StartChar: lslash
Encoding: 322 322 243
Width: 660
GlyphClass: 2
Flags: W
AnchorPoint: "Anchor-5" 229 1476 basechar 0
LayerCount: 2
Fore
SplineSet
85 514 m 2,0,1
 40 481 40 481 40 525 c 2,2,-1
 40 623 l 2,3,4
 40 660 40 660 73 684 c 2,5,-1
 242 807 l 1,6,-1
 242 1293 l 2,7,8
 242 1313 242 1313 252 1331 c 2,9,-1
 322 1458 l 2,10,11
 341 1493 341 1493 353 1493 c 2,12,-1
 388 1493 l 1,13,14
 418 1491 418 1491 418 1458 c 2,15,-1
 418 1002 l 2,16,17
 418 972 418 972 416 942 c 1,18,-1
 418 942 l 1,19,-1
 575 1057 l 2,20,21
 620 1090 620 1090 620 1045 c 2,22,-1
 620 947 l 2,23,24
 620 911 620 911 587 887 c 2,25,-1
 418 764 l 1,26,-1
 418 45 l 2,27,28
 418 0 418 0 373 0 c 2,29,-1
 287 0 l 2,30,31
 242 0 242 0 242 45 c 2,32,-1
 242 569 l 2,33,34
 242 599 242 599 244 629 c 1,35,-1
 242 629 l 1,36,-1
 85 514 l 2,0,1
EndSplineSet
EndChar

StartChar: eng
Encoding: 331 331 248
Width: 1128
GlyphClass: 2
Flags: W
AnchorPoint: "Anchor-5" 565 1067 basechar 0
AnchorPoint: "Anchor-4" 565 -400 basechar 0
AnchorPoint: "Anchor-3" 1128 1476 basechar 0
AnchorPoint: "Anchor-2" 1128 -400 basechar 0
LayerCount: 2
Fore
SplineSet
187 0 m 2,0,1
 142 0 142 0 142 45 c 2,2,-1
 142 1005 l 2,3,4
 142 1050 142 1050 187 1050 c 2,5,-1
 271 1050 l 2,6,7
 316 1050 316 1050 316 1005 c 2,8,-1
 316 925 l 1,9,-1
 320 925 l 1,10,11
 385 997 385 997 460 1032 c 128,-1,12
 535 1067 535 1067 647 1067 c 0,13,14
 829 1067 829 1067 908.5 964.5 c 128,-1,15
 988 862 988 862 988 684 c 2,16,-1
 988 -93 l 2,17,18
 988 -287 988 -287 914.5 -352 c 128,-1,19
 841 -417 841 -417 732 -417 c 0,20,21
 626 -417 626 -417 580 -397 c 0,22,23
 558 -387 558 -387 562 -365 c 2,24,-1
 579 -284 l 2,25,26
 584 -260 584 -260 604 -269 c 0,27,28
 643 -287 643 -287 700 -287 c 0,29,30
 759 -287 759 -287 785.5 -229 c 128,-1,31
 812 -171 812 -171 812 6 c 2,32,-1
 812 636 l 2,33,34
 812 832 812 832 747 884.5 c 128,-1,35
 682 937 682 937 582 937 c 0,36,37
 452 937 452 937 385 859.5 c 128,-1,38
 318 782 318 782 318 594 c 2,39,-1
 318 45 l 2,40,41
 318 0 318 0 273 0 c 2,42,-1
 187 0 l 2,0,1
EndSplineSet
EndChar

StartChar: OE
Encoding: 338 338 255
Width: 2013
GlyphClass: 2
Flags: W
AnchorPoint: "Anchor-5" 1049 1464 basechar 0
LayerCount: 2
Fore
SplineSet
92 719 m 256,0,1
 92 1069 92 1069 259.5 1266.5 c 128,-1,2
 427 1464 427 1464 720 1464 c 0,3,4
 805 1464 805 1464 891.5 1449 c 128,-1,5
 978 1434 978 1434 1063 1434 c 2,6,-1
 1838 1434 l 2,7,8
 1893 1434 1893 1434 1893 1389 c 2,9,-1
 1893 1315 l 2,10,11
 1893 1270 1893 1270 1838 1270 c 2,12,-1
 1145 1270 l 1,13,-1
 1145 826 l 1,14,-1
 1778 826 l 2,15,16
 1833 826 1833 826 1833 781 c 2,17,-1
 1833 707 l 2,18,19
 1833 662 1833 662 1778 662 c 2,20,-1
 1145 662 l 1,21,-1
 1145 164 l 1,22,-1
 1868 164 l 2,23,24
 1923 164 1923 164 1923 119 c 2,25,-1
 1923 45 l 2,26,27
 1923 0 1923 0 1868 0 c 2,28,-1
 1063 0 l 2,29,30
 978 0 978 0 891.5 -15 c 128,-1,31
 805 -30 805 -30 720 -30 c 0,32,33
 427 -30 427 -30 259.5 169.5 c 128,-1,34
 92 369 92 369 92 719 c 256,0,1
297 717 m 256,35,36
 297 437 297 437 402.5 281.5 c 128,-1,37
 508 126 508 126 720 126 c 0,38,39
 840 126 840 126 953 164 c 1,40,-1
 953 1270 l 1,41,42
 840 1308 840 1308 720 1308 c 0,43,44
 508 1308 508 1308 402.5 1152.5 c 128,-1,45
 297 997 297 997 297 717 c 256,35,36
EndSplineSet
EndChar

StartChar: oe
Encoding: 339 339 256
Width: 1890
GlyphClass: 2
Flags: W
AnchorPoint: "Anchor-5" 955 1067 basechar 0
AnchorPoint: "Anchor-4" 943 0 basechar 0
LayerCount: 2
Fore
SplineSet
85 525 m 256,0,1
 85 760 85 760 209.5 913.5 c 128,-1,2
 334 1067 334 1067 574 1067 c 0,3,4
 720 1067 720 1067 817.5 1013 c 128,-1,5
 915 959 915 959 967 874 c 1,6,-1
 968 874 l 1,7,8
 1018 958 1018 958 1113 1012.5 c 128,-1,9
 1208 1067 1208 1067 1356 1067 c 0,10,11
 1548 1067 1548 1067 1674.5 932.5 c 128,-1,12
 1801 798 1801 798 1801 503 c 0,13,14
 1801 458 1801 458 1760 458 c 2,15,-1
 1063 458 l 1,16,17
 1080 265 1080 265 1167 189.5 c 128,-1,18
 1254 114 1254 114 1364 114 c 0,19,20
 1480 114 1480 114 1542 153 c 128,-1,21
 1604 192 1604 192 1633 230 c 0,22,23
 1665 272 1665 272 1695 246 c 2,24,-1
 1754 195 l 2,25,26
 1777 175 1777 175 1754 140 c 0,27,28
 1735 111 1735 111 1645.5 47 c 128,-1,29
 1556 -17 1556 -17 1364 -17 c 0,30,31
 1216 -17 1216 -17 1116 33.5 c 128,-1,32
 1016 84 1016 84 966 173 c 1,33,-1
 964 173 l 1,34,35
 912 88 912 88 816 35.5 c 128,-1,36
 720 -17 720 -17 574 -17 c 0,37,38
 334 -17 334 -17 209.5 136.5 c 128,-1,39
 85 290 85 290 85 525 c 256,0,1
271 525 m 256,40,41
 271 315 271 315 354 214 c 128,-1,42
 437 113 437 113 574 113 c 256,43,44
 711 113 711 113 794 214 c 128,-1,45
 877 315 877 315 877 525 c 256,46,47
 877 735 877 735 794 836 c 128,-1,48
 711 937 711 937 574 937 c 256,49,50
 437 937 437 937 354 836 c 128,-1,51
 271 735 271 735 271 525 c 256,40,41
1059 588 m 1,52,-1
 1624 588 l 1,53,54
 1620 728 1620 728 1552 833.5 c 128,-1,55
 1484 939 1484 939 1352 939 c 0,56,57
 1236 939 1236 939 1155 861.5 c 128,-1,58
 1074 784 1074 784 1059 588 c 1,52,-1
EndSplineSet
EndChar

StartChar: longs
Encoding: 383 383 290
Width: 580
GlyphClass: 2
Flags: W
AnchorPoint: "Anchor-5" 452 1476 basechar 0
AnchorPoint: "Anchor-4" 230 0 basechar 0
LayerCount: 2
Fore
SplineSet
187 0 m 2,0,1
 142 0 142 0 142 45 c 2,2,-1
 142 1199 l 2,3,4
 142 1366 142 1366 235.5 1429.5 c 128,-1,5
 329 1493 329 1493 452 1493 c 0,6,7
 512 1493 512 1493 548.5 1484.5 c 128,-1,8
 585 1476 585 1476 633 1452 c 0,9,10
 655 1441 655 1441 646 1420 c 2,11,-1
 613 1346 l 2,12,13
 600 1317 600 1317 578 1332 c 0,14,15
 560 1345 560 1345 534.5 1354 c 128,-1,16
 509 1363 509 1363 469 1363 c 0,17,18
 407 1363 407 1363 362.5 1323 c 128,-1,19
 318 1283 318 1283 318 1170 c 2,20,-1
 318 45 l 2,21,22
 318 0 318 0 273 0 c 2,23,-1
 187 0 l 2,0,1
EndSplineSet
EndChar

StartChar: uni0186
Encoding: 390 390 291
Width: 1402
GlyphClass: 2
Flags: W
AnchorPoint: "Anchor-5" 638 1464 basechar 0
LayerCount: 2
Fore
SplineSet
111 1196 m 0,0,1
 170 1311 170 1311 303 1387.5 c 128,-1,2
 436 1464 436 1464 638 1464 c 0,3,4
 963 1464 963 1464 1136.5 1265.5 c 128,-1,5
 1310 1067 1310 1067 1310 717 c 256,6,7
 1310 367 1310 367 1136.5 168.5 c 128,-1,8
 963 -30 963 -30 638 -30 c 0,9,10
 448 -30 448 -30 324 34.5 c 128,-1,11
 200 99 200 99 146 211 c 0,12,13
 118 269 118 269 155 291 c 2,14,-1
 234 337 l 2,15,16
 274 360 274 360 305 299 c 0,17,18
 338 236 338 236 413 181 c 128,-1,19
 488 126 488 126 628 126 c 0,20,21
 878 126 878 126 991.5 281.5 c 128,-1,22
 1105 437 1105 437 1105 717 c 256,23,24
 1105 997 1105 997 991.5 1152.5 c 128,-1,25
 878 1308 878 1308 628 1308 c 0,26,27
 484 1308 484 1308 397.5 1242 c 128,-1,28
 311 1176 311 1176 272 1104 c 0,29,30
 241 1046 241 1046 200 1069 c 2,31,-1
 117 1116 l 2,32,33
 81 1137 81 1137 111 1196 c 0,0,1
EndSplineSet
EndChar

StartChar: uni018E
Encoding: 398 398 293
Width: 1270
GlyphClass: 2
Flags: W
LayerCount: 2
Fore
SplineSet
90 45 m 2,0,-1
 90 119 l 2,1,2
 90 164 90 164 145 164 c 2,3,-1
 908 164 l 1,4,-1
 908 662 l 1,5,-1
 235 662 l 2,6,7
 180 662 180 662 180 707 c 2,8,-1
 180 781 l 2,9,10
 180 826 180 826 235 826 c 2,11,-1
 908 826 l 1,12,-1
 908 1270 l 1,13,-1
 175 1270 l 2,14,15
 120 1270 120 1270 120 1315 c 2,16,-1
 120 1389 l 2,17,18
 120 1434 120 1434 175 1434 c 2,19,-1
 1050 1434 l 2,20,21
 1100 1434 1100 1434 1100 1379 c 2,22,-1
 1100 55 l 2,23,24
 1100 0 1100 0 1050 0 c 2,25,-1
 145 0 l 2,26,27
 90 0 90 0 90 45 c 2,0,-1
EndSplineSet
EndChar

StartChar: uni0197
Encoding: 407 407 295
Width: 702
GlyphClass: 2
Flags: W
LayerCount: 2
Fore
SplineSet
305 0 m 2,0,1
 255 0 255 0 255 55 c 2,2,-1
 255 644 l 1,3,-1
 105 644 l 2,4,5
 50 644 50 644 50 689 c 2,6,-1
 50 763 l 2,7,8
 50 808 50 808 105 808 c 2,9,-1
 255 808 l 1,10,-1
 255 1379 l 2,11,12
 255 1434 255 1434 305 1434 c 2,13,-1
 397 1434 l 2,14,15
 447 1434 447 1434 447 1379 c 2,16,-1
 447 808 l 1,17,-1
 597 808 l 2,18,19
 652 808 652 808 652 763 c 2,20,-1
 652 689 l 2,21,22
 652 644 652 644 597 644 c 2,23,-1
 447 644 l 1,24,-1
 447 55 l 2,25,26
 447 0 447 0 397 0 c 2,27,-1
 305 0 l 2,0,1
EndSplineSet
EndChar

StartChar: uni01A7
Encoding: 423 423 297
Width: 1224
GlyphClass: 2
Flags: W
LayerCount: 2
Fore
SplineSet
108 376 m 0,0,1
 108 454 108 454 130.5 516.5 c 128,-1,2
 153 579 153 579 193.5 632.5 c 128,-1,3
 234 686 234 686 326 735 c 0,4,5
 425 788 425 788 557.5 824.5 c 128,-1,6
 690 861 690 861 753 888 c 0,7,8
 800 908 800 908 833 945 c 128,-1,9
 866 982 866 982 874 1017.5 c 128,-1,10
 882 1053 882 1053 882 1095 c 0,11,12
 882 1162 882 1162 847 1213 c 128,-1,13
 812 1264 812 1264 751 1285.5 c 128,-1,14
 690 1307 690 1307 598 1307 c 0,15,16
 526 1307 526 1307 452.5 1275.5 c 128,-1,17
 379 1244 379 1244 328 1208 c 0,18,19
 261 1161 261 1161 238 1194 c 2,20,-1
 187 1267 l 2,21,22
 159 1308 159 1308 211 1345 c 0,23,24
 285 1398 285 1398 379 1431 c 128,-1,25
 473 1464 473 1464 600 1464 c 0,26,27
 711 1464 711 1464 818.5 1434 c 128,-1,28
 926 1404 926 1404 1000 1312 c 128,-1,29
 1074 1220 1074 1220 1074 1093 c 0,30,31
 1074 1010 1074 1010 1056.5 945.5 c 128,-1,32
 1039 881 1039 881 985.5 820 c 128,-1,33
 932 759 932 759 842 716 c 0,34,35
 751 673 751 673 629.5 636 c 128,-1,36
 508 599 508 599 447 571 c 0,37,38
 410 554 410 554 376 524 c 128,-1,39
 342 494 342 494 326.5 449.5 c 128,-1,40
 311 405 311 405 311 353 c 0,41,42
 311 281 311 281 348.5 230.5 c 128,-1,43
 386 180 386 180 448 153 c 128,-1,44
 510 126 510 126 600 126 c 0,45,46
 722 126 722 126 807.5 164 c 128,-1,47
 893 202 893 202 972 261 c 0,48,49
 1032 306 1032 306 1059 267 c 2,50,-1
 1111 192 l 2,51,52
 1136 156 1136 156 1083 108 c 0,53,54
 1024 54 1024 54 905 12 c 128,-1,55
 786 -30 786 -30 605 -30 c 0,56,57
 454 -30 454 -30 354 7 c 128,-1,58
 254 44 254 44 181 139 c 128,-1,59
 108 234 108 234 108 376 c 0,0,1
EndSplineSet
EndChar

StartChar: uni01A8
Encoding: 424 424 298
Width: 944
GlyphClass: 2
Flags: W
LayerCount: 2
Fore
SplineSet
75 287 m 0,0,1
 75 345 75 345 90 392.5 c 128,-1,2
 105 440 105 440 144.5 481 c 128,-1,3
 184 522 184 522 257 556 c 0,4,5
 313 582 313 582 382.5 600 c 128,-1,6
 452 618 452 618 536 640 c 0,7,8
 590 654 590 654 620 677 c 128,-1,9
 650 700 650 700 661 727.5 c 128,-1,10
 672 755 672 755 672 790 c 0,11,12
 672 836 672 836 644 870 c 128,-1,13
 616 904 616 904 571 918 c 128,-1,14
 526 932 526 932 463 932 c 0,15,16
 412 932 412 932 344 909 c 128,-1,17
 276 886 276 886 239 860 c 0,18,19
 195 829 195 829 174 858 c 2,20,-1
 129 918 l 2,21,22
 106 948 106 948 138 971 c 0,23,24
 193 1010 193 1010 268.5 1038.5 c 128,-1,25
 344 1067 344 1067 468 1067 c 0,26,27
 552 1067 552 1067 641 1041.5 c 128,-1,28
 730 1016 730 1016 789 946 c 128,-1,29
 848 876 848 876 848 779 c 0,30,31
 848 684 848 684 811.5 630 c 128,-1,32
 775 576 775 576 726 544.5 c 128,-1,33
 677 513 677 513 622 496 c 0,34,35
 540 470 540 470 489.5 457.5 c 128,-1,36
 439 445 439 445 388 426 c 0,37,38
 357 415 357 415 324.5 395.5 c 128,-1,39
 292 376 292 376 276.5 344 c 128,-1,40
 261 312 261 312 261 276 c 0,41,42
 261 214 261 214 293.5 177 c 128,-1,43
 326 140 326 140 369 126.5 c 128,-1,44
 412 113 412 113 467 113 c 0,45,46
 560 113 560 113 632.5 140 c 128,-1,47
 705 167 705 167 764 212 c 0,48,49
 807 245 807 245 829 215 c 2,50,-1
 874 152 l 2,51,52
 892 127 892 127 861 98 c 0,53,54
 830 68 830 68 723.5 25.5 c 128,-1,55
 617 -17 617 -17 468 -17 c 0,56,57
 358 -17 358 -17 280 7.5 c 128,-1,58
 202 32 202 32 138.5 106 c 128,-1,59
 75 180 75 180 75 287 c 0,0,1
EndSplineSet
EndChar

StartChar: uni0237
Encoding: 567 567 359
Width: 466
GlyphClass: 2
Flags: W
AnchorPoint: "Anchor-5" 236 1067 basechar 0
AnchorPoint: "Anchor-4" 136 -400 basechar 0
LayerCount: 2
Fore
SplineSet
-84 -397 m 0,0,1
 -106 -387 -106 -387 -102 -365 c 2,2,-1
 -85 -284 l 2,3,4
 -80 -260 -80 -260 -60 -269 c 0,5,6
 -21 -287 -21 -287 36 -287 c 0,7,8
 95 -287 95 -287 121.5 -229 c 128,-1,9
 148 -171 148 -171 148 6 c 2,10,-1
 148 1005 l 2,11,12
 148 1050 148 1050 193 1050 c 2,13,-1
 279 1050 l 2,14,15
 324 1050 324 1050 324 1005 c 2,16,-1
 324 -93 l 2,17,18
 324 -287 324 -287 250.5 -352 c 128,-1,19
 177 -417 177 -417 68 -417 c 0,20,21
 -38 -417 -38 -417 -84 -397 c 0,0,1
EndSplineSet
EndChar

StartChar: uni0244
Encoding: 580 580 360
Width: 1572
GlyphClass: 2
Flags: W
LayerCount: 2
Fore
SplineSet
105 644 m 2,0,1
 50 644 50 644 50 689 c 2,2,-1
 50 763 l 2,3,4
 50 808 50 808 105 808 c 2,5,-1
 255 808 l 1,6,-1
 255 1379 l 2,7,8
 255 1434 255 1434 305 1434 c 2,9,-1
 397 1434 l 2,10,11
 447 1434 447 1434 447 1379 c 2,12,-1
 447 808 l 1,13,-1
 1125 808 l 1,14,-1
 1125 1379 l 2,15,16
 1125 1434 1125 1434 1175 1434 c 2,17,-1
 1267 1434 l 2,18,19
 1317 1434 1317 1434 1317 1379 c 2,20,-1
 1317 808 l 1,21,-1
 1467 808 l 2,22,23
 1522 808 1522 808 1522 763 c 2,24,-1
 1522 689 l 2,25,26
 1522 644 1522 644 1467 644 c 2,27,-1
 1317 644 l 1,28,-1
 1317 547 l 2,29,30
 1317 230 1317 230 1171.5 100 c 128,-1,31
 1026 -30 1026 -30 786 -30 c 256,32,33
 546 -30 546 -30 400.5 100 c 128,-1,34
 255 230 255 230 255 547 c 2,35,-1
 255 644 l 1,36,-1
 105 644 l 2,0,1
447 577 m 2,37,38
 447 297 447 297 526.5 211.5 c 128,-1,39
 606 126 606 126 786 126 c 256,40,41
 966 126 966 126 1045.5 211.5 c 128,-1,42
 1125 297 1125 297 1125 577 c 2,43,-1
 1125 644 l 1,44,-1
 447 644 l 1,45,-1
 447 577 l 2,37,38
EndSplineSet
EndChar

StartChar: uni0245
Encoding: 581 581 361
Width: 1338
GlyphClass: 2
Flags: W
LayerCount: 2
Fore
SplineSet
46 66 m 2,0,-1
 533 1373 l 2,1,2
 556 1434 556 1434 599 1434 c 2,3,-1
 739 1434 l 2,4,5
 782 1434 782 1434 805 1373 c 2,6,-1
 1292 66 l 2,7,8
 1317 0 1317 0 1265 0 c 2,9,-1
 1163 0 l 2,10,11
 1109 0 1109 0 1091 49 c 2,12,-1
 766 944 l 2,13,14
 745 1003 745 1003 713.5 1102.5 c 128,-1,15
 682 1202 682 1202 671 1261 c 1,16,-1
 667 1261 l 1,17,18
 656 1202 656 1202 624.5 1102.5 c 128,-1,19
 593 1003 593 1003 572 944 c 2,20,-1
 247 49 l 2,21,22
 229 0 229 0 175 0 c 2,23,-1
 73 0 l 2,24,25
 21 0 21 0 46 66 c 2,0,-1
EndSplineSet
EndChar

StartChar: uni0250
Encoding: 592 592 362
Width: 1067
GlyphClass: 2
Flags: W
AnchorPoint: "Anchor-5" 563 1067 basechar 0
AnchorPoint: "Anchor-4" 563 0 basechar 0
AnchorPoint: "Anchor-3" 1067 1476 basechar 0
AnchorPoint: "Anchor-2" 1067 -400 basechar 0
LayerCount: 2
Fore
SplineSet
143 385 m 2,0,-1
 143 1005 l 2,1,2
 143 1050 143 1050 188 1050 c 2,3,-1
 278 1050 l 2,4,5
 317 1050 317 1050 317 1005 c 2,6,-1
 317 956 l 1,7,-1
 319 956 l 1,8,9
 398 1018 398 1018 473.5 1042.5 c 128,-1,10
 549 1067 549 1067 642 1067 c 0,11,12
 806 1067 806 1067 894.5 988.5 c 128,-1,13
 983 910 983 910 983 770 c 0,14,15
 983 592 983 592 816.5 509 c 128,-1,16
 650 426 650 426 319 412 c 1,17,-1
 319 344 l 2,18,19
 319 250 319 250 361.5 181.5 c 128,-1,20
 404 113 404 113 530 113 c 0,21,22
 627 113 627 113 694.5 141 c 128,-1,23
 762 169 762 169 821 235 c 0,24,25
 848 265 848 265 872 238 c 2,26,-1
 924 178 l 2,27,28
 946 153 946 153 909 118 c 0,29,30
 827 40 827 40 717 11.5 c 128,-1,31
 607 -17 607 -17 530 -17 c 0,32,33
 321 -17 321 -17 232 90.5 c 128,-1,34
 143 198 143 198 143 385 c 2,0,-1
319 543 m 1,35,36
 660 569 660 569 730.5 632.5 c 128,-1,37
 801 696 801 696 801 764 c 0,38,39
 801 862 801 862 754.5 897 c 128,-1,40
 708 932 708 932 607 932 c 0,41,42
 530 932 530 932 461 917 c 128,-1,43
 392 902 392 902 319 838 c 1,44,-1
 319 543 l 1,35,36
EndSplineSet
EndChar

StartChar: uni0251
Encoding: 593 593 363
Width: 1103
GlyphClass: 2
Flags: W
AnchorPoint: "Anchor-5" 523 1067 basechar 0
AnchorPoint: "Anchor-4" 523 0 basechar 0
AnchorPoint: "Anchor-3" 1103 1476 basechar 0
AnchorPoint: "Anchor-2" 1103 -400 basechar 0
LayerCount: 2
Fore
SplineSet
85 525 m 256,0,1
 85 740 85 740 189 903.5 c 128,-1,2
 293 1067 293 1067 485 1067 c 0,3,4
 592 1067 592 1067 661 1029 c 128,-1,5
 730 991 730 991 785 925 c 1,6,-1
 787 925 l 1,7,-1
 793 1005 l 2,8,9
 796 1050 796 1050 832 1050 c 2,10,-1
 916 1050 l 2,11,12
 961 1050 961 1050 961 1005 c 2,13,-1
 961 45 l 2,14,15
 961 0 961 0 916 0 c 2,16,-1
 832 0 l 2,17,18
 796 0 796 0 793 45 c 2,19,-1
 787 125 l 1,20,-1
 785 125 l 1,21,22
 730 59 730 59 661 21 c 128,-1,23
 592 -17 592 -17 485 -17 c 0,24,25
 293 -17 293 -17 189 146.5 c 128,-1,26
 85 310 85 310 85 525 c 256,0,1
271 525 m 256,27,28
 271 341 271 341 334 227 c 128,-1,29
 397 113 397 113 542 113 c 0,30,31
 642 113 642 113 713.5 186.5 c 128,-1,32
 785 260 785 260 785 410 c 2,33,-1
 785 640 l 2,34,35
 785 790 785 790 713.5 863.5 c 128,-1,36
 642 937 642 937 542 937 c 0,37,38
 397 937 397 937 334 823 c 128,-1,39
 271 709 271 709 271 525 c 256,27,28
EndSplineSet
EndChar

StartChar: uni0252
Encoding: 594 594 364
Width: 1103
GlyphClass: 2
Flags: W
AnchorPoint: "Anchor-5" 581 1067 basechar 0
AnchorPoint: "Anchor-4" 581 0 basechar 0
AnchorPoint: "Anchor-3" 1103 1476 basechar 0
AnchorPoint: "Anchor-2" 1103 -400 basechar 0
LayerCount: 2
Fore
SplineSet
143 45 m 2,0,-1
 143 1005 l 2,1,2
 143 1050 143 1050 188 1050 c 2,3,-1
 272 1050 l 2,4,5
 308 1050 308 1050 311 1005 c 2,6,-1
 317 925 l 1,7,-1
 319 925 l 1,8,9
 374 991 374 991 443 1029 c 128,-1,10
 512 1067 512 1067 619 1067 c 0,11,12
 811 1067 811 1067 915 903.5 c 128,-1,13
 1019 740 1019 740 1019 525 c 256,14,15
 1019 310 1019 310 915 146.5 c 128,-1,16
 811 -17 811 -17 619 -17 c 0,17,18
 512 -17 512 -17 443 21 c 128,-1,19
 374 59 374 59 319 125 c 1,20,-1
 317 125 l 1,21,-1
 311 45 l 2,22,23
 308 0 308 0 272 0 c 2,24,-1
 188 0 l 2,25,26
 143 0 143 0 143 45 c 2,0,-1
319 410 m 2,27,28
 319 260 319 260 390.5 186.5 c 128,-1,29
 462 113 462 113 562 113 c 0,30,31
 707 113 707 113 770 227 c 128,-1,32
 833 341 833 341 833 525 c 256,33,34
 833 709 833 709 770 823 c 128,-1,35
 707 937 707 937 562 937 c 0,36,37
 462 937 462 937 390.5 863.5 c 128,-1,38
 319 790 319 790 319 640 c 2,39,-1
 319 410 l 2,27,28
EndSplineSet
EndChar

StartChar: uni0253
Encoding: 595 595 365
Width: 1119
GlyphClass: 2
Flags: W
AnchorPoint: "Anchor-5" 588 1476 basechar 0
AnchorPoint: "Anchor-4" 588 0 basechar 0
AnchorPoint: "Anchor-3" 1119 1476 basechar 0
AnchorPoint: "Anchor-2" 1119 -400 basechar 0
LayerCount: 2
Fore
SplineSet
187 0 m 2,0,1
 142 0 142 0 142 45 c 2,2,-1
 142 1051 l 2,3,4
 142 1260 142 1260 243.5 1376.5 c 128,-1,5
 345 1493 345 1493 560 1493 c 0,6,7
 714 1493 714 1493 801.5 1453.5 c 128,-1,8
 889 1414 889 1414 926 1370 c 0,9,10
 953 1337 953 1337 929 1314 c 2,11,-1
 874 1260 l 2,12,13
 853 1239 853 1239 824 1264 c 0,14,15
 765 1314 765 1314 710.5 1338.5 c 128,-1,16
 656 1363 656 1363 559 1363 c 0,17,18
 441 1363 441 1363 379.5 1295 c 128,-1,19
 318 1227 318 1227 318 1025 c 2,20,-1
 318 986 l 2,21,22
 318 955 318 955 316 925 c 1,23,-1
 318 925 l 1,24,25
 373 991 373 991 442 1029 c 128,-1,26
 511 1067 511 1067 626 1067 c 0,27,28
 826 1067 826 1067 930 903.5 c 128,-1,29
 1034 740 1034 740 1034 525 c 256,30,31
 1034 310 1034 310 930 146.5 c 128,-1,32
 826 -17 826 -17 626 -17 c 0,33,34
 511 -17 511 -17 442 21 c 128,-1,35
 373 59 373 59 318 125 c 1,36,-1
 316 125 l 1,37,-1
 310 45 l 2,38,39
 307 0 307 0 271 0 c 2,40,-1
 187 0 l 2,0,1
318 410 m 2,41,42
 318 260 318 260 389.5 186.5 c 128,-1,43
 461 113 461 113 569 113 c 0,44,45
 721 113 721 113 784.5 227 c 128,-1,46
 848 341 848 341 848 525 c 256,47,48
 848 709 848 709 784.5 823 c 128,-1,49
 721 937 721 937 569 937 c 0,50,51
 461 937 461 937 389.5 863.5 c 128,-1,52
 318 790 318 790 318 640 c 2,53,-1
 318 410 l 2,41,42
EndSplineSet
EndChar

StartChar: uni0254
Encoding: 596 596 366
Width: 1026
GlyphClass: 2
Flags: W
AnchorPoint: "Anchor-5" 468 1067 basechar 0
AnchorPoint: "Anchor-4" 468 0 basechar 0
AnchorPoint: "Anchor-3" 1026 1476 basechar 0
AnchorPoint: "Anchor-2" 1026 -400 basechar 0
LayerCount: 2
Fore
SplineSet
77 869 m 0,0,1
 102 912 102 912 190.5 989.5 c 128,-1,2
 279 1067 279 1067 468 1067 c 0,3,4
 708 1067 708 1067 824.5 913.5 c 128,-1,5
 941 760 941 760 941 525 c 256,6,7
 941 290 941 290 824.5 136.5 c 128,-1,8
 708 -17 708 -17 468 -17 c 0,9,10
 306 -17 306 -17 220.5 40.5 c 128,-1,11
 135 98 135 98 97 158 c 0,12,13
 76 191 76 191 106 211 c 2,14,-1
 169 252 l 1,15,16
 199 273 199 273 229 225 c 0,17,18
 258 179 258 179 310.5 146 c 128,-1,19
 363 113 363 113 468 113 c 0,20,21
 605 113 605 113 680 214 c 128,-1,22
 755 315 755 315 755 525 c 256,23,24
 755 735 755 735 680 836 c 128,-1,25
 605 937 605 937 468 937 c 0,26,27
 357 937 357 937 298 894.5 c 128,-1,28
 239 852 239 852 212 802 c 0,29,30
 186 755 186 755 153 775 c 2,31,-1
 86 815 l 2,32,33
 56 833 56 833 77 869 c 0,0,1
EndSplineSet
EndChar

StartChar: uni0255
Encoding: 597 597 367
Width: 1026
GlyphClass: 2
Flags: W
AnchorPoint: "Anchor-5" 558 1067 basechar 0
AnchorPoint: "Anchor-3" 1026 1476 basechar 0
AnchorPoint: "Anchor-2" 1026 -400 basechar 0
LayerCount: 2
Fore
SplineSet
86 525 m 0,0,1
 86 760 86 760 202 913.5 c 128,-1,2
 318 1067 318 1067 558 1067 c 0,3,4
 720 1067 720 1067 805.5 1010 c 128,-1,5
 891 953 891 953 929 892 c 0,6,7
 950 859 950 859 920 839 c 2,8,-1
 857 798 l 1,9,10
 827 777 827 777 797 825 c 0,11,12
 768 871 768 871 715.5 904 c 128,-1,13
 663 937 663 937 558 937 c 0,14,15
 421 937 421 937 346 836 c 128,-1,16
 271 735 271 735 271 525 c 0,17,18
 271 356 271 356 307.5 281 c 128,-1,19
 344 206 344 206 380 177 c 1,20,21
 409 268 409 268 490.5 351 c 128,-1,22
 572 434 572 434 702 434 c 0,23,24
 805 434 805 434 877.5 383 c 128,-1,25
 950 332 950 332 950 233 c 0,26,27
 950 140 950 140 853 61.5 c 128,-1,28
 756 -17 756 -17 558 -17 c 0,29,30
 512 -17 512 -17 461 -10 c 1,31,32
 419 -143 419 -143 404 -226 c 0,33,34
 397 -267 397 -267 356 -257 c 2,35,-1
 280 -238 l 2,36,37
 251 -231 251 -231 259 -183 c 0,38,39
 280 -68 280 -68 322 34 c 1,40,41
 244 64 244 64 165 187 c 128,-1,42
 86 310 86 310 86 525 c 0,0,1
504 117 m 1,43,44
 530 113 530 113 558 113 c 0,45,46
 686 113 686 113 741 157.5 c 128,-1,47
 796 202 796 202 796 236 c 0,48,49
 796 274 796 274 770 289 c 128,-1,50
 744 304 744 304 700 304 c 0,51,52
 646 304 646 304 591 256 c 128,-1,53
 536 208 536 208 504 117 c 1,43,44
EndSplineSet
EndChar

StartChar: uni0256
Encoding: 598 598 368
Width: 1127
GlyphClass: 2
Flags: W
AnchorPoint: "Anchor-5" 531 1476 basechar 0
AnchorPoint: "Anchor-4" 656 -400 basechar 0
AnchorPoint: "Anchor-3" 1127 1476 basechar 0
AnchorPoint: "Anchor-2" 1127 -400 basechar 0
LayerCount: 2
Fore
SplineSet
85 525 m 256,0,1
 85 740 85 740 189 903.5 c 128,-1,2
 293 1067 293 1067 493 1067 c 0,3,4
 608 1067 608 1067 677 1029 c 128,-1,5
 746 991 746 991 801 925 c 1,6,-1
 803 925 l 1,7,8
 801 955 801 955 801 986 c 2,9,-1
 801 1431 l 2,10,11
 801 1476 801 1476 846 1476 c 2,12,-1
 932 1476 l 2,13,14
 977 1476 977 1476 977 1431 c 2,15,-1
 977 6 l 2,16,17
 977 -171 977 -171 1003.5 -229 c 128,-1,18
 1030 -287 1030 -287 1089 -287 c 0,19,20
 1146 -287 1146 -287 1185 -269 c 0,21,22
 1205 -260 1205 -260 1210 -284 c 2,23,-1
 1227 -365 l 2,24,25
 1231 -387 1231 -387 1209 -397 c 0,26,27
 1163 -417 1163 -417 1057 -417 c 0,28,29
 948 -417 948 -417 874.5 -352 c 128,-1,30
 801 -287 801 -287 801 -93 c 2,31,-1
 801 64 l 2,32,33
 801 95 801 95 803 125 c 1,34,-1
 801 125 l 1,35,36
 746 59 746 59 677 21 c 128,-1,37
 608 -17 608 -17 493 -17 c 0,38,39
 293 -17 293 -17 189 146.5 c 128,-1,40
 85 310 85 310 85 525 c 256,0,1
271 525 m 256,41,42
 271 341 271 341 334.5 227 c 128,-1,43
 398 113 398 113 550 113 c 0,44,45
 658 113 658 113 729.5 186.5 c 128,-1,46
 801 260 801 260 801 410 c 2,47,-1
 801 640 l 2,48,49
 801 790 801 790 729.5 863.5 c 128,-1,50
 658 937 658 937 550 937 c 0,51,52
 398 937 398 937 334.5 823 c 128,-1,53
 271 709 271 709 271 525 c 256,41,42
EndSplineSet
EndChar

StartChar: uni0257
Encoding: 599 599 369
Width: 1231
GlyphClass: 2
Flags: W
AnchorPoint: "Anchor-5" 693 1476 basechar 0
AnchorPoint: "Anchor-4" 531 0 basechar 0
AnchorPoint: "Anchor-3" 1231 1476 basechar 0
AnchorPoint: "Anchor-2" 1231 -400 basechar 0
LayerCount: 2
Fore
SplineSet
85 525 m 256,0,1
 85 740 85 740 189 903.5 c 128,-1,2
 293 1067 293 1067 493 1067 c 0,3,4
 608 1067 608 1067 677 1029 c 128,-1,5
 746 991 746 991 801 925 c 1,6,-1
 803 925 l 1,7,8
 801 957 801 957 801 986 c 2,9,-1
 801 1199 l 2,10,11
 801 1366 801 1366 894.5 1429.5 c 128,-1,12
 988 1493 988 1493 1106 1493 c 0,13,14
 1161 1493 1161 1493 1198.5 1484.5 c 128,-1,15
 1236 1476 1236 1476 1284 1452 c 0,16,17
 1307 1441 1307 1441 1297 1420 c 2,18,-1
 1262 1346 l 2,19,20
 1248 1317 1248 1317 1227 1332 c 0,21,22
 1209 1345 1209 1345 1183.5 1354 c 128,-1,23
 1158 1363 1158 1363 1123 1363 c 0,24,25
 1066 1363 1066 1363 1021.5 1323 c 128,-1,26
 977 1283 977 1283 977 1170 c 2,27,-1
 977 45 l 2,28,29
 977 0 977 0 932 0 c 2,30,-1
 848 0 l 2,31,32
 812 0 812 0 809 45 c 2,33,-1
 803 125 l 1,34,-1
 801 125 l 1,35,36
 746 59 746 59 677 21 c 128,-1,37
 608 -17 608 -17 493 -17 c 0,38,39
 293 -17 293 -17 189 146.5 c 128,-1,40
 85 310 85 310 85 525 c 256,0,1
271 525 m 256,41,42
 271 341 271 341 334.5 227 c 128,-1,43
 398 113 398 113 550 113 c 0,44,45
 658 113 658 113 729.5 186.5 c 128,-1,46
 801 260 801 260 801 410 c 2,47,-1
 801 640 l 2,48,49
 801 790 801 790 729.5 863.5 c 128,-1,50
 658 937 658 937 550 937 c 0,51,52
 398 937 398 937 334.5 823 c 128,-1,53
 271 709 271 709 271 525 c 256,41,42
EndSplineSet
EndChar

StartChar: uni0258
Encoding: 600 600 370
Width: 1098
GlyphClass: 2
Flags: W
AnchorPoint: "Anchor-5" 534 1067 basechar 0
AnchorPoint: "Anchor-4" 526 0 basechar 0
AnchorPoint: "Anchor-3" 1098 1476 basechar 0
AnchorPoint: "Anchor-2" 1098 -400 basechar 0
LayerCount: 2
Fore
SplineSet
89 503 m 0,0,1
 89 798 89 798 215.5 932.5 c 128,-1,2
 342 1067 342 1067 534 1067 c 0,3,4
 765 1067 765 1067 889 920 c 128,-1,5
 1013 773 1013 773 1013 525 c 256,6,7
 1013 277 1013 277 894.5 130 c 128,-1,8
 776 -17 776 -17 526 -17 c 0,9,10
 334 -17 334 -17 244.5 47 c 128,-1,11
 155 111 155 111 136 140 c 0,12,13
 113 175 113 175 136 195 c 2,14,-1
 195 246 l 2,15,16
 225 272 225 272 257 230 c 0,17,18
 286 192 286 192 348 153 c 128,-1,19
 410 114 410 114 526 114 c 0,20,21
 636 114 636 114 723 189.5 c 128,-1,22
 810 265 810 265 827 458 c 1,23,-1
 130 458 l 2,24,25
 89 458 89 458 89 503 c 0,0,1
266 588 m 1,26,-1
 831 588 l 1,27,28
 816 784 816 784 735 861.5 c 128,-1,29
 654 939 654 939 538 939 c 0,30,31
 406 939 406 939 338 833.5 c 128,-1,32
 270 728 270 728 266 588 c 1,26,-1
EndSplineSet
EndChar

StartChar: uni0259
Encoding: 601 601 371
Width: 1098
GlyphClass: 2
Flags: W
AnchorPoint: "Anchor-5" 526 1067 basechar 0
AnchorPoint: "Anchor-4" 534 0 basechar 0
AnchorPoint: "Anchor-3" 1098 1476 basechar 0
AnchorPoint: "Anchor-2" 1098 -400 basechar 0
LayerCount: 2
Fore
SplineSet
89 547 m 0,0,1
 89 592 89 592 130 592 c 2,2,-1
 827 592 l 1,3,4
 810 785 810 785 723 860.5 c 128,-1,5
 636 936 636 936 526 936 c 0,6,7
 410 936 410 936 348 897 c 128,-1,8
 286 858 286 858 257 820 c 0,9,10
 225 778 225 778 195 804 c 2,11,-1
 136 855 l 2,12,13
 113 875 113 875 136 910 c 0,14,15
 155 939 155 939 244.5 1003 c 128,-1,16
 334 1067 334 1067 526 1067 c 0,17,18
 776 1067 776 1067 894.5 920 c 128,-1,19
 1013 773 1013 773 1013 525 c 256,20,21
 1013 277 1013 277 889 130 c 128,-1,22
 765 -17 765 -17 534 -17 c 0,23,24
 342 -17 342 -17 215.5 117.5 c 128,-1,25
 89 252 89 252 89 547 c 0,0,1
266 462 m 1,26,27
 270 322 270 322 338 216.5 c 128,-1,28
 406 111 406 111 538 111 c 0,29,30
 654 111 654 111 735 188.5 c 128,-1,31
 816 266 816 266 831 462 c 1,32,-1
 266 462 l 1,26,27
EndSplineSet
EndChar

StartChar: uni025A
Encoding: 602 602 372
Width: 1545
GlyphClass: 2
Flags: W
AnchorPoint: "Anchor-5" 526 1067 basechar 0
AnchorPoint: "Anchor-4" 534 0 basechar 0
AnchorPoint: "Anchor-3" 1545 1476 basechar 0
AnchorPoint: "Anchor-2" 1545 -400 basechar 0
LayerCount: 2
Fore
SplineSet
283 343 m 1,0,1
 320 208 320 208 385 159.5 c 128,-1,2
 450 111 450 111 538 111 c 0,3,4
 654 111 654 111 742.5 195.5 c 128,-1,5
 831 280 831 280 831 555 c 1,6,-1
 283 343 l 1,0,1
102 395 m 0,7,8
 102 424 102 424 143 440 c 2,9,-1
 812 697 l 1,10,11
 764 831 764 831 694 883.5 c 128,-1,12
 624 936 624 936 517 936 c 128,-1,13
 410 936 410 936 348 897 c 128,-1,14
 286 858 286 858 257 820 c 0,15,16
 225 778 225 778 195 804 c 2,17,-1
 136 855 l 2,18,19
 113 875 113 875 136 910 c 0,20,21
 155 939 155 939 244.5 1003 c 128,-1,22
 334 1067 334 1067 526 1067 c 0,23,24
 776 1067 776 1067 862.5 960 c 128,-1,25
 949 853 949 853 978 764 c 1,26,-1
 1316 917 l 2,27,28
 1345 930 1345 930 1357 910 c 2,29,-1
 1376 879 l 2,30,31
 1394 850 1394 850 1374 830 c 0,32,33
 1336 791 1336 791 1316.5 745 c 128,-1,34
 1297 699 1297 699 1297 668 c 0,35,36
 1297 612 1297 612 1319.5 584.5 c 128,-1,37
 1342 557 1342 557 1394 557 c 0,38,39
 1449 557 1449 557 1508 583 c 0,40,41
 1533 594 1533 594 1544 570 c 2,42,-1
 1565 524 l 2,43,44
 1575 501 1575 501 1560 490 c 0,45,46
 1524 463 1524 463 1477.5 447.5 c 128,-1,47
 1431 432 1431 432 1370 432 c 0,48,49
 1276 432 1276 432 1221.5 487.5 c 128,-1,50
 1167 543 1167 543 1167 619 c 0,51,52
 1167 646 1167 646 1175.5 673 c 128,-1,53
 1184 700 1184 700 1200 725 c 1,54,-1
 1200 729 l 1,55,-1
 1006 636 l 1,56,57
 1013 583 1013 583 1013 525 c 0,58,59
 1013 277 1013 277 889 130 c 128,-1,60
 765 -17 765 -17 534 -17 c 0,61,62
 334 -17 334 -17 218 111.5 c 128,-1,63
 102 240 102 240 102 395 c 0,7,8
EndSplineSet
EndChar

StartChar: uni025B
Encoding: 603 603 373
Width: 918
GlyphClass: 2
Flags: W
AnchorPoint: "Anchor-5" 502 1067 basechar 0
AnchorPoint: "Anchor-4" 495 0 basechar 0
AnchorPoint: "Anchor-3" 918 1476 basechar 0
AnchorPoint: "Anchor-2" 918 -400 basechar 0
LayerCount: 2
Fore
SplineSet
100 308 m 0,0,1
 100 388 100 388 153 460.5 c 128,-1,2
 206 533 206 533 285 556 c 1,3,-1
 285 559 l 1,4,5
 226 586 226 586 186.5 636 c 128,-1,6
 147 686 147 686 147 792 c 0,7,8
 147 894 147 894 243 980.5 c 128,-1,9
 339 1067 339 1067 502 1067 c 0,10,11
 614 1067 614 1067 682 1043.5 c 128,-1,12
 750 1020 750 1020 810 970 c 0,13,14
 853 935 853 935 823 905 c 2,15,-1
 770 852 l 2,16,17
 750 833 750 833 702 872 c 0,18,19
 676 893 676 893 618 915 c 128,-1,20
 560 937 560 937 508 937 c 0,21,22
 428 937 428 937 375.5 902.5 c 128,-1,23
 323 868 323 868 323 779 c 256,24,25
 323 690 323 690 370.5 651.5 c 128,-1,26
 418 613 418 613 509 613 c 2,27,-1
 582 613 l 2,28,29
 622 613 622 613 622 578 c 2,30,-1
 622 518 l 2,31,32
 622 483 622 483 582 483 c 2,33,-1
 500 483 l 2,34,35
 402 483 402 483 344 435.5 c 128,-1,36
 286 388 286 388 286 300 c 0,37,38
 286 224 286 224 334 168.5 c 128,-1,39
 382 113 382 113 506 113 c 0,40,41
 588 113 588 113 648 150.5 c 128,-1,42
 708 188 708 188 720 201 c 0,43,44
 758 241 758 241 784 215 c 2,45,-1
 839 161 l 2,46,47
 865 135 865 135 836 106 c 0,48,49
 798 68 798 68 718 25.5 c 128,-1,50
 638 -17 638 -17 495 -17 c 0,51,52
 324 -17 324 -17 212 58.5 c 128,-1,53
 100 134 100 134 100 308 c 0,0,1
EndSplineSet
EndChar

StartChar: uni025C
Encoding: 604 604 374
Width: 918
GlyphClass: 2
Flags: W
AnchorPoint: "Anchor-5" 416 1067 basechar 0
AnchorPoint: "Anchor-4" 423 0 basechar 0
AnchorPoint: "Anchor-3" 918 1476 basechar 0
AnchorPoint: "Anchor-2" 918 -400 basechar 0
LayerCount: 2
Fore
SplineSet
79 161 m 2,0,-1
 134 215 l 2,1,2
 160 241 160 241 198 201 c 0,3,4
 210 188 210 188 270 150.5 c 128,-1,5
 330 113 330 113 412 113 c 0,6,7
 536 113 536 113 584 168.5 c 128,-1,8
 632 224 632 224 632 300 c 0,9,10
 632 388 632 388 574 435.5 c 128,-1,11
 516 483 516 483 418 483 c 2,12,-1
 336 483 l 2,13,14
 296 483 296 483 296 518 c 2,15,-1
 296 578 l 2,16,17
 296 613 296 613 336 613 c 2,18,-1
 409 613 l 2,19,20
 500 613 500 613 547.5 651.5 c 128,-1,21
 595 690 595 690 595 779 c 256,22,23
 595 868 595 868 542.5 902.5 c 128,-1,24
 490 937 490 937 410 937 c 0,25,26
 358 937 358 937 300 915 c 128,-1,27
 242 893 242 893 216 872 c 0,28,29
 168 833 168 833 148 852 c 2,30,-1
 95 905 l 2,31,32
 65 935 65 935 108 970 c 0,33,34
 168 1020 168 1020 236 1043.5 c 128,-1,35
 304 1067 304 1067 416 1067 c 0,36,37
 579 1067 579 1067 675 980.5 c 128,-1,38
 771 894 771 894 771 792 c 0,39,40
 771 686 771 686 731.5 636 c 128,-1,41
 692 586 692 586 633 559 c 1,42,-1
 633 556 l 1,43,44
 712 533 712 533 765 460.5 c 128,-1,45
 818 388 818 388 818 308 c 0,46,47
 818 134 818 134 706 58.5 c 128,-1,48
 594 -17 594 -17 423 -17 c 0,49,50
 280 -17 280 -17 200 25.5 c 128,-1,51
 120 68 120 68 82 106 c 0,52,53
 53 135 53 135 79 161 c 2,0,-1
EndSplineSet
EndChar

StartChar: uni025D
Encoding: 605 605 375
Width: 918
GlyphClass: 2
Flags: W
AnchorPoint: "Anchor-5" 416 1067 basechar 0
AnchorPoint: "Anchor-4" 423 0 basechar 0
AnchorPoint: "Anchor-3" 918 1476 basechar 0
AnchorPoint: "Anchor-2" 918 -400 basechar 0
LayerCount: 2
Fore
SplineSet
79 161 m 2,0,-1
 134 215 l 2,1,2
 160 241 160 241 198 201 c 0,3,4
 210 188 210 188 270 150.5 c 128,-1,5
 330 113 330 113 412 113 c 0,6,7
 536 113 536 113 584 168.5 c 128,-1,8
 632 224 632 224 632 300 c 0,9,10
 632 388 632 388 574 435.5 c 128,-1,11
 516 483 516 483 418 483 c 2,12,-1
 336 483 l 2,13,14
 296 483 296 483 296 518 c 2,15,-1
 296 578 l 2,16,17
 296 613 296 613 336 613 c 2,18,-1
 409 613 l 2,19,20
 500 613 500 613 547.5 651.5 c 128,-1,21
 595 690 595 690 595 779 c 256,22,23
 595 868 595 868 542.5 902.5 c 128,-1,24
 490 937 490 937 410 937 c 0,25,26
 358 937 358 937 300 915 c 128,-1,27
 242 893 242 893 216 872 c 0,28,29
 168 833 168 833 148 852 c 2,30,-1
 95 905 l 2,31,32
 65 935 65 935 108 970 c 0,33,34
 168 1020 168 1020 236 1043.5 c 128,-1,35
 304 1067 304 1067 416 1067 c 0,36,37
 579 1067 579 1067 665 989.5 c 128,-1,38
 751 912 751 912 767 834 c 1,39,-1
 1033 917 l 2,40,41
 1064 927 1064 927 1074 910 c 2,42,-1
 1093 879 l 2,43,44
 1111 850 1111 850 1091 830 c 0,45,46
 1053 791 1053 791 1033.5 745 c 128,-1,47
 1014 699 1014 699 1014 668 c 0,48,49
 1014 612 1014 612 1036.5 584.5 c 128,-1,50
 1059 557 1059 557 1111 557 c 0,51,52
 1166 557 1166 557 1225 583 c 0,53,54
 1250 594 1250 594 1261 570 c 2,55,-1
 1282 524 l 2,56,57
 1292 501 1292 501 1277 490 c 0,58,59
 1241 463 1241 463 1194.5 447.5 c 128,-1,60
 1148 432 1148 432 1087 432 c 0,61,62
 993 432 993 432 938.5 487.5 c 128,-1,63
 884 543 884 543 884 619 c 0,64,65
 884 646 884 646 892.5 677.5 c 128,-1,66
 901 709 901 709 917 734 c 1,67,-1
 917 738 l 1,68,-1
 757 686 l 1,69,70
 747 656 747 656 719.5 621 c 128,-1,71
 692 586 692 586 633 559 c 1,72,-1
 633 556 l 1,73,74
 712 533 712 533 765 460.5 c 128,-1,75
 818 388 818 388 818 308 c 0,76,77
 818 134 818 134 706 58.5 c 128,-1,78
 594 -17 594 -17 423 -17 c 0,79,80
 280 -17 280 -17 200 25.5 c 128,-1,81
 120 68 120 68 82 106 c 0,82,83
 53 135 53 135 79 161 c 2,0,-1
EndSplineSet
EndChar

StartChar: uni025E
Encoding: 606 606 376
Width: 1111
GlyphClass: 2
Flags: W
AnchorPoint: "Anchor-5" 575 1067 basechar 0
AnchorPoint: "Anchor-4" 575 0 basechar 0
AnchorPoint: "Anchor-3" 1111 1476 basechar 0
AnchorPoint: "Anchor-2" 1111 -400 basechar 0
LayerCount: 2
Fore
SplineSet
86 525 m 256,0,1
 86 760 86 760 210.5 913.5 c 128,-1,2
 335 1067 335 1067 575 1067 c 0,3,4
 768 1067 768 1067 866.5 980.5 c 128,-1,5
 965 894 965 894 965 792 c 0,6,7
 965 686 965 686 925.5 636 c 128,-1,8
 886 586 886 586 827 559 c 1,9,-1
 827 556 l 1,10,11
 906 533 906 533 959 460.5 c 128,-1,12
 1012 388 1012 388 1012 308 c 0,13,14
 1012 134 1012 134 897 58.5 c 128,-1,15
 782 -17 782 -17 575 -17 c 0,16,17
 335 -17 335 -17 210.5 136.5 c 128,-1,18
 86 290 86 290 86 525 c 256,0,1
272 525 m 256,19,20
 272 315 272 315 355 214 c 128,-1,21
 438 113 438 113 575 113 c 0,22,23
 726 113 726 113 776 168.5 c 128,-1,24
 826 224 826 224 826 300 c 0,25,26
 826 388 826 388 768 435.5 c 128,-1,27
 710 483 710 483 612 483 c 2,28,-1
 530 483 l 2,29,30
 490 483 490 483 490 518 c 2,31,-1
 490 578 l 2,32,33
 490 613 490 613 530 613 c 2,34,-1
 603 613 l 2,35,36
 694 613 694 613 741.5 651.5 c 128,-1,37
 789 690 789 690 789 779 c 256,38,39
 789 868 789 868 733.5 902.5 c 128,-1,40
 678 937 678 937 575 937 c 0,41,42
 438 937 438 937 355 836 c 128,-1,43
 272 735 272 735 272 525 c 256,19,20
EndSplineSet
EndChar

StartChar: uni025F
Encoding: 607 607 377
Width: 640
GlyphClass: 2
Flags: W
AnchorPoint: "Anchor-5" 320 1067 basechar 0
AnchorPoint: "Anchor-4" 220 -400 basechar 0
AnchorPoint: "Anchor-3" 640 1476 basechar 0
AnchorPoint: "Anchor-2" 640 -400 basechar 0
LayerCount: 2
Fore
SplineSet
0 -397 m 0,0,1
 -23 -387 -23 -387 -18 -365 c 2,2,-1
 -1 -284 l 2,3,4
 4 -260 4 -260 24 -269 c 0,5,6
 64 -287 64 -287 120 -287 c 0,7,8
 179 -287 179 -287 205.5 -229 c 128,-1,9
 232 -171 232 -171 232 6 c 2,10,-1
 232 482 l 1,11,-1
 95 482 l 2,12,13
 50 482 50 482 50 517 c 2,14,-1
 50 579 l 2,15,16
 50 614 50 614 95 614 c 2,17,-1
 232 614 l 1,18,-1
 232 1005 l 2,19,20
 232 1050 232 1050 277 1050 c 2,21,-1
 363 1050 l 2,22,23
 408 1050 408 1050 408 1005 c 2,24,-1
 408 614 l 1,25,-1
 545 614 l 2,26,27
 590 614 590 614 590 579 c 2,28,-1
 590 517 l 2,29,30
 590 482 590 482 545 482 c 2,31,-1
 408 482 l 1,32,-1
 408 -93 l 2,33,34
 408 -287 408 -287 334.5 -352 c 128,-1,35
 261 -417 261 -417 152 -417 c 0,36,37
 46 -417 46 -417 0 -397 c 0,0,1
EndSplineSet
EndChar

StartChar: uni0260
Encoding: 608 608 378
Width: 1231
GlyphClass: 2
Flags: W
AnchorPoint: "Anchor-5" 693 1476 basechar 0
AnchorPoint: "Anchor-4" 539 -400 basechar 0
AnchorPoint: "Anchor-3" 1231 1476 basechar 0
AnchorPoint: "Anchor-2" 1231 -400 basechar 0
LayerCount: 2
Fore
SplineSet
85 525 m 256,0,1
 85 740 85 740 189 903.5 c 128,-1,2
 293 1067 293 1067 493 1067 c 0,3,4
 608 1067 608 1067 677 1029 c 128,-1,5
 746 991 746 991 801 925 c 1,6,-1
 803 925 l 1,7,8
 801 957 801 957 801 986 c 2,9,-1
 801 1199 l 2,10,11
 801 1366 801 1366 894.5 1429.5 c 128,-1,12
 988 1493 988 1493 1106 1493 c 0,13,14
 1161 1493 1161 1493 1198.5 1484.5 c 128,-1,15
 1236 1476 1236 1476 1284 1452 c 0,16,17
 1307 1441 1307 1441 1297 1420 c 2,18,-1
 1262 1346 l 2,19,20
 1248 1317 1248 1317 1227 1332 c 0,21,22
 1209 1345 1209 1345 1183.5 1354 c 128,-1,23
 1158 1363 1158 1363 1123 1363 c 0,24,25
 1066 1363 1066 1363 1021.5 1323 c 128,-1,26
 977 1283 977 1283 977 1170 c 2,27,-1
 977 -8 l 2,28,29
 977 -200 977 -200 888.5 -308.5 c 128,-1,30
 800 -417 800 -417 539 -417 c 0,31,32
 364 -417 364 -417 277 -377.5 c 128,-1,33
 190 -338 190 -338 153 -294 c 0,34,35
 126 -261 126 -261 150 -238 c 2,36,-1
 205 -184 l 2,37,38
 228 -162 228 -162 269 -198 c 0,39,40
 322 -246 322 -246 371 -266.5 c 128,-1,41
 420 -287 420 -287 540 -287 c 0,42,43
 676 -287 676 -287 738.5 -229 c 128,-1,44
 801 -171 801 -171 801 11 c 2,45,-1
 801 71 l 2,46,47
 801 102 801 102 803 132 c 1,48,-1
 801 132 l 1,49,50
 749 63 749 63 678.5 23 c 128,-1,51
 608 -17 608 -17 493 -17 c 0,52,53
 293 -17 293 -17 189 146.5 c 128,-1,54
 85 310 85 310 85 525 c 256,0,1
271 525 m 256,55,56
 271 341 271 341 334.5 227 c 128,-1,57
 398 113 398 113 550 113 c 0,58,59
 658 113 658 113 729.5 186.5 c 128,-1,60
 801 260 801 260 801 410 c 2,61,-1
 801 640 l 2,62,63
 801 790 801 790 729.5 863.5 c 128,-1,64
 658 937 658 937 550 937 c 0,65,66
 398 937 398 937 334.5 823 c 128,-1,67
 271 709 271 709 271 525 c 256,55,56
EndSplineSet
EndChar

StartChar: uni0262
Encoding: 610 610 380
Width: 1111
GlyphClass: 2
Flags: W
AnchorPoint: "Anchor-5" 568 1067 basechar 0
AnchorPoint: "Anchor-4" 568 0 basechar 0
AnchorPoint: "Anchor-3" 1111 1476 basechar 0
AnchorPoint: "Anchor-2" 1111 -400 basechar 0
LayerCount: 2
Fore
SplineSet
85 525 m 256,0,1
 85 760 85 760 201.5 913.5 c 128,-1,2
 318 1067 318 1067 568 1067 c 0,3,4
 730 1067 730 1067 816 1015.5 c 128,-1,5
 902 964 902 964 945 908 c 0,6,7
 969 876 969 876 940 854 c 2,8,-1
 881 808 l 1,9,10
 853 784 853 784 819 829 c 0,11,12
 786 873 786 873 729.5 905 c 128,-1,13
 673 937 673 937 568 937 c 0,14,15
 418 937 418 937 344.5 836 c 128,-1,16
 271 735 271 735 271 525 c 256,17,18
 271 315 271 315 344.5 214 c 128,-1,19
 418 113 418 113 568 113 c 0,20,21
 670 113 670 113 727 136.5 c 128,-1,22
 784 160 784 160 825 201 c 1,23,-1
 825 372 l 1,24,-1
 613 372 l 2,25,26
 568 372 568 372 568 407 c 2,27,-1
 568 469 l 2,28,29
 568 504 568 504 613 504 c 2,30,-1
 956 504 l 2,31,32
 1001 504 1001 504 1001 469 c 2,33,-1
 1001 144 l 1,34,35
 900 62 900 62 815 22.5 c 128,-1,36
 730 -17 730 -17 568 -17 c 0,37,38
 318 -17 318 -17 201.5 136.5 c 128,-1,39
 85 290 85 290 85 525 c 256,0,1
EndSplineSet
EndChar

StartChar: uni0263
Encoding: 611 611 381
Width: 1010
GlyphClass: 2
Flags: W
AnchorPoint: "Anchor-5" 505 1067 basechar 0
AnchorPoint: "Anchor-4" 505 -400 basechar 0
AnchorPoint: "Anchor-3" 1010 1476 basechar 0
AnchorPoint: "Anchor-2" 1010 -400 basechar 0
LayerCount: 2
Fore
SplineSet
45 1001 m 2,0,1
 23 1050 23 1050 72 1050 c 2,2,-1
 181 1050 l 2,3,4
 210 1050 210 1050 226 1011 c 2,5,-1
 469 417 l 2,6,7
 482 386 482 386 490 362 c 128,-1,8
 498 338 498 338 503 311 c 1,9,-1
 507 311 l 1,10,11
 512 338 512 338 520 362 c 128,-1,12
 528 386 528 386 541 417 c 2,13,-1
 784 1011 l 2,14,15
 800 1050 800 1050 829 1050 c 2,16,-1
 938 1050 l 2,17,18
 987 1050 987 1050 965 1001 c 2,19,-1
 611 203 l 1,20,21
 711 43 711 43 746.5 -30 c 128,-1,22
 782 -103 782 -103 782 -173 c 0,23,24
 782 -288 782 -288 723.5 -352 c 128,-1,25
 665 -416 665 -416 505 -416 c 256,26,27
 345 -416 345 -416 286.5 -352 c 128,-1,28
 228 -288 228 -288 228 -173 c 0,29,30
 228 -103 228 -103 263.5 -30 c 128,-1,31
 299 43 299 43 399 203 c 1,32,-1
 45 1001 l 2,0,1
404 -170 m 0,33,34
 404 -225 404 -225 424.5 -255.5 c 128,-1,35
 445 -286 445 -286 505 -286 c 256,36,37
 565 -286 565 -286 585.5 -255.5 c 128,-1,38
 606 -225 606 -225 606 -170 c 0,39,40
 606 -135 606 -135 581 -75 c 128,-1,41
 556 -15 556 -15 506 80 c 1,42,-1
 504 80 l 1,43,44
 454 -15 454 -15 429 -75 c 128,-1,45
 404 -135 404 -135 404 -170 c 0,33,34
EndSplineSet
EndChar

StartChar: uni0264
Encoding: 612 612 382
Width: 1010
GlyphClass: 2
Flags: W
AnchorPoint: "Anchor-5" 505 1067 basechar 0
AnchorPoint: "Anchor-4" 505 0 basechar 0
AnchorPoint: "Anchor-3" 1010 1476 basechar 0
AnchorPoint: "Anchor-2" 1010 -400 basechar 0
LayerCount: 2
Fore
SplineSet
45 1001 m 2,0,1
 9 1050 9 1050 72 1050 c 2,2,-1
 197 1050 l 2,3,4
 214 1050 214 1050 242 1011 c 2,5,-1
 464 706 l 2,6,7
 482 680 482 680 490 664 c 128,-1,8
 498 648 498 648 503 620 c 1,9,-1
 507 620 l 1,10,11
 512 648 512 648 520 664 c 128,-1,12
 528 680 528 680 546 706 c 2,13,-1
 768 1011 l 2,14,15
 796 1050 796 1050 813 1050 c 2,16,-1
 938 1050 l 2,17,18
 1001 1050 1001 1050 965 1001 c 2,19,-1
 619 536 l 1,20,21
 720 418 720 418 748 345.5 c 128,-1,22
 776 273 776 273 776 223 c 0,23,24
 776 114 776 114 701 48.5 c 128,-1,25
 626 -17 626 -17 505 -17 c 256,26,27
 384 -17 384 -17 309 48.5 c 128,-1,28
 234 114 234 114 234 223 c 0,29,30
 234 273 234 273 262 345.5 c 128,-1,31
 290 418 290 418 391 536 c 1,32,-1
 45 1001 l 2,0,1
410 223 m 0,33,34
 410 168 410 168 431 140.5 c 128,-1,35
 452 113 452 113 505 113 c 256,36,37
 558 113 558 113 579 140.5 c 128,-1,38
 600 168 600 168 600 223 c 0,39,40
 600 256 600 256 589 301 c 128,-1,41
 578 346 578 346 506 446 c 1,42,-1
 504 446 l 1,43,44
 432 346 432 346 421 301 c 128,-1,45
 410 256 410 256 410 223 c 0,33,34
EndSplineSet
EndChar

StartChar: uni0265
Encoding: 613 613 383
Width: 1120
GlyphClass: 2
Flags: W
AnchorPoint: "Anchor-5" 559 1067 basechar 0
AnchorPoint: "Anchor-4" 559 -400 basechar 0
AnchorPoint: "Anchor-3" 1120 1476 basechar 0
AnchorPoint: "Anchor-2" 1120 -400 basechar 0
LayerCount: 2
Fore
SplineSet
140 366 m 2,0,-1
 140 1005 l 2,1,2
 140 1050 140 1050 185 1050 c 2,3,-1
 271 1050 l 2,4,5
 316 1050 316 1050 316 1005 c 2,6,-1
 316 414 l 2,7,8
 316 218 316 218 381 165.5 c 128,-1,9
 446 113 446 113 542 113 c 0,10,11
 668 113 668 113 735 190.5 c 128,-1,12
 802 268 802 268 802 456 c 2,13,-1
 802 1005 l 2,14,15
 802 1050 802 1050 847 1050 c 2,16,-1
 933 1050 l 2,17,18
 978 1050 978 1050 978 1005 c 2,19,-1
 978 -355 l 2,20,21
 978 -400 978 -400 933 -400 c 2,22,-1
 847 -400 l 2,23,24
 802 -400 802 -400 802 -355 c 2,25,-1
 802 65 l 2,26,27
 802 95 802 95 804 125 c 1,28,-1
 800 125 l 1,29,30
 735 53 735 53 660 18 c 128,-1,31
 585 -17 585 -17 477 -17 c 0,32,33
 302 -17 302 -17 221 85.5 c 128,-1,34
 140 188 140 188 140 366 c 2,0,-1
EndSplineSet
EndChar

StartChar: uni0266
Encoding: 614 614 384
Width: 1128
GlyphClass: 2
Flags: W
AnchorPoint: "Anchor-5" 565 1476 basechar 0
AnchorPoint: "Anchor-4" 565 0 basechar 0
AnchorPoint: "Anchor-3" 1128 1476 basechar 0
AnchorPoint: "Anchor-2" 1128 -400 basechar 0
LayerCount: 2
Fore
SplineSet
187 0 m 2,0,1
 142 0 142 0 142 45 c 2,2,-1
 142 1051 l 2,3,4
 142 1260 142 1260 243.5 1376.5 c 128,-1,5
 345 1493 345 1493 560 1493 c 0,6,7
 714 1493 714 1493 801.5 1453.5 c 128,-1,8
 889 1414 889 1414 926 1370 c 0,9,10
 953 1337 953 1337 929 1314 c 2,11,-1
 874 1260 l 2,12,13
 853 1239 853 1239 824 1264 c 0,14,15
 765 1314 765 1314 710.5 1338.5 c 128,-1,16
 656 1363 656 1363 559 1363 c 0,17,18
 441 1363 441 1363 379.5 1295 c 128,-1,19
 318 1227 318 1227 318 1025 c 2,20,-1
 318 968 l 2,21,22
 318 938 318 938 316 908 c 1,23,-1
 320 908 l 1,24,25
 385 980 385 980 460 1015 c 128,-1,26
 535 1050 535 1050 647 1050 c 0,27,28
 829 1050 829 1050 908.5 947.5 c 128,-1,29
 988 845 988 845 988 667 c 2,30,-1
 988 45 l 2,31,32
 988 0 988 0 943 0 c 2,33,-1
 857 0 l 2,34,35
 812 0 812 0 812 45 c 2,36,-1
 812 619 l 2,37,38
 812 815 812 815 747 867.5 c 128,-1,39
 682 920 682 920 582 920 c 0,40,41
 452 920 452 920 385 842.5 c 128,-1,42
 318 765 318 765 318 577 c 2,43,-1
 318 45 l 2,44,45
 318 0 318 0 273 0 c 2,46,-1
 187 0 l 2,0,1
EndSplineSet
EndChar

StartChar: uni0267
Encoding: 615 615 385
Width: 1128
GlyphClass: 2
Flags: W
AnchorPoint: "Anchor-5" 565 1476 basechar 0
AnchorPoint: "Anchor-4" 565 -400 basechar 0
AnchorPoint: "Anchor-3" 1128 1476 basechar 0
AnchorPoint: "Anchor-2" 1128 -400 basechar 0
LayerCount: 2
Fore
SplineSet
187 0 m 2,0,1
 142 0 142 0 142 45 c 2,2,-1
 142 1051 l 2,3,4
 142 1260 142 1260 243.5 1376.5 c 128,-1,5
 345 1493 345 1493 560 1493 c 0,6,7
 714 1493 714 1493 801.5 1453.5 c 128,-1,8
 889 1414 889 1414 926 1370 c 0,9,10
 953 1337 953 1337 929 1314 c 2,11,-1
 874 1260 l 2,12,13
 853 1239 853 1239 824 1264 c 0,14,15
 765 1314 765 1314 710.5 1338.5 c 128,-1,16
 656 1363 656 1363 559 1363 c 0,17,18
 441 1363 441 1363 379.5 1295 c 128,-1,19
 318 1227 318 1227 318 1025 c 2,20,-1
 318 968 l 2,21,22
 318 938 318 938 316 908 c 1,23,-1
 320 908 l 1,24,25
 385 980 385 980 460 1015 c 128,-1,26
 535 1050 535 1050 647 1050 c 0,27,28
 829 1050 829 1050 908.5 947.5 c 128,-1,29
 988 845 988 845 988 667 c 2,30,-1
 988 -93 l 2,31,32
 988 -287 988 -287 914.5 -352 c 128,-1,33
 841 -417 841 -417 732 -417 c 0,34,35
 626 -417 626 -417 580 -397 c 0,36,37
 558 -387 558 -387 562 -365 c 2,38,-1
 579 -284 l 2,39,40
 584 -260 584 -260 604 -269 c 0,41,42
 643 -287 643 -287 700 -287 c 0,43,44
 759 -287 759 -287 785.5 -229 c 128,-1,45
 812 -171 812 -171 812 6 c 2,46,-1
 812 619 l 2,47,48
 812 815 812 815 747 867.5 c 128,-1,49
 682 920 682 920 582 920 c 0,50,51
 452 920 452 920 385 842.5 c 128,-1,52
 318 765 318 765 318 577 c 2,53,-1
 318 45 l 2,54,55
 318 0 318 0 273 0 c 2,56,-1
 187 0 l 2,0,1
EndSplineSet
EndChar

StartChar: uni0268
Encoding: 616 616 386
Width: 640
GlyphClass: 2
Flags: W
AnchorPoint: "Anchor-4" 320 0 basechar 0
AnchorPoint: "Anchor-3" 640 1476 basechar 0
AnchorPoint: "Anchor-2" 640 -400 basechar 0
LayerCount: 2
Fore
SplineSet
95 482 m 2,0,1
 50 482 50 482 50 517 c 2,2,-1
 50 579 l 2,3,4
 50 614 50 614 95 614 c 2,5,-1
 232 614 l 1,6,-1
 232 1005 l 2,7,8
 232 1050 232 1050 277 1050 c 2,9,-1
 363 1050 l 2,10,11
 408 1050 408 1050 408 1005 c 2,12,-1
 408 614 l 1,13,-1
 545 614 l 2,14,15
 590 614 590 614 590 579 c 2,16,-1
 590 517 l 2,17,18
 590 482 590 482 545 482 c 2,19,-1
 408 482 l 1,20,-1
 408 45 l 2,21,22
 408 0 408 0 363 0 c 2,23,-1
 277 0 l 2,24,25
 232 0 232 0 232 45 c 2,26,-1
 232 482 l 1,27,-1
 95 482 l 2,0,1
277 1240 m 2,28,29
 232 1240 232 1240 232 1285 c 2,30,-1
 232 1371 l 2,31,32
 232 1416 232 1416 277 1416 c 2,33,-1
 363 1416 l 2,34,35
 408 1416 408 1416 408 1371 c 2,36,-1
 408 1285 l 2,37,38
 408 1240 408 1240 363 1240 c 2,39,-1
 277 1240 l 2,28,29
EndSplineSet
EndChar

StartChar: uni0269
Encoding: 617 617 387
Width: 660
GlyphClass: 2
Flags: W
AnchorPoint: "Anchor-5" 230 1067 basechar 0
AnchorPoint: "Anchor-4" 230 0 basechar 0
AnchorPoint: "Anchor-3" 660 1476 basechar 0
AnchorPoint: "Anchor-2" 660 -400 basechar 0
LayerCount: 2
Fore
SplineSet
142 270 m 2,0,-1
 142 1005 l 2,1,2
 142 1050 142 1050 187 1050 c 2,3,-1
 273 1050 l 2,4,5
 318 1050 318 1050 318 1005 c 2,6,-1
 318 281 l 2,7,8
 318 176 318 176 343 144.5 c 128,-1,9
 368 113 368 113 416 113 c 0,10,11
 444 113 444 113 486.5 133 c 128,-1,12
 529 153 529 153 547 167 c 256,13,14
 565 181 565 181 575 158 c 2,15,-1
 608 81 l 2,16,17
 616 61 616 61 596 49 c 0,18,19
 557 26 557 26 505 4.5 c 128,-1,20
 453 -17 453 -17 356 -17 c 0,21,22
 256 -17 256 -17 199 58 c 128,-1,23
 142 133 142 133 142 270 c 2,0,-1
EndSplineSet
EndChar

StartChar: uni026A
Encoding: 618 618 388
Width: 584
GlyphClass: 2
Flags: W
AnchorPoint: "Anchor-5" 292 1067 basechar 0
AnchorPoint: "Anchor-4" 292 0 basechar 0
AnchorPoint: "Anchor-3" 584 1476 basechar 0
AnchorPoint: "Anchor-2" 584 -400 basechar 0
LayerCount: 2
Fore
SplineSet
145 0 m 2,0,1
 100 0 100 0 100 35 c 2,2,-1
 100 95 l 2,3,4
 100 130 100 130 145 130 c 2,5,-1
 204 130 l 1,6,-1
 204 920 l 1,7,-1
 145 920 l 2,8,9
 100 920 100 920 100 955 c 2,10,-1
 100 1015 l 2,11,12
 100 1050 100 1050 145 1050 c 2,13,-1
 439 1050 l 2,14,15
 484 1050 484 1050 484 1015 c 2,16,-1
 484 955 l 2,17,18
 484 920 484 920 439 920 c 2,19,-1
 380 920 l 1,20,-1
 380 130 l 1,21,-1
 439 130 l 2,22,23
 484 130 484 130 484 95 c 2,24,-1
 484 35 l 2,25,26
 484 0 484 0 439 0 c 2,27,-1
 145 0 l 2,0,1
EndSplineSet
EndChar

StartChar: uni026B
Encoding: 619 619 389
Width: 748
GlyphClass: 2
Flags: W
AnchorPoint: "Anchor-5" 374 1476 basechar 0
AnchorPoint: "Anchor-4" 374 0 basechar 0
AnchorPoint: "Anchor-3" 748 1476 basechar 0
AnchorPoint: "Anchor-2" 748 -400 basechar 0
LayerCount: 2
Fore
SplineSet
55 665 m 2,0,1
 33 675 33 675 43 709 c 0,2,3
 64 780 64 780 114.5 825 c 128,-1,4
 165 870 165 870 245 870 c 0,5,6
 273 870 273 870 286 867 c 1,7,-1
 286 1293 l 2,8,9
 286 1313 286 1313 296 1331 c 2,10,-1
 366 1458 l 2,11,12
 385 1493 385 1493 397 1493 c 2,13,-1
 432 1493 l 2,14,15
 462 1493 462 1493 462 1458 c 2,16,-1
 462 774 l 1,17,18
 488 760 488 760 516 760 c 0,19,20
 559 760 559 760 580 782 c 128,-1,21
 601 804 601 804 617 842 c 0,22,23
 630 872 630 872 654 862 c 2,24,-1
 693 845 l 2,25,26
 715 835 715 835 705 801 c 0,27,28
 684 730 684 730 633.5 685 c 128,-1,29
 583 640 583 640 503 640 c 0,30,31
 475 640 475 640 462 643 c 1,32,-1
 462 45 l 2,33,34
 462 0 462 0 417 0 c 2,35,-1
 331 0 l 2,36,37
 286 0 286 0 286 45 c 2,38,-1
 286 736 l 1,39,40
 260 750 260 750 232 750 c 0,41,42
 189 750 189 750 168 728 c 128,-1,43
 147 706 147 706 131 668 c 0,44,45
 118 638 118 638 94 648 c 2,46,-1
 55 665 l 2,0,1
EndSplineSet
EndChar

StartChar: uni026C
Encoding: 620 620 390
Width: 834
GlyphClass: 2
Flags: W
AnchorPoint: "Anchor-5" 423 1476 basechar 0
AnchorPoint: "Anchor-4" 423 0 basechar 0
AnchorPoint: "Anchor-3" 834 1476 basechar 0
AnchorPoint: "Anchor-2" 834 -400 basechar 0
LayerCount: 2
Fore
SplineSet
40 757 m 0,0,1
 40 884 40 884 126 950 c 128,-1,2
 212 1016 212 1016 318 1016 c 1,3,-1
 318 1293 l 2,4,5
 318 1313 318 1313 328 1331 c 2,6,-1
 398 1458 l 2,7,8
 417 1493 417 1493 429 1493 c 2,9,-1
 464 1493 l 2,10,11
 494 1493 494 1493 494 1458 c 2,12,-1
 494 620 l 1,13,14
 566 624 566 624 619 644 c 128,-1,15
 672 664 672 664 713 694 c 0,16,17
 742 716 742 716 764 683 c 2,18,-1
 798 632 l 2,19,20
 817 603 817 603 778 579 c 0,21,22
 722 544 722 544 657 522 c 128,-1,23
 592 500 592 500 494 490 c 1,24,-1
 494 45 l 2,25,26
 494 0 494 0 449 0 c 2,27,-1
 363 0 l 2,28,29
 318 0 318 0 318 45 c 2,30,-1
 318 490 l 1,31,32
 194 500 194 500 117 568 c 128,-1,33
 40 636 40 636 40 757 c 0,0,1
193 756 m 0,34,35
 193 680 193 680 231.5 654 c 128,-1,36
 270 628 270 628 318 620 c 1,37,-1
 318 886 l 1,38,39
 254 886 254 886 223.5 849 c 128,-1,40
 193 812 193 812 193 756 c 0,34,35
EndSplineSet
EndChar

StartChar: uni026D
Encoding: 621 621 391
Width: 470
GlyphClass: 2
Flags: W
AnchorPoint: "Anchor-5" 230 1476 basechar 0
AnchorPoint: "Anchor-4" 230 -400 basechar 0
AnchorPoint: "Anchor-3" 470 1476 basechar 0
AnchorPoint: "Anchor-2" 470 -400 basechar 0
LayerCount: 2
Fore
SplineSet
142 -93 m 2,0,-1
 142 1293 l 2,1,2
 142 1313 142 1313 152 1331 c 2,3,-1
 222 1458 l 2,4,5
 241 1493 241 1493 253 1493 c 2,6,-1
 288 1493 l 2,7,8
 318 1493 318 1493 318 1458 c 2,9,-1
 318 6 l 2,10,11
 318 -171 318 -171 344.5 -229 c 128,-1,12
 371 -287 371 -287 430 -287 c 0,13,14
 487 -287 487 -287 526 -269 c 0,15,16
 546 -260 546 -260 551 -284 c 2,17,-1
 568 -365 l 2,18,19
 572 -387 572 -387 550 -397 c 0,20,21
 504 -417 504 -417 398 -417 c 0,22,23
 289 -417 289 -417 215.5 -352 c 128,-1,24
 142 -287 142 -287 142 -93 c 2,0,-1
EndSplineSet
EndChar

StartChar: uni026E
Encoding: 622 622 392
Width: 1186
GlyphClass: 2
Flags: W
AnchorPoint: "Anchor-5" 614 1476 basechar 0
AnchorPoint: "Anchor-4" 614 -400 basechar 0
AnchorPoint: "Anchor-3" 1186 1476 basechar 0
AnchorPoint: "Anchor-2" 1186 -400 basechar 0
LayerCount: 2
Fore
SplineSet
187 0 m 2,0,1
 142 0 142 0 142 45 c 2,2,-1
 142 1293 l 2,3,4
 142 1313 142 1313 152 1331 c 2,5,-1
 222 1458 l 2,6,7
 241 1493 241 1493 253 1493 c 2,8,-1
 288 1493 l 2,9,10
 318 1493 318 1493 318 1458 c 2,11,-1
 318 1050 l 1,12,-1
 1030 1050 l 2,13,14
 1075 1050 1075 1050 1075 1015 c 2,15,-1
 1075 968 l 2,16,17
 1075 936 1075 936 1038 890 c 2,18,-1
 676 438 l 1,19,-1
 676 434 l 1,20,21
 861 434 861 434 973.5 326.5 c 128,-1,22
 1086 219 1086 219 1086 22 c 0,23,24
 1086 -204 1086 -204 979.5 -310.5 c 128,-1,25
 873 -417 873 -417 654 -417 c 0,26,27
 480 -417 480 -417 384.5 -351 c 128,-1,28
 289 -285 289 -285 281 -271 c 0,29,30
 260 -235 260 -235 283 -216 c 2,31,-1
 343 -167 l 2,32,33
 373 -142 373 -142 405 -186 c 0,34,35
 411 -194 411 -194 471 -240.5 c 128,-1,36
 531 -287 531 -287 644 -287 c 0,37,38
 792 -287 792 -287 846 -212.5 c 128,-1,39
 900 -138 900 -138 900 14 c 0,40,41
 900 156 900 156 837 231 c 128,-1,42
 774 306 774 306 599 306 c 2,43,-1
 524 306 l 2,44,45
 479 306 479 306 479 341 c 2,46,-1
 479 392 l 2,47,48
 479 428 479 428 514 472 c 2,49,-1
 872 918 l 1,50,-1
 872 920 l 1,51,52
 842 918 842 918 812 918 c 2,53,-1
 318 918 l 1,54,-1
 318 45 l 2,55,56
 318 0 318 0 273 0 c 2,57,-1
 187 0 l 2,0,1
EndSplineSet
EndChar

StartChar: uni026F
Encoding: 623 623 393
Width: 1678
GlyphClass: 2
Flags: W
AnchorPoint: "Anchor-5" 838 1067 basechar 0
AnchorPoint: "Anchor-4" 838 0 basechar 0
AnchorPoint: "Anchor-3" 1678 1476 basechar 0
AnchorPoint: "Anchor-2" 1678 -400 basechar 0
LayerCount: 2
Fore
SplineSet
140 366 m 2,0,-1
 140 1005 l 2,1,2
 140 1050 140 1050 185 1050 c 2,3,-1
 271 1050 l 2,4,5
 316 1050 316 1050 316 1005 c 2,6,-1
 316 424 l 2,7,8
 316 228 316 228 365 170.5 c 128,-1,9
 414 113 414 113 516 113 c 0,10,11
 616 113 616 113 683 198.5 c 128,-1,12
 750 284 750 284 750 456 c 2,13,-1
 750 1005 l 2,14,15
 750 1050 750 1050 795 1050 c 2,16,-1
 881 1050 l 2,17,18
 926 1050 926 1050 926 1005 c 2,19,-1
 926 424 l 2,20,21
 926 228 926 228 975 170.5 c 128,-1,22
 1024 113 1024 113 1126 113 c 0,23,24
 1226 113 1226 113 1293 190.5 c 128,-1,25
 1360 268 1360 268 1360 456 c 2,26,-1
 1360 1005 l 2,27,28
 1360 1050 1360 1050 1405 1050 c 2,29,-1
 1491 1050 l 2,30,31
 1536 1050 1536 1050 1536 1005 c 2,32,-1
 1536 45 l 2,33,34
 1536 0 1536 0 1491 0 c 2,35,-1
 1407 0 l 2,36,37
 1362 0 1362 0 1362 45 c 2,38,-1
 1362 125 l 1,39,-1
 1358 125 l 1,40,41
 1293 53 1293 53 1217 18 c 128,-1,42
 1141 -17 1141 -17 1071 -17 c 0,43,44
 942 -17 942 -17 872.5 47.5 c 128,-1,45
 803 112 803 112 783 177 c 1,46,-1
 779 177 l 1,47,48
 724 95 724 95 640 39 c 128,-1,49
 556 -17 556 -17 461 -17 c 0,50,51
 302 -17 302 -17 221 85.5 c 128,-1,52
 140 188 140 188 140 366 c 2,0,-1
EndSplineSet
EndChar

StartChar: uni0270
Encoding: 624 624 394
Width: 1678
GlyphClass: 2
Flags: W
AnchorPoint: "Anchor-5" 838 1067 basechar 0
AnchorPoint: "Anchor-4" 838 -400 basechar 0
AnchorPoint: "Anchor-3" 1678 1476 basechar 0
AnchorPoint: "Anchor-2" 1678 -400 basechar 0
LayerCount: 2
Fore
SplineSet
140 366 m 2,0,-1
 140 1005 l 2,1,2
 140 1050 140 1050 185 1050 c 2,3,-1
 271 1050 l 2,4,5
 316 1050 316 1050 316 1005 c 2,6,-1
 316 424 l 2,7,8
 316 228 316 228 365 170.5 c 128,-1,9
 414 113 414 113 516 113 c 0,10,11
 616 113 616 113 683 198.5 c 128,-1,12
 750 284 750 284 750 456 c 2,13,-1
 750 1005 l 2,14,15
 750 1050 750 1050 795 1050 c 2,16,-1
 881 1050 l 2,17,18
 926 1050 926 1050 926 1005 c 2,19,-1
 926 424 l 2,20,21
 926 228 926 228 975 170.5 c 128,-1,22
 1024 113 1024 113 1126 113 c 0,23,24
 1226 113 1226 113 1293 190.5 c 128,-1,25
 1360 268 1360 268 1360 456 c 2,26,-1
 1360 1005 l 2,27,28
 1360 1050 1360 1050 1405 1050 c 2,29,-1
 1491 1050 l 2,30,31
 1536 1050 1536 1050 1536 1005 c 2,32,-1
 1536 -355 l 2,33,34
 1536 -400 1536 -400 1491 -400 c 2,35,-1
 1405 -400 l 2,36,37
 1360 -400 1360 -400 1360 -355 c 2,38,-1
 1360 64 l 2,39,40
 1360 95 1360 95 1362 125 c 1,41,-1
 1358 125 l 1,42,43
 1293 53 1293 53 1217 18 c 128,-1,44
 1141 -17 1141 -17 1071 -17 c 0,45,46
 942 -17 942 -17 872.5 47.5 c 128,-1,47
 803 112 803 112 783 177 c 1,48,-1
 779 177 l 1,49,50
 724 95 724 95 640 39 c 128,-1,51
 556 -17 556 -17 461 -17 c 0,52,53
 302 -17 302 -17 221 85.5 c 128,-1,54
 140 188 140 188 140 366 c 2,0,-1
EndSplineSet
EndChar

StartChar: uni0271
Encoding: 625 625 395
Width: 1678
GlyphClass: 2
Flags: W
AnchorPoint: "Anchor-5" 840 1067 basechar 0
AnchorPoint: "Anchor-4" 840 -400 basechar 0
AnchorPoint: "Anchor-3" 1678 1476 basechar 0
AnchorPoint: "Anchor-2" 1678 -400 basechar 0
LayerCount: 2
Fore
SplineSet
187 0 m 2,0,1
 142 0 142 0 142 45 c 2,2,-1
 142 1005 l 2,3,4
 142 1050 142 1050 187 1050 c 2,5,-1
 271 1050 l 2,6,7
 316 1050 316 1050 316 1005 c 2,8,-1
 316 925 l 1,9,-1
 320 925 l 1,10,11
 385 997 385 997 461 1032 c 128,-1,12
 537 1067 537 1067 607 1067 c 0,13,14
 736 1067 736 1067 805.5 1002.5 c 128,-1,15
 875 938 875 938 895 873 c 1,16,-1
 899 873 l 1,17,18
 954 955 954 955 1038 1011 c 128,-1,19
 1122 1067 1122 1067 1217 1067 c 0,20,21
 1376 1067 1376 1067 1457 964.5 c 128,-1,22
 1538 862 1538 862 1538 684 c 2,23,-1
 1538 -93 l 2,24,25
 1538 -287 1538 -287 1464.5 -352 c 128,-1,26
 1391 -417 1391 -417 1282 -417 c 0,27,28
 1176 -417 1176 -417 1130 -397 c 0,29,30
 1108 -387 1108 -387 1112 -365 c 2,31,-1
 1129 -284 l 2,32,33
 1134 -260 1134 -260 1154 -269 c 0,34,35
 1193 -287 1193 -287 1250 -287 c 0,36,37
 1309 -287 1309 -287 1335.5 -229 c 128,-1,38
 1362 -171 1362 -171 1362 6 c 2,39,-1
 1362 626 l 2,40,41
 1362 822 1362 822 1313 879.5 c 128,-1,42
 1264 937 1264 937 1162 937 c 0,43,44
 1062 937 1062 937 995 851.5 c 128,-1,45
 928 766 928 766 928 594 c 2,46,-1
 928 45 l 2,47,48
 928 0 928 0 883 0 c 2,49,-1
 797 0 l 2,50,51
 752 0 752 0 752 45 c 2,52,-1
 752 626 l 2,53,54
 752 822 752 822 703 879.5 c 128,-1,55
 654 937 654 937 552 937 c 0,56,57
 452 937 452 937 385 859.5 c 128,-1,58
 318 782 318 782 318 594 c 2,59,-1
 318 45 l 2,60,61
 318 0 318 0 273 0 c 2,62,-1
 187 0 l 2,0,1
EndSplineSet
EndChar

StartChar: uni0272
Encoding: 626 626 396
Width: 1134
GlyphClass: 2
Flags: W
AnchorPoint: "Anchor-5" 571 1067 basechar 0
AnchorPoint: "Anchor-4" 446 -400 basechar 0
AnchorPoint: "Anchor-3" 1134 1476 basechar 0
AnchorPoint: "Anchor-2" 1134 -400 basechar 0
LayerCount: 2
Fore
SplineSet
-84 -397 m 0,0,1
 -106 -387 -106 -387 -102 -365 c 2,2,-1
 -85 -284 l 2,3,4
 -80 -260 -80 -260 -60 -269 c 0,5,6
 -21 -287 -21 -287 36 -287 c 0,7,8
 95 -287 95 -287 121.5 -229 c 128,-1,9
 148 -171 148 -171 148 6 c 2,10,-1
 148 1005 l 2,11,12
 148 1050 148 1050 193 1050 c 2,13,-1
 277 1050 l 2,14,15
 322 1050 322 1050 322 1005 c 2,16,-1
 322 925 l 1,17,-1
 326 925 l 1,18,19
 391 997 391 997 466 1032 c 128,-1,20
 541 1067 541 1067 653 1067 c 0,21,22
 835 1067 835 1067 914.5 964.5 c 128,-1,23
 994 862 994 862 994 684 c 2,24,-1
 994 45 l 2,25,26
 994 0 994 0 949 0 c 2,27,-1
 863 0 l 2,28,29
 818 0 818 0 818 45 c 2,30,-1
 818 636 l 2,31,32
 818 832 818 832 753 884.5 c 128,-1,33
 688 937 688 937 588 937 c 0,34,35
 458 937 458 937 391 859.5 c 128,-1,36
 324 782 324 782 324 594 c 2,37,-1
 324 -93 l 2,38,39
 324 -287 324 -287 250.5 -352 c 128,-1,40
 177 -417 177 -417 68 -417 c 0,41,42
 -38 -417 -38 -417 -84 -397 c 0,0,1
EndSplineSet
EndChar

StartChar: uni0273
Encoding: 627 627 397
Width: 1138
GlyphClass: 2
Flags: W
AnchorPoint: "Anchor-5" 565 1067 basechar 0
AnchorPoint: "Anchor-4" 565 -400 basechar 0
AnchorPoint: "Anchor-3" 1138 1476 basechar 0
AnchorPoint: "Anchor-2" 1138 -400 basechar 0
LayerCount: 2
Fore
SplineSet
187 0 m 2,0,1
 142 0 142 0 142 45 c 2,2,-1
 142 1005 l 2,3,4
 142 1050 142 1050 187 1050 c 2,5,-1
 271 1050 l 2,6,7
 316 1050 316 1050 316 1005 c 2,8,-1
 316 925 l 1,9,-1
 320 925 l 1,10,11
 385 997 385 997 460 1032 c 128,-1,12
 535 1067 535 1067 647 1067 c 0,13,14
 829 1067 829 1067 908.5 964.5 c 128,-1,15
 988 862 988 862 988 684 c 2,16,-1
 988 6 l 2,17,18
 988 -171 988 -171 1014.5 -229 c 128,-1,19
 1041 -287 1041 -287 1100 -287 c 0,20,21
 1157 -287 1157 -287 1196 -269 c 0,22,23
 1216 -260 1216 -260 1221 -284 c 2,24,-1
 1238 -365 l 2,25,26
 1242 -387 1242 -387 1220 -397 c 0,27,28
 1174 -417 1174 -417 1068 -417 c 0,29,30
 959 -417 959 -417 885.5 -352 c 128,-1,31
 812 -287 812 -287 812 -93 c 2,32,-1
 812 636 l 2,33,34
 812 832 812 832 747 884.5 c 128,-1,35
 682 937 682 937 582 937 c 0,36,37
 452 937 452 937 385 859.5 c 128,-1,38
 318 782 318 782 318 594 c 2,39,-1
 318 45 l 2,40,41
 318 0 318 0 273 0 c 2,42,-1
 187 0 l 2,0,1
EndSplineSet
EndChar

StartChar: uni0274
Encoding: 628 628 398
Width: 1190
GlyphClass: 2
Flags: W
AnchorPoint: "Anchor-5" 595 1067 basechar 0
AnchorPoint: "Anchor-4" 595 0 basechar 0
AnchorPoint: "Anchor-3" 1190 1476 basechar 0
AnchorPoint: "Anchor-2" 1190 -400 basechar 0
LayerCount: 2
Fore
SplineSet
187 0 m 2,0,1
 142 0 142 0 142 45 c 2,2,-1
 142 1005 l 2,3,4
 142 1050 142 1050 187 1050 c 2,5,-1
 312 1050 l 2,6,7
 366 1050 366 1050 398 1001 c 2,8,-1
 872 286 l 1,9,-1
 874 286 l 1,10,11
 872 316 872 316 872 346 c 2,12,-1
 872 1005 l 2,13,14
 872 1050 872 1050 917 1050 c 2,15,-1
 1003 1050 l 2,16,17
 1048 1050 1048 1050 1048 1005 c 2,18,-1
 1048 45 l 2,19,20
 1048 0 1048 0 1003 0 c 2,21,-1
 912 0 l 2,22,23
 859 0 859 0 826 49 c 2,24,-1
 318 812 l 1,25,-1
 316 812 l 1,26,27
 318 782 318 782 318 752 c 2,28,-1
 318 45 l 2,29,30
 318 0 318 0 273 0 c 2,31,-1
 187 0 l 2,0,1
EndSplineSet
EndChar

StartChar: uni0276
Encoding: 630 630 400
Width: 1609
GlyphClass: 2
Flags: W
AnchorPoint: "Anchor-5" 792 1067 basechar 0
AnchorPoint: "Anchor-4" 792 0 basechar 0
AnchorPoint: "Anchor-3" 1609 1476 basechar 0
AnchorPoint: "Anchor-2" 1609 -400 basechar 0
LayerCount: 2
Fore
SplineSet
85 525 m 256,0,1
 85 775 85 775 212 921 c 128,-1,2
 339 1067 339 1067 589 1067 c 0,3,4
 657 1067 657 1067 726.5 1058.5 c 128,-1,5
 796 1050 796 1050 864 1050 c 2,6,-1
 1432 1050 l 2,7,8
 1477 1050 1477 1050 1477 1015 c 2,9,-1
 1477 953 l 2,10,11
 1477 918 1477 918 1432 918 c 2,12,-1
 929 918 l 1,13,-1
 929 608 l 1,14,-1
 1388 608 l 2,15,16
 1433 608 1433 608 1433 573 c 2,17,-1
 1433 510 l 2,18,19
 1433 475 1433 475 1388 475 c 2,20,-1
 929 475 l 1,21,-1
 929 132 l 1,22,-1
 1454 132 l 2,23,24
 1499 132 1499 132 1499 97 c 2,25,-1
 1499 35 l 2,26,27
 1499 0 1499 0 1454 0 c 2,28,-1
 864 0 l 2,29,30
 796 0 796 0 726.5 -8.5 c 128,-1,31
 657 -17 657 -17 589 -17 c 0,32,33
 339 -17 339 -17 212 129 c 128,-1,34
 85 275 85 275 85 525 c 256,0,1
273 525 m 256,35,36
 273 330 273 330 350.5 221.5 c 128,-1,37
 428 113 428 113 583 113 c 0,38,39
 693 113 693 113 753 132 c 1,40,-1
 753 918 l 1,41,42
 693 937 693 937 583 937 c 0,43,44
 428 937 428 937 350.5 828.5 c 128,-1,45
 273 720 273 720 273 525 c 256,35,36
EndSplineSet
EndChar

StartChar: uni0277
Encoding: 631 631 401
Width: 1438
GlyphClass: 2
Flags: W
AnchorPoint: "Anchor-5" 719 1067 basechar 0
AnchorPoint: "Anchor-4" 719 0 basechar 0
AnchorPoint: "Anchor-3" 1438 1476 basechar 0
AnchorPoint: "Anchor-2" 1438 -400 basechar 0
LayerCount: 2
Fore
SplineSet
85 469 m 0,0,1
 85 724 85 724 257 895.5 c 128,-1,2
 429 1067 429 1067 719 1067 c 256,3,4
 1009 1067 1009 1067 1181 895.5 c 128,-1,5
 1353 724 1353 724 1353 469 c 0,6,7
 1353 264 1353 264 1264.5 123.5 c 128,-1,8
 1176 -17 1176 -17 1017 -17 c 0,9,10
 888 -17 888 -17 819.5 38 c 128,-1,11
 751 93 751 93 720 184 c 1,12,-1
 718 184 l 1,13,14
 687 93 687 93 618.5 38 c 128,-1,15
 550 -17 550 -17 421 -17 c 0,16,17
 262 -17 262 -17 173.5 123.5 c 128,-1,18
 85 264 85 264 85 469 c 0,0,1
271 479 m 0,19,20
 271 349 271 349 302 231 c 128,-1,21
 333 113 333 113 443 113 c 0,22,23
 528 113 528 113 579.5 191.5 c 128,-1,24
 631 270 631 270 631 392 c 2,25,-1
 631 538 l 2,26,27
 631 578 631 578 666 578 c 2,28,-1
 772 578 l 2,29,30
 807 578 807 578 807 538 c 2,31,-1
 807 392 l 2,32,33
 807 270 807 270 858.5 191.5 c 128,-1,34
 910 113 910 113 995 113 c 0,35,36
 1105 113 1105 113 1136 231 c 128,-1,37
 1167 349 1167 349 1167 479 c 0,38,39
 1167 649 1167 649 1059.5 793 c 128,-1,40
 952 937 952 937 719 937 c 256,41,42
 486 937 486 937 378.5 793 c 128,-1,43
 271 649 271 649 271 479 c 0,19,20
EndSplineSet
EndChar

StartChar: uni0278
Encoding: 632 632 402
Width: 1286
GlyphClass: 2
Flags: W
AnchorPoint: "Anchor-5" 643 1476 basechar 0
AnchorPoint: "Anchor-4" 643 -400 basechar 0
AnchorPoint: "Anchor-3" 1286 1476 basechar 0
AnchorPoint: "Anchor-2" 1286 -400 basechar 0
LayerCount: 2
Fore
SplineSet
85 525 m 256,0,1
 85 750 85 750 200 906.5 c 128,-1,2
 315 1063 315 1063 555 1063 c 1,3,-1
 555 1395 l 2,4,5
 555 1440 555 1440 600 1440 c 2,6,-1
 686 1440 l 2,7,8
 731 1440 731 1440 731 1395 c 2,9,-1
 731 1063 l 1,10,11
 971 1063 971 1063 1086 906.5 c 128,-1,12
 1201 750 1201 750 1201 525 c 256,13,14
 1201 300 1201 300 1086 143.5 c 128,-1,15
 971 -13 971 -13 731 -13 c 1,16,-1
 731 -355 l 2,17,18
 731 -400 731 -400 686 -400 c 2,19,-1
 600 -400 l 2,20,21
 555 -400 555 -400 555 -355 c 2,22,-1
 555 -13 l 1,23,24
 315 -13 315 -13 200 143.5 c 128,-1,25
 85 300 85 300 85 525 c 256,0,1
271 525 m 256,26,27
 271 310 271 310 340.5 213.5 c 128,-1,28
 410 117 410 117 555 117 c 1,29,-1
 555 933 l 1,30,31
 410 933 410 933 340.5 836.5 c 128,-1,32
 271 740 271 740 271 525 c 256,26,27
731 117 m 1,33,34
 876 117 876 117 945.5 213.5 c 128,-1,35
 1015 310 1015 310 1015 525 c 256,36,37
 1015 740 1015 740 945.5 836.5 c 128,-1,38
 876 933 876 933 731 933 c 1,39,-1
 731 117 l 1,33,34
EndSplineSet
EndChar

StartChar: uni0279
Encoding: 633 633 403
Width: 722
GlyphClass: 2
Flags: W
AnchorPoint: "Anchor-5" 299 1067 basechar 0
AnchorPoint: "Anchor-4" 299 0 basechar 0
AnchorPoint: "Anchor-3" 722 1476 basechar 0
AnchorPoint: "Anchor-2" 722 -400 basechar 0
LayerCount: 2
Fore
SplineSet
20 24 m 2,0,-1
 43 106 l 2,1,2
 48 124 48 124 69 120 c 0,3,4
 104 113 104 113 135 113 c 0,5,6
 252 113 252 113 328 218.5 c 128,-1,7
 404 324 404 324 404 506 c 2,8,-1
 404 1005 l 2,9,10
 404 1050 404 1050 449 1050 c 2,11,-1
 535 1050 l 2,12,13
 580 1050 580 1050 580 1005 c 2,14,-1
 580 45 l 2,15,16
 580 0 580 0 535 0 c 2,17,-1
 451 0 l 2,18,19
 406 0 406 0 406 45 c 2,20,-1
 406 165 l 1,21,-1
 402 165 l 1,22,23
 354 75 354 75 289 29 c 128,-1,24
 224 -17 224 -17 127 -17 c 0,25,26
 63 -17 63 -17 37 -6 c 0,27,28
 14 3 14 3 20 24 c 2,0,-1
EndSplineSet
EndChar

StartChar: uni027A
Encoding: 634 634 404
Width: 722
GlyphClass: 2
Flags: W
AnchorPoint: "Anchor-5" 299 1476 basechar 0
AnchorPoint: "Anchor-4" 299 0 basechar 0
AnchorPoint: "Anchor-3" 722 1476 basechar 0
AnchorPoint: "Anchor-2" 722 -400 basechar 0
LayerCount: 2
Fore
SplineSet
37 -6 m 0,0,1
 14 3 14 3 20 24 c 2,2,-1
 43 106 l 2,3,4
 48 124 48 124 69 120 c 0,5,6
 104 113 104 113 135 113 c 0,7,8
 252 113 252 113 328 218.5 c 128,-1,9
 404 324 404 324 404 506 c 2,10,-1
 404 1431 l 2,11,12
 404 1476 404 1476 449 1476 c 2,13,-1
 535 1476 l 2,14,15
 580 1476 580 1476 580 1431 c 2,16,-1
 580 45 l 2,17,18
 580 0 580 0 535 0 c 2,19,-1
 451 0 l 2,20,21
 406 0 406 0 406 45 c 2,22,-1
 406 165 l 1,23,-1
 402 165 l 1,24,25
 354 75 354 75 289 29 c 128,-1,26
 224 -17 224 -17 127 -17 c 0,27,28
 63 -17 63 -17 37 -6 c 0,0,1
EndSplineSet
EndChar

StartChar: uni027B
Encoding: 635 635 405
Width: 732
GlyphClass: 2
Flags: W
AnchorPoint: "Anchor-5" 425 1067 basechar 0
AnchorPoint: "Anchor-4" 425 -400 basechar 0
AnchorPoint: "Anchor-3" 732 1476 basechar 0
AnchorPoint: "Anchor-2" 732 -400 basechar 0
LayerCount: 2
Fore
SplineSet
37 -6 m 0,0,1
 14 3 14 3 20 24 c 2,2,-1
 43 106 l 2,3,4
 48 124 48 124 69 120 c 0,5,6
 104 113 104 113 135 113 c 0,7,8
 252 113 252 113 328 218.5 c 128,-1,9
 404 324 404 324 404 506 c 2,10,-1
 404 1005 l 2,11,12
 404 1050 404 1050 449 1050 c 2,13,-1
 535 1050 l 2,14,15
 580 1050 580 1050 580 1005 c 2,16,-1
 580 6 l 2,17,18
 580 -171 580 -171 606.5 -229 c 128,-1,19
 633 -287 633 -287 692 -287 c 0,20,21
 749 -287 749 -287 788 -269 c 0,22,23
 808 -260 808 -260 813 -284 c 2,24,-1
 830 -365 l 2,25,26
 835 -387 835 -387 812 -397 c 0,27,28
 766 -417 766 -417 660 -417 c 0,29,30
 551 -417 551 -417 477.5 -351.5 c 128,-1,31
 404 -286 404 -286 404 -93 c 2,32,-1
 404 105 l 2,33,34
 404 135 404 135 406 165 c 1,35,-1
 402 165 l 1,36,37
 354 75 354 75 288.5 29 c 128,-1,38
 223 -17 223 -17 127 -17 c 0,39,40
 65 -17 65 -17 37 -6 c 0,0,1
EndSplineSet
EndChar

